SplineFontDB: 3.0
FontName: GoudyStM-Italic
FullName: Sorts Mill Goudy Italic
FamilyName: Sorts Mill Goudy
Weight: Medium
Copyright: Copyright (c) 2009 Barry Schwartz
UComments: "2009-6-24: Created." 
Version: 003.001
ItalicAngle: -6
UnderlinePosition: -99
UnderlineWidth: 49
Ascent: 777
Descent: 223
LayerCount: 3
Layer: 0 0 "Back"  1
Layer: 1 0 "Fore"  0
Layer: 2 0 "backup"  1
XUID: [1021 658 797806517 2347079]
FSType: 0
OS2Version: 0
OS2_WeightWidthSlopeOnly: 0
OS2_UseTypoMetrics: 1
CreationTime: 1245830276
ModificationTime: 1277752036
PfmFamily: 17
TTFWeight: 500
TTFWidth: 5
LineGap: 90
VLineGap: 0
OS2TypoAscent: 0
OS2TypoAOffset: 1
OS2TypoDescent: 0
OS2TypoDOffset: 1
OS2TypoLinegap: 90
OS2WinAscent: 0
OS2WinAOffset: 1
OS2WinDescent: 0
OS2WinDOffset: 1
HheadAscent: 0
HheadAOffset: 1
HheadDescent: 0
HheadDOffset: 1
OS2Vendor: 'PfEd'
Lookup: 3 0 0 "'aalt' Access All Alternates lookup 0"  {"'aalt' Access All Alternates lookup 0 subtable"  } ['aalt' ('DFLT' <'dflt' > ) ]
Lookup: 3 0 0 "'aalt' Access All Alternates in Latin lookup 0"  {"'aalt' Access All Alternates in Latin lookup 0 subtable"  } ['aalt' ('latn' <'TRK ' 'AZE ' 'CRT ' 'dflt' > ) ]
Lookup: 1 0 0 "turkish"  {"turkish subtable"  } ['locl' ('latn' <'TRK ' 'AZE ' 'CRT ' > ) ]
Lookup: 1 0 0 "numerators"  {"numerators subtable"  } ['frac' ('latn' <'dflt' 'TRK ' 'AZE ' 'CRT ' > 'DFLT' <'dflt' > ) 'numr' ('latn' <'dflt' 'TRK ' 'AZE ' 'CRT ' > 'DFLT' <'dflt' > ) ]
Lookup: 1 0 0 "denominators"  {"denominators subtable"  } ['dnom' ('latn' <'dflt' 'TRK ' 'AZE ' 'CRT ' > 'DFLT' <'dflt' > ) ]
Lookup: 1 0 0 "'numr' Numerators in Latin lookup 3"  {"'numr' Numerators in Latin lookup 3 subtable"  } ['numr' ('latn' <'dflt' 'TRK ' 'AZE ' 'CRT ' > 'DFLT' <'dflt' > ) ]
Lookup: 1 0 0 "'dnom' Denominators in Latin lookup 4"  {"'dnom' Denominators in Latin lookup 4 subtable"  } ['dnom' ('latn' <'dflt' 'TRK ' 'AZE ' 'CRT ' > 'DFLT' <'dflt' > ) ]

StartChar: h
Encoding: 104 104 0
Width: 485
VWidth: 0
Flags: HMW
PickledData: "(dp1
Vspacing_anchors_slanted
p2
I00
s."
HStem: -3 67<325.5 401.14> 372 53<223.778 301.356> 704 26<47.0856 126.119> 727 20G<182 196.5>
VStem: 297 62<64.787 276.357> 315 68<140.216 360.718>
DStem2: 58 206 99 29 0.148683 0.988885<-183.971 62.0345>
AnchorPoint: "top" 296 723 basechar 0
AnchorPoint: "l;bl" 0 20 basechar 0
AnchorPoint: "l;o" 15 220 basechar 0
AnchorPoint: "l;hi" 38 732 basechar 0
AnchorPoint: "l;t" 29 562 basechar 0
AnchorPoint: "l;x" 20 415 basechar 0
AnchorPoint: "r;bl" 485 20 basechar 0
AnchorPoint: "r;o" 485 220 basechar 0
AnchorPoint: "r;hi" 407 732 basechar 0
AnchorPoint: "r;t" 407 562 basechar 0
AnchorPoint: "r;x" 456 415 basechar 0
LayerCount: 3
Fore
SplineSet
29 23 m 0xd4
 29 50 50 151 58 206 c 0
 69 280 129 675 129 682 c 0
 129 699 119 705 101 705 c 0
 80 705 68 704 60 704 c 0
 54 704 47 706 47 716 c 0
 47 721 51 727 85 730 c 0xe4
 167 737 171 747 193 747 c 0
 200 747 205 741 205 734 c 0
 205 712 145 442 145 351 c 0
 145 345 146 340 149 340 c 0
 159 340 213 425 294 425 c 0
 363 425 383 374 383 312 c 0xd4
 383 255 359 156 359 110 c 0xd8
 359 83 368 64 383 64 c 0xd4
 399 64 412 74 425 82 c 0
 446 95 458 123 466 123 c 0
 472 123 476 120 476 115 c 0
 476 69 390 -3 346 -3 c 0
 305 -3 297 47 297 90 c 0xd8
 297 152 315 234 315 294 c 0
 315 357 288 372 258 372 c 0
 222 372 166 354 139 285 c 0
 119 235 113 131 99 29 c 0
 95 3 83 -1 62 -1 c 0
 51 -1 29 3 29 23 c 0xd4
EndSplineSet
EndChar

StartChar: g
Encoding: 103 103 1
Width: 435
VWidth: 0
Flags: HMW
PickledData: "(dp1
Vspacing_anchors_slanted
p2
I00
s."
HStem: -195 25<109.645 251.621> 115 23<151.048 217.8> 401 26<167.499 237.53>
VStem: -24 55<-119.84 -12.7819> 56 60<166.307 344.097> 99 1<94 141> 274 58<204.837 368.079> 291 64<-147.481 -76.4659>
AnchorPoint: "top" 232 459 basechar 0
AnchorPoint: "l;bl" 0 20 basechar 0
AnchorPoint: "l;k;lo" -34 -205 basechar 0
AnchorPoint: "l;o" 20 220 basechar 0
AnchorPoint: "l;x" 44 415 basechar 0
AnchorPoint: "r;bl" 381 20 basechar 0
AnchorPoint: "r;lo" 372 -205 basechar 0
AnchorPoint: "r;o" 401 220 basechar 0
AnchorPoint: "r;x" 435 415 basechar 0
LayerCount: 3
Fore
SplineSet
-24 -73 m 0xf5
 -24 17 72 22 72 28 c 0
 72 34 60 40 60 72 c 0
 60 120 99 132 99 141 c 0xf5
 99 149 56 158 56 267 c 0
 56 327 109 427 205 427 c 0
 247 427 286 401 315 401 c 0
 342 401 370 423 387 423 c 0
 396 423 416 418 416 397 c 0
 416 386 404 366 379 366 c 0
 353 366 334 374 326 374 c 0
 320 374 314 369 314 365 c 0
 314 358 332 331 332 287 c 0xfa
 332 224 280 115 189 115 c 0
 143 115 128 128 112 128 c 0
 111 128 100 120 100 94 c 0
 100 10 355 34 355 -87 c 0
 355 -172 281 -195 181 -195 c 0
 78 -195 -24 -160 -24 -73 c 0xf5
31 -61 m 0
 31 -137 113 -170 179 -170 c 0
 221 -170 291 -161 291 -105 c 0
 291 -84 261 -63 115 -4 c 0
 90 6 82 14 82 14 c 1
 67 14 31 -21 31 -61 c 0
116 250 m 0xfa
 116 172 148 138 184 138 c 0
 227 138 274 190 274 282 c 0
 274 362 240 401 203 401 c 0
 161 401 116 349 116 250 c 0xfa
EndSplineSet
EndChar

StartChar: f
Encoding: 102 102 2
Width: 302
VWidth: 9
Flags: HMW
PickledData: "(dp1
Vspacing_anchors_slanted
p2
I00
s."
HStem: -180 42<-15.5 47.5112> 374 41<20.0215 115.998 185.369 296.678> 697 53<267.211 353.5>
VStem: -43 42<-133.746 -91.9673>
DStem2: 76 73 147 79 0.137568 0.990492<-137.491 251.671>
AnchorPoint: "l;bl" 0 20 basechar 0
AnchorPoint: "l;k;lo" -63 -205 basechar 0
AnchorPoint: "l;o" 5 220 basechar 0
AnchorPoint: "l;hi" 171 732 basechar 0
AnchorPoint: "l;t" 44 562 basechar 0
AnchorPoint: "l;x" 0 415 basechar 0
AnchorPoint: "r;bl" 239 20 basechar 0
AnchorPoint: "r;lo" 166 -205 basechar 0
AnchorPoint: "r;o" 263 220 basechar 0
AnchorPoint: "r;k;hi" 391 732 basechar 0
AnchorPoint: "r;k;t" 361 562 basechar 0
AnchorPoint: "r;x" 302 415 basechar 0
LayerCount: 3
Back
SplineSet
-43 -156 m 4
 -43 -148 -34 -88 -14 -88 c 4
 -9 -88 -2 -92 -1 -102 c 4
 3 -126 24 -138 29 -138 c 4
 61 -138 63 -20 76 73 c 4
 116 361 116 359 116 361 c 4
 116 369 113 374 106 374 c 4
 48 374 57 374 45 374 c 4
 23 374 20 380 20 392 c 4
 20 411 23 417 46 417 c 4
 46 417 96 415 118 415 c 4
 121 415 124 415 125 422 c 4
 135 491 153 587 211 670 c 4
 246 719 284 750 337 750 c 4
 370 750 384 739 384 713 c 4
 384 705 381 656 367 656 c 4
 346 656 329 697 284 697 c 4
 232 697 185 439 185 425 c 4
 185 417 189 415 197 415 c 4
 218 415 252 417 278 417 c 4
 293 417 297 410 297 400 c 4
 297 390 294 373 277 373 c 4
 238 373 220 375 193 375 c 4
 175 375 176 362 176 359 c 4
 168 303 146 -8 119 -73 c 4
 80 -167 14 -180 -7 -180 c 4
 -24 -180 -43 -172 -43 -156 c 4
EndSplineSet
Fore
SplineSet
-43 -156 m 0
 -43 -148 -34 -88 -14 -88 c 0
 -9 -88 -2 -92 -1 -102 c 0
 3 -126 24 -138 29 -138 c 0
 61 -138 63 -20 76 73 c 2
 76 73 116 359 116 361 c 0
 116 369 113 374 106 374 c 2
 45 374 l 2
 23 374 20 380 20 392 c 0
 20 411 23 417 46 417 c 2
 46 417 96 415 118 415 c 0
 121 415 124 415 125 422 c 0
 135 491 153 587 211 670 c 0
 246 719 284 750 337 750 c 0
 370 750 384 739 384 713 c 0
 384 705 381 656 367 656 c 0
 346 656 329 697 284 697 c 0
 232 697 185 439 185 425 c 0
 185 417 189 415 197 415 c 0
 218 415 252 417 278 417 c 0
 293 417 297 410 297 400 c 0
 297 390 294 373 277 373 c 0
 238 373 220 375 193 375 c 0
 175 375 177 366 175 350 c 0
 170 305 160 183 147 79 c 0
 139 12 129 -49 119 -73 c 0
 80 -167 14 -180 -7 -180 c 0
 -24 -180 -43 -172 -43 -156 c 0
EndSplineSet
EndChar

StartChar: e
Encoding: 101 101 3
Width: 402
VWidth: 0
Flags: HW
PickledData: "(dp1
Vspacing_anchors_slanted
p2
I00
s."
HStem: -12 60<151.928 279.3> 214 17<115.719 179.691> 406 30<206.55 288.592>
VStem: 32 68<98.6606 232.2> 302 69<302.52 397.23>
AnchorPoint: "top" 267 459 basechar 0
AnchorPoint: "l;bl" 10 20 basechar 0
AnchorPoint: "l;o" 0 220 basechar 0
AnchorPoint: "l;x" 49 415 basechar 0
AnchorPoint: "r;bl" 390 20 basechar 0
AnchorPoint: "r;o" 402 220 basechar 0
AnchorPoint: "r;x" 402 415 basechar 0
LayerCount: 3
Fore
SplineSet
32 147 m 0
 32 233 76 319 145 383 c 0
 182 418 228 436 284 436 c 0
 331 436 371 406 371 362 c 0
 371 290 293 249 274 241 c 0
 265 237 211 215 117 214 c 0
 103 214 100 199 100 173 c 0
 100 98 145 48 244 48 c 0
 301 48 341 91 352 91 c 0
 360 91 364 87 364 81 c 0
 364 58 277 -12 190 -12 c 0
 63 -12 32 58 32 147 c 0
114 251 m 0
 114 244 116 231 123 231 c 0
 220 231 302 296 302 359 c 0
 302 397 266 406 249 406 c 0
 224 406 193 386 167 359 c 0
 137 328 114 264 114 251 c 0
EndSplineSet
EndChar

StartChar: d
Encoding: 100 100 4
Width: 495
VWidth: 0
Flags: HMW
PickledData: "(dp1
Vspacing_anchors_slanted
p2
I00
s."
HStem: -8 69<322 412.332> -8 58<113.988 209.406> 408 21<220.008 305.094> 710 31<297.201 346.476> 711 46<319.337 375.75>
VStem: 17 70<78.3439 234.148>
AnchorPoint: "right" 542 708 basechar 0
AnchorPoint: "l;bl" 5 20 basechar 0
AnchorPoint: "l;o" 0 220 basechar 0
AnchorPoint: "l;hi" 112 732 basechar 0
AnchorPoint: "l;t" 73 562 basechar 0
AnchorPoint: "l;x" 44 415 basechar 0
AnchorPoint: "r;bl" 495 20 basechar 0
AnchorPoint: "r;o" 485 220 basechar 0
AnchorPoint: "r;hi" 495 732 basechar 0
AnchorPoint: "r;t" 475 562 basechar 0
AnchorPoint: "r;x" 465 415 basechar 0
LayerCount: 3
Back
SplineSet
17 125 m 4x64
 17 280 147 429 266 429 c 4
 292 429 312 416 340 416 c 4
 343 416 376 679 376 686 c 4
 376 701 362 711 347 711 c 4x6c
 336 711 313 710 312 710 c 4
 302 710 296 714 296 721 c 4
 296 738 331 734 359 741 c 4x34
 415 755 409 757 436 757 c 4
 445 757 452 749 452 740 c 4
 452 714 442 682 386 273 c 4
 375 197 365 134 365 104 c 4
 365 82 368 61 391 61 c 4
 435 61 458 123 474 123 c 4
 482 123 485 118 485 114 c 4
 485 93 422 -8 357 -8 c 4xac
 287 -8 310 104 296 104 c 4
 287 104 236 -8 137 -8 c 4
 52 -8 17 50 17 125 c 4x64
87 153 m 4
 87 95 111 50 172 50 c 4
 208 50 247 69 273 102 c 4
 313 152 328 328 328 368 c 4
 328 395 288 408 261 408 c 4
 169 408 87 258 87 153 c 4
EndSplineSet
Fore
SplineSet
17 125 m 0x64
 17 280 147 429 266 429 c 0
 292 429 312 416 340 416 c 0
 343 416 376 679 376 686 c 0
 376 701 362 711 347 711 c 0x6c
 336 711 313 710 312 710 c 0
 302 710 296 714 296 721 c 0
 296 738 331 734 359 741 c 0x34
 415 755 409 757 436 757 c 0
 445 757 452 749 452 740 c 0
 452 714 442 682 386 273 c 0
 375 197 365 134 365 104 c 0
 365 82 368 61 391 61 c 0
 435 61 458 123 474 123 c 0
 482 123 485 118 485 114 c 0
 485 93 422 -8 357 -8 c 0xac
 287 -8 310 104 296 104 c 0
 287 104 236 -8 137 -8 c 0
 52 -8 17 50 17 125 c 0x64
87 153 m 0
 87 95 111 50 172 50 c 0
 208 50 247 69 273 102 c 0
 313 152 328 328 328 368 c 0
 328 395 288 408 261 408 c 0
 169 408 87 258 87 153 c 0
EndSplineSet
EndChar

StartChar: c
Encoding: 99 99 5
Width: 418
VWidth: 0
Flags: HW
PickledData: "(dp1
Vspacing_anchors_slanted
p2
I00
s."
HStem: -12 58<147.559 277.38> 397 39<201.729 291>
VStem: 32 68<97.8656 252.922>
AnchorPoint: "r;x" 418 415 basechar 0
AnchorPoint: "r;o" 408 220 basechar 0
AnchorPoint: "r;bl" 406 20 basechar 0
AnchorPoint: "l;x" 49 415 basechar 0
AnchorPoint: "l;o" 0 220 basechar 0
AnchorPoint: "l;bl" 10 20 basechar 0
AnchorPoint: "cedilla" 194 -79 basechar 0
AnchorPoint: "top" 251 459 basechar 0
LayerCount: 3
Fore
SplineSet
32 149 m 0
 32 286 144 436 286 436 c 0
 296 436 386 421 386 364 c 0
 386 344 371 325 353 325 c 0
 310 325 301 397 231 397 c 0
 222 397 193 386 166 362 c 0
 154 351 100 290 100 199 c 0
 100 97 140 46 218 46 c 0
 300 46 334 100 352 100 c 0
 360 100 365 93 365 87 c 0
 365 73 294 -12 183 -12 c 0
 110 -12 32 15 32 149 c 0
EndSplineSet
EndChar

StartChar: b
Encoding: 98 98 6
Width: 471
VWidth: -1
Flags: HW
PickledData: "(dp1
Vspacing_anchors_slanted
p2
I00
s."
HStem: -13 28<134.758 234.372> 376 53<240.381 367.937> 709 37<57.4219 140.422> 737 20G<190 198.5>
VStem: 44 66<31.0216 217.379> 369 70<195.793 337.345>
AnchorPoint: "l;bl" 0 20 basechar 0
AnchorPoint: "l;o" 15 220 basechar 0
AnchorPoint: "l;hi" 24 732 basechar 0
AnchorPoint: "l;t" 24 562 basechar 0
AnchorPoint: "l;x" 24 415 basechar 0
AnchorPoint: "r;bl" 432 20 basechar 0
AnchorPoint: "r;o" 471 220 basechar 0
AnchorPoint: "r;hi" 383 732 basechar 0
AnchorPoint: "r;t" 383 562 basechar 0
AnchorPoint: "r;x" 461 415 basechar 0
LayerCount: 3
Fore
SplineSet
44 71 m 0xdc
 44 135 67 239 81 320 c 0
 99 424 111 521 126 595 c 0
 135 638 141 673 141 697 c 0
 141 702 136 709 116 709 c 0
 101 709 90 707 75 707 c 0
 64 707 56 707 56 721 c 0
 56 741 84 740 130 746 c 0xec
 169 751 187 757 193 757 c 0
 204 757 212 750 212 739 c 0
 212 721 148 423 148 351 c 0
 148 344 151 336 153 336 c 0
 167 336 214 429 329 429 c 0
 404 429 439 367 439 302 c 0
 439 166 321 -13 166 -13 c 0
 107 -13 44 13 44 71 c 0xdc
110 83 m 0
 110 49 125 15 187 15 c 0
 277 15 369 159 369 274 c 0
 369 330 326 376 271 376 c 0
 247 376 182 366 150 279 c 0
 121 200 110 93 110 83 c 0
EndSplineSet
EndChar

StartChar: a
Encoding: 97 97 7
Width: 518
VWidth: 0
Flags: HW
PickledData: "(dp1
Vspacing_anchors_slanted
p2
I00
s."
HStem: -15 55<125.715 211.398> -7 71<352 426.282> 400 25<243.468 344.378>
VStem: 32 70<63.5955 210.582>
AnchorPoint: "top" 289 459 basechar 0
AnchorPoint: "l;bl" 0 20 basechar 0
AnchorPoint: "l;o" 0 220 basechar 0
AnchorPoint: "l;x" 49 415 basechar 0
AnchorPoint: "r;bl" 518 20 basechar 0
AnchorPoint: "r;o" 513 220 basechar 0
AnchorPoint: "r;x" 508 415 basechar 0
LayerCount: 3
Fore
SplineSet
32 114 m 0xb0
 32 170 57 227 88 277 c 0
 124 334 170 382 223 407 c 0
 250 420 270 425 296 425 c 0
 327 425 348 414 381 414 c 0
 401 414 413 463 433 463 c 0
 439 463 444 459 444 448 c 0
 444 432 431 408 424 379 c 0
 415 342 409 296 401 251 c 0
 393 207 383 161 383 123 c 0
 383 97 398 64 417 64 c 0
 450 64 471 129 490 129 c 0
 498 129 499 122 499 118 c 0
 499 108 494 93 481 75 c 0
 456 39 411 -7 384 -7 c 0x70
 320 -7 329 105 322 105 c 0
 317 105 234 -15 139 -15 c 0
 44 -15 32 49 32 114 c 0xb0
102 120 m 0
 102 70 138 40 180 40 c 0xb0
 252 40 299 112 308 130 c 0
 332 178 359 362 359 365 c 0
 359 393 314 400 293 400 c 0
 252 400 199 370 169 319 c 0
 140 271 116 226 107 174 c 0
 104 156 102 138 102 120 c 0
EndSplineSet
EndChar

StartChar: i
Encoding: 105 105 9
Width: 250
VWidth: 0
Flags: HW
PickledData: "(dp1
Vspacing_anchors_slanted
p2
I00
s."
HStem: -10 76<80 161.056> 384 26<20.0517 102.076> 399 20G<138.5 170.5> 540 106<145.222 198.212>
VStem: 58 66<66.4931 218.009> 103 78<320.046 412.47> 126 89<556.194 626.247>
AnchorPoint: "r;k;t" 229 562 mark 0
AnchorPoint: "l;k;t" 92 562 mark 0
AnchorPoint: "l;bl" 0 20 basechar 0
AnchorPoint: "l;o" 5 220 basechar 0
AnchorPoint: "l;x" 0 415 basechar 0
AnchorPoint: "r;bl" 250 20 basechar 0
AnchorPoint: "r;o" 250 220 basechar 0
AnchorPoint: "r;x" 250 415 basechar 0
LayerCount: 3
Fore
SplineSet
20 396 m 0xd4
 20 409 32 410 43 410 c 2
 53 410 l 2xd4
 93 410 110 419 167 419 c 0
 174 419 181 415 181 408 c 0xb4
 181 382 162 343 154 292 c 0
 124 103 124 105 124 93 c 0
 124 79 134 66 144 66 c 0
 178 66 192 118 206 118 c 0
 212 118 216 114 216 107 c 0
 216 95 198 61 187 49 c 0
 187 49 132 -10 95 -10 c 0
 65 -10 58 30 58 73 c 0xb8
 58 149 103 305 103 362 c 0
 103 379 97 383 79 383 c 0
 58 383 42 384 34 384 c 0
 28 384 20 386 20 396 c 0xd4
126 593 m 0x92
 126 602 158 646 176 646 c 0
 196 646 215 611 215 593 c 0
 215 573 180 540 171 540 c 0
 153 540 126 583 126 593 c 0x92
EndSplineSet
AlternateSubs2: "'aalt' Access All Alternates in Latin lookup 0 subtable" i.TRK
Substitution2: "turkish subtable" i.TRK
EndChar

StartChar: j
Encoding: 106 106 10
Width: 242
VWidth: 6
Flags: HW
PickledData: "(dp1
Vspacing_anchors_slanted
p2
I00
s."
HStem: -200 43<-42.5 23.8221> 383 28<20.136 93.122> 401 20G<131.5 156> 540 104<125.908 182.004>
VStem: 96 72<258.41 411.628> 109 88<553.91 627.25>
AnchorPoint: "l;k;t" 74 562 mark 0
AnchorPoint: "r;k;t" 212 562 mark 0
AnchorPoint: "r;x" 242 415 basechar 0
AnchorPoint: "r;o" 220 220 basechar 0
AnchorPoint: "r;bl" 193 20 basechar 0
AnchorPoint: "l;bl" 0 20 basechar 0
AnchorPoint: "l;k;lo" -83 -205 basechar 0
AnchorPoint: "l;o" 0 220 basechar 0
AnchorPoint: "l;x" 0 415 basechar 0
AnchorPoint: "r;lo" 145 -205 basechar 0
LayerCount: 3
Fore
SplineSet
-73 -131 m 0xb8
 -73 -123 -70 -115 -60 -115 c 0
 -38 -115 -23 -157 4 -157 c 0
 25 -157 34 -121 56 54 c 0
 73 188 96 350 96 359 c 0
 96 379 76 383 64 383 c 0
 60 383 47 383 38 383 c 0
 24 383 20 389 20 395 c 0
 20 403 25 411 40 411 c 0xd8
 48 411 59 412 71 412 c 0
 97 412 118 421 145 421 c 0
 167 421 168 412 168 405 c 0
 168 361 154 318 146 258 c 0
 104 -60 115 -99 46 -164 c 0
 28 -181 14 -200 -30 -200 c 0
 -55 -200 -69 -196 -70 -172 c 0
 -71 -145 -73 -139 -73 -131 c 0xb8
109 591 m 0x94
 109 607 139 644 160 644 c 0
 175 644 197 616 197 594 c 0
 197 575 168 540 155 540 c 0
 130 540 109 584 109 591 c 0x94
EndSplineSet
EndChar

StartChar: l
Encoding: 108 108 11
Width: 261
VWidth: 0
Flags: HMW
PickledData: "(dp1
Vspacing_anchors_slanted
p2
I00
s."
HStem: -8 67<85 148.607> 704 28<47.0066 127.479> 727 20G<170 191>
VStem: 46 67<29.0309 243.054>
DStem2: 46 86 113 98 0.138875 0.99031<-12.4606 21.1883 392.452 621.572>
AnchorPoint: "r;s;dot" 382 332 basechar 0
AnchorPoint: "r;x" 251 415 basechar 0
AnchorPoint: "r;t" 251 562 basechar 0
AnchorPoint: "r;o" 256 220 basechar 0
AnchorPoint: "r;bl" 261 20 basechar 0
AnchorPoint: "l;x" 10 415 basechar 0
AnchorPoint: "l;t" 20 562 basechar 0
AnchorPoint: "l;o" 5 220 basechar 0
AnchorPoint: "l;bl" 0 20 basechar 0
AnchorPoint: "right" 279 708 basechar 0
AnchorPoint: "top" 153 757 basechar 0
AnchorPoint: "cedilla" 98 -79 basechar 0
AnchorPoint: "l;hi" 37 732 basechar 0
AnchorPoint: "r;hi" 235 732 basechar 0
LayerCount: 3
Fore
SplineSet
46 86 m 0xb0
 46 143 72 261 74 277 c 0
 83 340 88 411 98 475 c 0
 115 583 130 673 130 685 c 0
 130 697 120 705 105 705 c 0
 90 705 88 704 76 704 c 0
 56 704 47 707 47 718 c 0
 47 723 49 731 62 732 c 0xd0
 135 737 157 747 183 747 c 0
 199 747 204 741 204 731 c 0
 204 717 197 704 194 685 c 0
 157 491 174 528 142 313 c 0
 125 195 113 132 113 98 c 0
 113 64 116 59 129 59 c 0
 184 59 194 130 220 130 c 0
 227 130 232 124 232 114 c 0
 232 104 206 70 182 42 c 0
 156 12 114 -8 95 -8 c 0
 75 -8 46 -8 46 86 c 0xb0
EndSplineSet
EndChar

StartChar: k
Encoding: 107 107 12
Width: 452
VWidth: 0
Flags: HMW
PickledData: "(dp1
Vspacing_anchors_slanted
p2
I00
s."
HStem: -3 70<329.356 378.076> 413 20G<333.5 367> 705 29<45.026 123.707> 729 20G<169 185.5>
DStem2: 76 339 184 630 0.141741 0.989904<72.5012 365.546>
AnchorPoint: "l;x" 20 415 basechar 0
AnchorPoint: "l;t" 29 562 basechar 0
AnchorPoint: "l;hi" 35 732 basechar 0
AnchorPoint: "l;o" 15 220 basechar 0
AnchorPoint: "l;bl" 0 20 basechar 0
AnchorPoint: "cedilla" 184 -79 basechar 0
AnchorPoint: "r;bl" 452 20 basechar 0
AnchorPoint: "r;o" 442 220 basechar 0
AnchorPoint: "r;hi" 364 732 basechar 0
AnchorPoint: "r;t" 393 562 basechar 0
AnchorPoint: "r;x" 403 415 basechar 0
LayerCount: 3
Fore
SplineSet
335 -3 m 0xe0
 278 -3 211 218 179 218 c 0
 177 218 166 211 155 205 c 0
 112 181 118 190 114 160 c 2
 96 29 l 2
 93 3 77 -1 62 -1 c 0
 51 -1 29 3 29 23 c 0
 29 50 48 151 56 206 c 2
 76 339 l 2
 104 528 104 556 118 639 c 0
 123 667 126 685 126 686 c 0
 126 695 119 705 101 705 c 0
 80 705 68 707 60 707 c 0
 54 707 45 709 45 719 c 0
 45 724 47 734 60 734 c 0xe0
 142 737 156 749 182 749 c 0xd0
 189 749 200 745 200 734 c 0
 200 730 196 706 193 688 c 2
 184 630 l 2
 157 470 151 416 144 363 c 2
 135 294 l 2
 134 285 126 255 126 234 c 0
 126 220 126 215 135 215 c 0
 145 215 257 293 290 347 c 0
 312 384 310 433 357 433 c 0
 377 433 389 416 389 396 c 0
 389 337 235 260 235 254 c 0
 235 249 261 207 285 164 c 0
 312 116 336 67 353 67 c 0
 388 67 410 123 423 123 c 0
 430 123 432 114 432 105 c 0
 432 68 372 -3 335 -3 c 0xe0
EndSplineSet
EndChar

StartChar: o
Encoding: 111 111 13
Width: 446
VWidth: 0
Flags: HW
PickledData: "(dp1
Vspacing_anchors_slanted
p2
I00
s."
HStem: -10 30<154.939 244.124> 405 30<207.036 295.425>
VStem: 32 77<69.0487 280> 340 74<147.684 358.978>
AnchorPoint: "top" 262 459 basechar 0
AnchorPoint: "l;bl" 10 20 basechar 0
AnchorPoint: "l;o" 0 220 basechar 0
AnchorPoint: "l;x" 49 415 basechar 0
AnchorPoint: "r;bl" 417 20 basechar 0
AnchorPoint: "r;o" 446 220 basechar 0
AnchorPoint: "r;x" 426 415 basechar 0
LayerCount: 3
Fore
SplineSet
32 169 m 0
 32 293 116 435 268 435 c 0
 368 435 414 352 414 258 c 0
 414 133 332 -10 185 -10 c 0
 103 -10 32 47 32 169 c 0
196 20 m 0
 303 20 340 187 340 270 c 0
 340 364 300 405 254 405 c 0
 206 405 152 361 129 280 c 0
 119 245 109 209 109 168 c 0
 109 67 149 20 196 20 c 0
EndSplineSet
EndChar

StartChar: m
Encoding: 109 109 14
Width: 762
VWidth: 0
Flags: HW
PickledData: "(dp1
Vspacing_anchors_slanted
p2
I00
s."
HStem: -3 65<615.028 669.006> 356 77<78.7032 148.673> 385 48<273.169 375.161 506.427 616.941>
VStem: 78 73<-2.45578 149.767> 329 69<-3.3078 164.889> 573 66<42.5 308.34> 595 64<88.738 368.604>
AnchorPoint: "l;x" 0 415 basechar 0
AnchorPoint: "l;o" 5 220 basechar 0
AnchorPoint: "l;bl" 10 20 basechar 0
AnchorPoint: "r;bl" 762 20 basechar 0
AnchorPoint: "r;o" 757 220 basechar 0
AnchorPoint: "r;x" 752 415 basechar 0
LayerCount: 3
Fore
SplineSet
24 322 m 0xda
 24 352 82 433 120 433 c 0xda
 178 433 161 330 174 330 c 0
 181 330 204 388 297 421 c 0
 322 430 341 432 355 432 c 0
 404 432 414 389 414 358 c 0
 414 338 414 341 414 337 c 0
 414 333 415 329 416 329 c 0
 423 329 429 349 453 371 c 0
 483 400 531 433 577 433 c 0
 656 433 659 340 659 327 c 0xba
 659 282 639 130 639 97 c 0xbc
 639 71 648 62 659 62 c 0xba
 677 62 702 85 702 85 c 0
 714 100 717 113 732 113 c 0
 739 113 742 107 742 101 c 0
 742 62 654 -3 610 -3 c 0
 590 -3 573 25 573 60 c 0xbc
 573 79 595 247 595 308 c 0
 595 361 562 385 541 385 c 0xba
 474 385 430 279 428 271 c 0
 413 218 405 91 398 21 c 0
 396 -3 370 -6 357 -6 c 0
 337 -6 329 9 329 26 c 0
 329 51 365 218 365 313 c 0
 365 325 359 384 294 384 c 0
 271 384 206 365 177 218 c 0
 162 140 157 50 151 17 c 0
 149 4 131 -5 113 -5 c 0
 95 -5 78 0 78 29 c 0
 78 71 123 230 123 307 c 0
 123 346 107 356 97 356 c 0
 66 356 58 298 36 298 c 0
 25 298 24 309 24 322 c 0xda
EndSplineSet
EndChar

StartChar: n
Encoding: 110 110 15
Width: 526
VWidth: 0
Flags: HW
PickledData: "(dp1
Vspacing_anchors_slanted
p2
I00
s."
HStem: -6 72<364 430.263> 358 77<79.7938 151> 386 51<271.352 375>
VStem: 76 72<-1.10812 147.861> 337 70<28.2666 301.159> 358 66<87.769 366.031>
AnchorPoint: "cedilla" 240 -79 basechar 0
AnchorPoint: "top" 296 459 basechar 0
AnchorPoint: "l;bl" 10 20 basechar 0
AnchorPoint: "l;o" 5 220 basechar 0
AnchorPoint: "l;x" 0 415 basechar 0
AnchorPoint: "r;bl" 526 20 basechar 0
AnchorPoint: "r;o" 521 220 basechar 0
AnchorPoint: "r;x" 516 415 basechar 0
LayerCount: 3
Fore
SplineSet
24 321 m 0xd4
 24 360 84 435 122 435 c 0xd4
 180 435 159 330 168 330 c 0
 174 330 181 352 218 380 c 0
 245 401 298 437 340 437 c 0
 410 437 424 375 424 312 c 0xb4
 424 242 407 136 407 102 c 0
 407 74 415 66 426 66 c 0
 443 66 466 88 466 88 c 0
 478 103 482 115 497 115 c 0
 504 115 506 109 506 103 c 0
 506 64 418 -6 374 -6 c 0
 354 -6 337 22 337 57 c 0xb8
 337 133 358 267 358 304 c 0
 358 320 353 386 288 386 c 0xb4
 265 386 246 375 223 342 c 0
 180 281 192 290 168 161 c 0
 143 26 150 38 148 24 c 0
 145 2 137 -2 111 -2 c 0
 84 -2 76 0 76 29 c 0
 76 71 120 226 120 303 c 0
 120 338 107 358 97 358 c 0
 66 358 55 302 33 302 c 0
 26 302 24 310 24 321 c 0xd4
EndSplineSet
EndChar

StartChar: p
Encoding: 112 112 16
Width: 488
VWidth: 8
Flags: HMW
PickledData: "(dp1
Vspacing_anchors_slanted
p2
I00
s."
HStem: -196 21G<16.5 35 166 187> 0 27<147.466 247.878> 359 29<49.8009 94.2943> 403 25<191.119 287.602>
VStem: 383 73<178.587 337.887>
DStem2: 53 -103 124 -56 0.135579 0.990767<-44.0253 -17.4896 56.1921 118.255 149.826 164.509 438.472 483.726>
AnchorPoint: "l;bl" 0 20 basechar 0
AnchorPoint: "l;k;lo" -5 -208 basechar 0
AnchorPoint: "l;o" 20 220 basechar 0
AnchorPoint: "l;t" 68 562 basechar 0
AnchorPoint: "l;x" 29 415 basechar 0
AnchorPoint: "r;bl" 439 20 basechar 0
AnchorPoint: "r;lo" 390 -205 basechar 0
AnchorPoint: "r;o" 488 220 basechar 0
AnchorPoint: "r;t" 400 562 basechar 0
AnchorPoint: "r;x" 478 415 basechar 0
LayerCount: 3
Fore
SplineSet
3 -183 m 0
 3 -157 40 -163 47 -142 c 0
 49 -136 50 -127 53 -103 c 0
 114 372 118 369 118 372 c 0
 118 375 117 377 113 377 c 0
 102 377 74 359 62 359 c 0
 52 359 49 365 49 371 c 2
 49 375 l 2
 49 380 50 385 56 388 c 0
 136 421 124 399 133 450 c 0
 147 525 142 545 173 561 c 0
 181 565 191 568 202 568 c 0
 212 568 216 561 216 551 c 0
 216 521 189 460 189 432 c 2
 189 428 l 2
 189 425 190 423 194 423 c 0
 203 423 225 428 279 428 c 0
 371 428 456 400 456 294 c 0
 456 232 447 196 417 145 c 0
 395 107 384 81 330 42 c 0
 288 12 247 0 198 0 c 0
 183 0 158 4 144 4 c 0
 129 4 132 3 124 -56 c 0
 120 -86 114 -119 114 -129 c 0
 114 -179 197 -160 197 -183 c 0
 197 -192 191 -196 183 -196 c 0
 149 -196 111 -195 83 -195 c 0
 61 -195 41 -196 29 -196 c 2
 20 -196 l 2
 13 -196 3 -192 3 -183 c 0
141 51 m 0
 141 45 152 27 198 27 c 0
 298 27 383 167 383 257 c 0
 383 394 251 403 215 403 c 0
 199 403 197 400 191 400 c 0
 184 400 180 375 174 323 c 2
 161 212 l 2
 155 167 141 80 141 51 c 0
EndSplineSet
EndChar

StartChar: q
Encoding: 113 113 17
Width: 507
VWidth: 3
Flags: HMW
PickledData: "(dp1
Vspacing_anchors_slanted
p2
I00
s."
HStem: -200 22G<235 260 389 414.5> -10 45<96 218.057> 400 27<243.19 341.295>
VStem: 22 68<67.5149 204.804>
DStem2: 368 346 406 189 0.104528 0.994522<-194.785 32.583>
AnchorPoint: "l;bl" 0 20 basechar 0
AnchorPoint: "l;lo" 78 -205 basechar 0
AnchorPoint: "l;o" 0 220 basechar 0
AnchorPoint: "l;x" 49 415 basechar 0
AnchorPoint: "r;bl" 478 20 basechar 0
AnchorPoint: "r;lo" 455 -212 basechar 0
AnchorPoint: "r;o" 493 220 basechar 0
AnchorPoint: "r;x" 507 415 basechar 0
LayerCount: 3
Back
SplineSet
22 116 m 4
 22 190 82 286 135 345 c 4
 194 409 260 427 309 427 c 4
 366 427 370 409 384 409 c 4
 407 409 425 487 446 487 c 4
 454 487 458 480 458 475 c 4
 458 454 434 412 423 324 c 4
 417 273 425 314 406 189 c 6
 383 30 l 5
 370 -53 360 -118 360 -145 c 4
 360 -185 433 -155 433 -189 c 4
 433 -198 420 -199 409 -199 c 4
 369 -199 341 -195 321 -195 c 4
 273 -195 272 -200 248 -200 c 4
 222 -200 217 -191 217 -185 c 4
 217 -160 293 -192 303 -107 c 4
 316 -6 335 103 335 116 c 4
 335 119 334 122 333 122 c 4
 320 122 281 -10 116 -10 c 4
 76 -10 22 27 22 116 c 4
90 129 m 4
 90 80 124 35 176 35 c 4
 238 35 317 103 346 203 c 4
 358 244 368 332 368 346 c 4
 368 372 339 400 294 400 c 4
 184 400 90 220 90 129 c 4
EndSplineSet
Fore
SplineSet
22 116 m 0
 22 190 82 286 135 345 c 0
 194 409 260 427 309 427 c 0
 366 427 370 409 384 409 c 0
 407 409 425 487 446 487 c 0
 454 487 458 480 458 475 c 0
 458 454 434 412 423 324 c 0
 417 273 425 314 406 189 c 0
 367 -78 360 -112 360 -145 c 0
 360 -185 433 -155 433 -189 c 0
 433 -198 420 -199 409 -199 c 0
 369 -199 341 -195 321 -195 c 0
 273 -195 272 -200 248 -200 c 0
 222 -200 217 -191 217 -185 c 0
 217 -160 293 -192 303 -107 c 0
 316 -6 335 103 335 116 c 0
 335 119 334 122 333 122 c 0
 320 122 281 -10 116 -10 c 0
 76 -10 22 27 22 116 c 0
90 129 m 0
 90 80 124 35 176 35 c 0
 238 35 317 103 346 203 c 0
 358 244 368 332 368 346 c 0
 368 372 339 400 294 400 c 0
 184 400 90 220 90 129 c 0
EndSplineSet
EndChar

StartChar: r
Encoding: 114 114 18
Width: 352
VWidth: 0
Flags: HMW
PickledData: "(dp1
Vspacing_anchors_slanted
p2
I00
s."
HStem: -4 21G<109 137> 352 82<64.6648 119.858> 372 64<246.367 322.568>
VStem: 15 23<279.021 311.445>
AnchorPoint: "cedilla" 113 -79 basechar 0
AnchorPoint: "top" 200 459 basechar 0
AnchorPoint: "l;bl" 24 20 basechar 0
AnchorPoint: "l;o" 5 220 basechar 0
AnchorPoint: "l;x" 0 415 basechar 0
AnchorPoint: "r;bl" 283 20 basechar 0
AnchorPoint: "r;o" 303 220 basechar 0
AnchorPoint: "r;x" 352 415 basechar 0
LayerCount: 3
Fore
SplineSet
15 296 m 0xd0
 15 410 100 434 109 434 c 0xd0
 130 434 140 415 146 399 c 0
 171 334 172 333 174 333 c 0
 181 333 231 436 305 436 c 0
 331 436 342 419 342 405 c 0
 342 392 334 379 331 368 c 0
 329 361 327 330 309 330 c 0
 287 330 291 372 255 372 c 0xb0
 210 372 185 241 180 199 c 2
 175 166 l 2
 153 -4 155 -4 119 -4 c 2
 114 -4 l 2
 104 -4 84 -2 84 22 c 0
 84 62 127 209 127 284 c 0
 127 334 111 352 93 352 c 0
 52 352 44 292 38 285 c 0
 35 282 32 279 27 279 c 0
 23 279 15 282 15 296 c 0xd0
EndSplineSet
EndChar

StartChar: t
Encoding: 116 116 19
Width: 299
VWidth: 0
Flags: HMW
PickledData: "(dp1
Vspacing_anchors_slanted
p2
I00
s."
HStem: -12 64<96.5 181.253> 374 42<161.792 279.939>
VStem: 46 65<58.1809 248.737>
AnchorPoint: "right" 256 625 basechar 0
AnchorPoint: "cedilla" 104 -79 basechar 0
AnchorPoint: "l;bl" 0 20 basechar 0
AnchorPoint: "l;o" 0 220 basechar 0
AnchorPoint: "l;x" 0 415 basechar 0
AnchorPoint: "r;bl" 294 20 basechar 0
AnchorPoint: "r;o" 285 220 basechar 0
AnchorPoint: "r;x" 299 415 basechar 0
LayerCount: 3
Fore
SplineSet
29 390 m 0
 29 410 67 409 111 455 c 0
 151 497 153 510 169 510 c 0
 174 510 179 507 179 498 c 0
 179 485 161 438 161 423 c 0
 161 417 163 416 196 416 c 0
 235 416 243 417 254 417 c 0
 275 417 280 410 280 398 c 0
 280 375 274 369 256 369 c 0
 240 369 197 374 175 374 c 0
 146 374 149 356 143 315 c 0
 134 253 111 123 111 107 c 0
 111 54 148 52 152 52 c 0
 207 52 230 96 246 96 c 0
 249 96 257 96 257 82 c 0
 257 56 172 -12 110 -12 c 0
 83 -12 46 4 46 82 c 0
 46 174 88 336 88 363 c 0
 88 384 29 362 29 390 c 0
EndSplineSet
Layer: 2
SplineSet
29 390 m 4
 29 410 67 409 111 455 c 4
 151 497 153 510 169 510 c 4
 174 510 179 507 179 498 c 4
 179 485 161 438 161 423 c 4
 161 417 163 416 196 416 c 4
 235 416 243 417 254 417 c 4
 275 417 280 410 280 398 c 4
 280 375 274 369 256 369 c 4
 240 369 197 374 175 374 c 4
 146 374 149 356 143 315 c 4
 134 253 111 119 111 103 c 4
 111 50 148 48 152 48 c 4
 207 48 230 92 246 92 c 4
 249 92 257 92 257 78 c 4
 257 52 172 -18 110 -18 c 4
 83 -18 46 0 46 78 c 4
 46 170 88 336 88 363 c 4
 88 384 29 362 29 390 c 4
EndSplineSet
EndChar

StartChar: s
Encoding: 115 115 20
Width: 333
VWidth: 0
Flags: HW
PickledData: "(dp1
Vspacing_anchors_slanted
p2
I00
s."
HStem: -12 33<103.354 197.134> 407 30<147.437 216.235>
VStem: 75 59<307.695 387.477> 222 60<52.3659 145.102>
AnchorPoint: "cedilla" 133 -79 basechar 0
AnchorPoint: "top" 200 459 basechar 0
AnchorPoint: "l;bl" 0 20 basechar 0
AnchorPoint: "l;o" 15 220 basechar 0
AnchorPoint: "l;x" 34 415 basechar 0
AnchorPoint: "r;bl" 323 20 basechar 0
AnchorPoint: "r;o" 323 220 basechar 0
AnchorPoint: "r;x" 333 415 basechar 0
LayerCount: 3
Fore
SplineSet
15 54 m 0
 15 85 35 90 47 90 c 0
 98 90 81 21 142 21 c 0
 215 21 222 73 222 85 c 0
 222 132 189 161 153 197 c 0
 113 238 75 264 75 324 c 0
 75 391 133 437 211 437 c 0
 265 437 304 424 304 385 c 0
 304 354 271 351 266 351 c 0
 230 351 226 407 187 407 c 0
 149 407 134 384 134 354 c 0
 134 316 189 275 213 249 c 0
 244 214 282 186 282 119 c 0
 282 83 254 -12 126 -12 c 0
 87 -12 15 1 15 54 c 0
EndSplineSet
AlternateSubs2: "'aalt' Access All Alternates lookup 0 subtable" longs
AlternateSubs2: "'aalt' Access All Alternates in Latin lookup 0 subtable" longs
Substitution2: "'hist' Historical Forms in Latin lookup 10 subtable" longs
EndChar

StartChar: u
Encoding: 117 117 21
Width: 525
VWidth: 0
Flags: HW
PickledData: "(dp1
Vspacing_anchors_slanted
p2
I00
s."
HStem: -11 63<103.188 163.827> 353 75<78.9648 151>
VStem: 65 69<38.0037 206.754> 110 61<213.583 361> 319 64<29.5 203.763> 382 62<339.179 428.784>
AnchorPoint: "top" 269 459 basechar 0
AnchorPoint: "l;bl" 10 20 basechar 0
AnchorPoint: "l;o" 0 220 basechar 0
AnchorPoint: "l;x" 0 415 basechar 0
AnchorPoint: "r;bl" 525 20 basechar 0
AnchorPoint: "r;o" 520 220 basechar 0
AnchorPoint: "r;x" 515 415 basechar 0
LayerCount: 3
Fore
SplineSet
20 294 m 0xd0
 20 336 66 428 133 428 c 0
 169 428 171 367 171 355 c 0xd0
 171 267 134 155 134 79 c 0
 134 62 145 52 152 52 c 0
 184 52 219 99 266 155 c 0
 331 234 359 326 382 414 c 0
 385 427 401 430 411 430 c 0
 427 430 444 423 444 408 c 0xe4
 444 381 383 139 383 88 c 0
 383 66 396 64 405 64 c 0
 466 64 470 138 491 138 c 0
 504 138 505 126 505 117 c 0
 505 93 443 -9 349 -9 c 0
 327 -9 319 14 319 45 c 0
 319 109 337 188 337 197 c 0
 337 204 335 208 332 208 c 0
 326 208 321 186 291 144 c 0
 246 80 172 -11 99 -11 c 0
 72 -11 65 24 65 53 c 0xe8
 65 161 110 271 110 332 c 0
 110 343 103 353 90 353 c 0
 81 353 59 327 45 295 c 0
 41 285 35 281 30 281 c 0
 24 281 20 287 20 294 c 0xd0
EndSplineSet
EndChar

StartChar: v
Encoding: 118 118 22
Width: 427
VWidth: -4
Flags: HW
PickledData: "(dp1
Vspacing_anchors_slanted
p2
I00
s."
HStem: -13 67<134 214.67> 351 79<85.4055 149>
VStem: 10 26<196.509 290.428> 98 60<65.3608 150.624 176.008 331.956> 114 64<179.307 350.911> 360 47<253.656 412.478>
AnchorPoint: "l;bl" 29 20 basechar 0
AnchorPoint: "l;o" 0 220 basechar 0
AnchorPoint: "l;x" 0 415 basechar 0
AnchorPoint: "r;bl" 378 20 basechar 0
AnchorPoint: "r;o" 427 220 basechar 0
AnchorPoint: "r;x" 427 415 basechar 0
LayerCount: 3
Fore
SplineSet
10 253 m 0xf4
 10 357 92 430 133 430 c 0
 165 430 178 388 178 349 c 0xec
 178 289 158 221 158 115 c 0
 158 84 180 54 208 54 c 0
 280 54 360 207 360 322 c 0
 360 356 339 374 339 397 c 0
 339 420 367 431 375 431 c 0
 388 431 407 423 407 377 c 0
 407 334 383 221 353 164 c 0
 332 123 290 57 238 23 c 0
 215 8 177 -13 163 -13 c 0
 105 -13 98 72 98 142 c 0
 98 162 10 124 10 253 c 0xf4
36 242 m 0
 36 183 77 176 81 176 c 0
 98 176 97 187 100 208 c 0
 100 208 114 312 114 333 c 0
 114 339 112 351 100 351 c 0
 84 351 36 289 36 242 c 0
EndSplineSet
EndChar

StartChar: w
Encoding: 119 119 23
Width: 675
VWidth: 0
Flags: HW
PickledData: "(dp1
Vspacing_anchors_slanted
p2
I00
s."
HStem: -11 67<135.5 218.031 391.5 463.298> 342 87<84.6936 138.499>
VStem: 10 33<201.036 301.031> 100 61<64.1953 153.297> 114 59<213.645 365> 347 56<73.1291 181.996> 367 63<270.584 425.804> 588 67<291.098 424.145>
AnchorPoint: "r;x" 675 415 basechar 0
AnchorPoint: "r;o" 675 220 basechar 0
AnchorPoint: "r;bl" 626 20 basechar 0
AnchorPoint: "l;x" 0 415 basechar 0
AnchorPoint: "l;o" 0 220 basechar 0
AnchorPoint: "l;bl" 29 20 basechar 0
AnchorPoint: "top" 396 459 basechar 0
LayerCount: 3
Fore
SplineSet
10 248 m 0xf5
 10 348 90 429 131 429 c 0
 163 429 173 380 173 350 c 0xe9
 173 268 161 217 161 117 c 0
 161 86 181 56 200 56 c 0
 250 56 303 149 324 198 c 0
 338 232 354 289 367 381 c 0
 372 415 373 427 401 427 c 0
 424 427 430 417 430 402 c 0xf3
 430 361 403 290 403 198 c 0
 403 168 406 137 413 103 c 0
 420 73 429 53 455 53 c 0
 531 53 607 229 607 287 c 0
 607 376 588 364 588 396 c 0
 588 412 610 429 626 429 c 0
 639 429 655 423 655 384 c 0
 655 332 630 223 600 166 c 0
 534 40 446 -10 406 -10 c 0
 377 -10 349 24 347 163 c 0
 347 177 345 182 344 182 c 0
 339 182 257 -11 161 -11 c 0
 110 -11 100 74 100 144 c 0
 100 161 10 137 10 248 c 0xf5
43 243 m 0
 43 229 44 217 47 209 c 0
 57 187 73 182 86 182 c 0
 102 182 104 194 109 242 c 0
 112 268 114 306 114 320 c 0
 114 328 110 342 99 342 c 0
 83 342 43 293 43 243 c 0
EndSplineSet
EndChar

StartChar: x
Encoding: 120 120 24
Width: 475
VWidth: 0
Flags: HW
PickledData: "(dp1
Vspacing_anchors_slanted
p2
I00
s."
HStem: -15 69<39.6437 111.994> -12 42<357.725 436.335> 355 81<105.14 165.346 368.563 439.775> 367 71<354.934 425.168>
VStem: 215 50<193.17 271.568>
AnchorPoint: "l;bl" 0 20 basechar 0
AnchorPoint: "l;o" 20 220 basechar 0
AnchorPoint: "l;x" 39 415 basechar 0
AnchorPoint: "r;bl" 465 20 basechar 0
AnchorPoint: "r;o" 455 220 basechar 0
AnchorPoint: "r;x" 475 415 basechar 0
LayerCount: 3
Fore
SplineSet
20 23 m 0x88
 20 56 35 64 55 64 c 0
 75 64 82 54 98 54 c 0
 135 54 215 208 215 208 c 0
 215 210 182 310 163 339 c 0
 155 352 147 355 140 355 c 0
 92 355 104 295 82 295 c 0
 72 295 68 302 68 330 c 0
 68 343 77 380 93 402 c 0
 107 422 133 436 147 436 c 0xa8
 214 436 246 278 258 278 c 0
 267 278 321 438 408 438 c 0
 429 438 445 417 445 397 c 0
 445 378 433 360 411 360 c 0
 392 360 380 367 368 367 c 0
 335 367 265 256 265 247 c 0
 265 238 314 128 343 70 c 0
 356 44 376 30 393 30 c 0
 405 30 418 32 427 32 c 0
 435 32 441 27 441 20 c 0
 441 -6 382 -12 375 -12 c 0x58
 277 -12 275 42 266 65 c 0
 247 113 232 166 224 166 c 0
 216 166 152 -15 56 -15 c 0
 35 -15 20 2 20 23 c 0x88
EndSplineSet
EndChar

StartChar: y
Encoding: 121 121 25
Width: 407
VWidth: 0
Flags: HW
PickledData: "(dp1
Vspacing_anchors_slanted
p2
I00
s."
HStem: -184 59<73.5584 155.659> 355 76<50.2937 118.346>
VStem: 330 48<243.266 405.034>
AnchorPoint: "top" 219 459 basechar 0
AnchorPoint: "l;bl" 68 20 basechar 0
AnchorPoint: "l;k;lo" -10 -205 basechar 0
AnchorPoint: "l;o" 0 220 basechar 0
AnchorPoint: "l;x" 0 415 basechar 0
AnchorPoint: "r;bl" 378 20 basechar 0
AnchorPoint: "r;lo" 310 -205 basechar 0
AnchorPoint: "r;o" 397 220 basechar 0
AnchorPoint: "r;x" 407 415 basechar 0
LayerCount: 3
Fore
SplineSet
7 -125 m 0
 7 -108 22 -92 39 -92 c 0
 79 -92 80 -125 126 -125 c 0
 184 -125 250 3 250 41 c 0
 250 97 140 355 87 355 c 0
 29 355 50 280 20 280 c 0
 14 280 10 285 10 302 c 0
 10 344 30 431 91 431 c 0
 188 431 283 147 294 147 c 0
 308 147 330 254 330 321 c 0
 330 350 305 370 305 397 c 0
 305 415 315 434 339 434 c 0
 361 434 378 412 378 381 c 0
 378 336 354 198 295 49 c 0
 248 -70 184 -184 90 -184 c 0
 47 -184 7 -171 7 -125 c 0
EndSplineSet
EndChar

StartChar: z
Encoding: 122 122 26
Width: 409
VWidth: 0
Flags: HW
PickledData: "(dp1
Vspacing_anchors_slanted
p2
I00
s."
HStem: -97 26<259.547 327.826> 0 21G<31.5 44.5> 364 66<86.6602 170.781> 401 20G<350.5 372.5>
VStem: 51 33<296.726 358.508>
AnchorPoint: "top" 232 459 basechar 0
AnchorPoint: "l;bl" 0 20 basechar 0
AnchorPoint: "l;o" 20 220 basechar 0
AnchorPoint: "l;x" 20 415 basechar 0
AnchorPoint: "r;bl" 395 20 basechar 0
AnchorPoint: "r;o" 375 220 basechar 0
AnchorPoint: "r;x" 409 415 basechar 0
LayerCount: 3
Fore
SplineSet
20 16 m 0xd8
 20 21 22 25 29 32 c 2
 29 32 271 280 271 296 c 0
 271 297 270 299 267 300 c 0
 135 356 131 364 114 364 c 0
 99 364 84 345 84 332 c 0
 84 309 101 296 101 288 c 0
 101 284 95 279 89 279 c 0
 81 279 51 303 51 350 c 0
 51 392 89 430 129 430 c 0xe8
 171 430 207 397 258 378 c 16
 289 367 308 362 321 362 c 0
 351 362 334 421 367 421 c 0
 378 421 390 414 390 402 c 0
 390 390 377 378 369 369 c 2
 176 154 l 2
 147 122 141 115 141 111 c 0
 141 98 190 72 212 46 c 0
 248 5 284 -71 306 -71 c 0
 342 -71 328 -17 367 -17 c 0
 382 -17 389 -31 389 -40 c 0
 389 -69 344 -97 288 -97 c 0
 232 -97 188 -30 181 -22 c 0
 150 14 112 49 93 49 c 0
 79 49 54 0 35 0 c 0
 28 0 20 7 20 16 c 0xd8
EndSplineSet
EndChar

StartChar: A
Encoding: 65 65 27
Width: 771
VWidth: 997
Flags: HMW
PickledData: "(dp1
Vspacing_anchors_slanted
p2
I00
s."
HStem: -2 30<20.582 68.7732 702.887 751.549> 257 47<271.01 527.004> 596 122<428 476>
AnchorPoint: "top" 459 723 basechar 0
AnchorPoint: "l;bl" 0 20 basechar 0
AnchorPoint: "l;o" 88 220 basechar 0
AnchorPoint: "l;hi" 254 732 basechar 0
AnchorPoint: "l;t" 186 562 basechar 0
AnchorPoint: "l;x" 137 415 basechar 0
AnchorPoint: "r;bl" 771 20 basechar 0
AnchorPoint: "r;o" 723 220 basechar 0
AnchorPoint: "r;hi" 645 732 basechar 0
AnchorPoint: "r;t" 674 562 basechar 0
AnchorPoint: "r;x" 693 415 basechar 0
LayerCount: 3
Back
SplineSet
20 9 m 4
 20 21 33 26 45 30 c 4
 105 52 81 66 445 698 c 4
 456 718 458 718 468 718 c 4
 484 718 477 718 524 560 c 4
 559 444 666 118 672 102 c 4
 695 42 699 40 736 28 c 4
 746 25 752 20 752 8 c 4
 752 1 748 -2 721 -2 c 4
 698 -2 684 1 656 1 c 4
 621 1 594 -4 568 -4 c 4
 559 -4 536 -5 536 7 c 4
 536 36 602 20 602 65 c 4
 602 103 570 191 561 229 c 4
 559 238 557 258 524 258 c 4
 503 258 468 257 403 257 c 4
 273 257 308 260 269 260 c 4
 252 260 240 256 234 245 c 4
 172 137 149 74 149 69 c 4
 149 12 217 38 217 12 c 4
 217 -3 211 -2 202 -2 c 4
 151 -1 132 0 115 0 c 4
 98 0 83 -1 40 -2 c 4
 26 -2 20 2 20 9 c 4
271 312 m 4
 271 305 285 304 304 304 c 4
 324 304 319 305 512 305 c 4
 529 305 528 313 528 320 c 4
 528 331 446 596 432 596 c 4
 424 596 271 316 271 312 c 4
EndSplineSet
Fore
SplineSet
20 9 m 0
 20 21 33 26 45 30 c 0
 105 52 81 66 445 698 c 0
 456 718 458 718 468 718 c 0
 484 718 477 718 524 560 c 0
 559 444 666 118 672 102 c 0
 695 42 699 40 736 28 c 0
 746 25 752 20 752 8 c 0
 752 1 748 -2 721 -2 c 0
 698 -2 684 1 656 1 c 0
 619 1 600 -4 563 -4 c 0
 553 -4 536 -3 536 7 c 0
 536 36 602 20 602 65 c 0
 602 103 570 191 561 229 c 0
 559 238 557 258 524 258 c 0
 503 258 468 257 403 257 c 0
 273 257 308 260 269 260 c 0
 252 260 240 256 234 245 c 0
 172 137 149 74 149 69 c 0
 149 12 217 38 217 12 c 0
 217 -3 211 -2 202 -2 c 0
 151 -1 132 0 115 0 c 4
 98 0 83 -1 40 -2 c 0
 26 -2 20 2 20 9 c 0
271 312 m 0
 271 305 285 304 304 304 c 0
 324 304 319 305 512 305 c 0
 529 305 528 313 528 320 c 0
 528 331 446 596 432 596 c 0
 424 596 271 316 271 312 c 0
EndSplineSet
Position2: "'cpsp' Capital Spacing in Latin lookup 2 subtable" dx=20 dy=0 dh=40 dv=0
EndChar

StartChar: B
Encoding: 66 66 28
Width: 612
VWidth: 997
Flags: HMW
PickledData: "(dp1
Vspacing_anchors_slanted
p2
I00
s."
HStem: -3 31<20.5119 74.2053 181.751 369.036> 361 25<208.918 359.256> 669 37<64.6218 143.048 243.191 404.98>
VStem: 483 85<128.129 276.731 478.029 605.269>
DStem2: 96 122 179 201 0.106533 0.994309<-68.2714 0 87.3927 250.624>
AnchorPoint: "l;x" 29 415 basechar 0
AnchorPoint: "l;t" 39 562 basechar 0
AnchorPoint: "l;hi" 39 732 basechar 0
AnchorPoint: "l;o" 20 220 basechar 0
AnchorPoint: "l;bl" 0 20 basechar 0
AnchorPoint: "r;bl" 543 20 basechar 0
AnchorPoint: "r;o" 612 220 basechar 0
AnchorPoint: "r;hi" 563 732 basechar 0
AnchorPoint: "r;t" 612 562 basechar 0
AnchorPoint: "r;x" 612 415 basechar 0
LayerCount: 3
Back
SplineSet
20 9 m 4
 20 14 24 25 34 25 c 4
 89 25 91 87 96 122 c 4
 113 234 150 599 150 626 c 4
 150 640 146 654 125 669 c 4
 100 687 62 672 62 696 c 4
 62 704 71 708 75 708 c 4
 85 708 113 704 143 704 c 4
 179 704 232 705 250 705 c 4
 293 705 327 706 362 706 c 4
 470 706 565 662 565 547 c 4
 565 428 424 376 424 370 c 4
 424 359 568 354 568 209 c 4
 568 148 522 49 410 12 c 4
 375 1 333 -3 282 -3 c 4
 221 -3 170 0 147 0 c 4
 125 0 81 -6 41 -6 c 4
 31 -6 20 -2 20 9 c 4
164 74 m 5
 164 47 183 28 286 28 c 4
 433 28 483 136 483 195 c 4
 483 271 437 346 318 356 c 4
 276 359 251 361 236 361 c 6
 207 361 l 6
 196 361 194 325 179 201 c 6
 164 74 l 5
208 404 m 4
 208 386 224 386 342 386 c 4
 453 386 486 486 486 532 c 4
 486 563 475 599 442 627 c 4
 412 652 382 669 290 669 c 4
 251 669 242 661 237 627 c 6
 225 545 l 6
 212 460 208 408 208 404 c 4
EndSplineSet
Fore
SplineSet
20 9 m 0
 20 14 24 25 34 25 c 0
 89 25 91 87 96 122 c 0
 113 234 150 599 150 626 c 0
 150 640 146 654 125 669 c 0
 100 687 62 672 62 696 c 0
 62 704 71 708 75 708 c 0
 85 708 113 704 143 704 c 0
 179 704 232 705 250 705 c 0
 293 705 327 706 362 706 c 0
 470 706 565 662 565 547 c 0
 565 428 424 376 424 370 c 0
 424 359 568 354 568 209 c 0
 568 148 522 49 410 12 c 0
 375 1 333 -3 282 -3 c 0
 221 -3 170 0 147 0 c 0
 125 0 81 -6 41 -6 c 0
 31 -6 20 -2 20 9 c 0
164 75 m 0
 164 47 183 28 286 28 c 0
 433 28 483 136 483 195 c 0
 483 271 437 346 318 356 c 0
 276 359 251 361 236 361 c 2
 207 361 l 2
 196 361 194 325 179 201 c 2
 171 134 l 2
 168 106 164 81 164 75 c 0
208 404 m 0
 208 386 224 386 342 386 c 0
 453 386 486 486 486 532 c 0
 486 563 475 599 442 627 c 0
 412 652 382 669 290 669 c 0
 251 669 242 661 237 627 c 2
 225 545 l 2
 212 460 208 408 208 404 c 0
EndSplineSet
Position2: "'cpsp' Capital Spacing in Latin lookup 2 subtable" dx=20 dy=0 dh=40 dv=0
EndChar

StartChar: C
Encoding: 67 67 29
Width: 762
VWidth: 997
Flags: HW
PickledData: "(dp1
Vspacing_anchors_slanted
p2
I00
s."
HStem: -23 37<306.801 492.687> 672 38<314.641 514.345>
VStem: 39 85<203.727 448.357>
AnchorPoint: "l;x" 0 415 basechar 0
AnchorPoint: "l;t" 20 562 basechar 0
AnchorPoint: "l;hi" 98 732 basechar 0
AnchorPoint: "l;o" 10 220 basechar 0
AnchorPoint: "l;bl" 49 20 basechar 0
AnchorPoint: "cedilla" 380 -79 basechar 0
AnchorPoint: "top" 437 723 basechar 0
AnchorPoint: "r;bl" 742 20 basechar 0
AnchorPoint: "r;o" 752 220 basechar 0
AnchorPoint: "r;hi" 762 732 basechar 0
AnchorPoint: "r;t" 762 562 basechar 0
AnchorPoint: "r;x" 762 415 basechar 0
LayerCount: 3
Fore
SplineSet
39 312 m 0
 39 505 163 710 428 710 c 0
 566 710 661 634 670 634 c 0
 677 634 684 650 692 650 c 0
 698 650 704 649 704 634 c 0
 704 507 713 509 713 485 c 0
 713 473 710 461 699 461 c 0
 684 461 678 495 663 530 c 0
 646 572 631 589 600 610 c 0
 537 653 472 672 412 672 c 0
 223 672 124 501 124 334 c 0
 124 130 256 14 398 14 c 0
 473 14 552 47 614 117 c 0
 644 150 648 198 669 198 c 0
 671 198 685 197 685 180 c 0
 685 164 674 139 668 118 c 0
 656 79 660 61 645 53 c 0
 567 12 482 -23 378 -23 c 0
 145 -23 39 140 39 312 c 0
EndSplineSet
Position2: "'cpsp' Capital Spacing in Latin lookup 2 subtable" dx=20 dy=0 dh=40 dv=0
EndChar

StartChar: D
Encoding: 68 68 30
Width: 767
VWidth: 997
Flags: HMW
PickledData: "(dp1
Vspacing_anchors_slanted
p2
I00
s."
HStem: 0 34<176.214 397.097> 672 42<76.7185 161.547 258.594 485.613>
VStem: 641 92<304.719 533.77>
DStem2: 97 116 172 71 0.130736 0.991417<-67.3702 -45 518 539>
AnchorPoint: "l;bl" 0 20 basechar 0
AnchorPoint: "l;o" 20 220 basechar 0
AnchorPoint: "l;hi" 54 732 basechar 0
AnchorPoint: "l;t" 39 562 basechar 0
AnchorPoint: "l;x" 29 415 basechar 0
AnchorPoint: "top" 411 723 basechar 0
AnchorPoint: "r;bl" 645 20 basechar 0
AnchorPoint: "r;o" 733 220 basechar 0
AnchorPoint: "r;hi" 684 732 basechar 0
AnchorPoint: "r;t" 762 562 basechar 0
AnchorPoint: "r;x" 767 415 basechar 0
LayerCount: 3
Fore
SplineSet
20 13 m 0
 20 39 68 12 88 73 c 0
 92 87 94 96 97 116 c 2
 165 616 l 2
 166 624 167 629 167 634 c 0
 167 655 144 674 122 675 c 0
 91 677 76 686 76 697 c 0
 76 704 82 715 107 715 c 0
 143 715 161 704 208 704 c 0
 263 704 286 714 364 714 c 0
 635 714 733 581 733 432 c 0
 733 349 703 260 655 186 c 0
 623 136 554 75 524 57 c 0
 463 20 389 0 298 0 c 0
 239 0 230 3 143 3 c 0
 83 3 62 -5 42 -5 c 0
 29 -5 20 4 20 13 c 0
172 71 m 0
 172 49 180 34 220 34 c 2
 308 34 l 2
 359 34 453 59 512 113 c 0
 628 218 641 381 641 431 c 0
 641 528 588 672 353 672 c 0
 275 672 259 671 244 617 c 0
 234 578 172 73 172 71 c 0
EndSplineSet
Position2: "'cpsp' Capital Spacing in Latin lookup 2 subtable" dx=20 dy=0 dh=40 dv=0
EndChar

StartChar: E
Encoding: 69 69 31
Width: 631
Flags: HMW
PickledData: "(dp1
Vspacing_anchors_slanted
p2
I00
s."
HStem: 0 40<178.235 371.033> 342 40<214.374 437.146> 667 39<250.094 544.735>
VStem: 458 29<244.727 317.557>
DStem2: 131 296 174 77 0.123567 0.992336<-237.79 -134.452 38.5395 56.6618 98.3515 109.49 314.023 366.63>
AnchorPoint: "l;x" 29 415 basechar 0
AnchorPoint: "l;t" 39 562 basechar 0
AnchorPoint: "l;hi" 68 732 basechar 0
AnchorPoint: "l;o" 20 220 basechar 0
AnchorPoint: "top" 383 723 basechar 0
AnchorPoint: "l;bl" 0 20 basechar 0
AnchorPoint: "r;bl" 597 20 basechar 0
AnchorPoint: "r;o" 622 220 basechar 0
AnchorPoint: "r;hi" 631 732 basechar 0
AnchorPoint: "r;t" 631 562 basechar 0
AnchorPoint: "r;x" 626 415 basechar 0
LayerCount: 3
Fore
SplineSet
20 14 m 0
 20 19 26 27 42 28 c 0
 92 31 95 69 111 163 c 0
 116 197 124 242 131 296 c 2
 167 599 l 2
 168 608 168 615 168 620 c 0
 168 701 92 663 92 693 c 0
 92 703 97 708 115 708 c 0
 144 708 217 706 368 706 c 0
 408 706 569 710 599 710 c 0
 606 710 617 708 617 691 c 0
 617 678 613 661 613 638 c 0
 613 622 616 605 616 584 c 0
 616 572 611 556 603 556 c 0
 576 556 601 595 569 632 c 0
 564 638 532 663 464 664 c 0
 384 665 367 667 310 667 c 0
 248 667 249 659 239 599 c 0
 235 571 214 409 214 396 c 0
 214 383 217 382 257 382 c 0
 438 382 445 386 461 406 c 0
 485 436 482 458 495 458 c 0
 504 458 507 455 507 447 c 0
 507 429 492 383 487 343 c 0
 482 308 490 244 469 244 c 0
 460 244 458 251 458 260 c 0
 458 279 458 308 441 320 c 0
 422 334 386 341 334 341 c 0
 247 341 260 342 249 342 c 0
 228 342 211 341 210 325 c 0
 202 254 174 94 174 77 c 0
 174 44 200 40 300 40 c 0
 549 40 556 139 582 139 c 0
 587 139 592 135 592 125 c 0
 592 93 522 -8 476 -8 c 0
 348 -8 228 3 167 3 c 0
 112 3 104 0 55 0 c 0
 20 0 20 9 20 14 c 0
EndSplineSet
Position2: "'cpsp' Capital Spacing in Latin lookup 2 subtable" dx=20 dy=0 dh=40 dv=0
EndChar

StartChar: F
Encoding: 70 70 32
Width: 585
Flags: HMW
PickledData: "(dp1
Vspacing_anchors_slanted
p2
I00
s."
HStem: -5 30<20.2565 70.8574> 340 42<215.358 429.962> 669 37<251.572 495.749>
VStem: 446 29<239.073 316.963>
DStem2: 118 221 177 89 0.122598 0.992456<-162.452 0 107.057 130.849 174.945 189.542 390.105 442.968>
AnchorPoint: "l;o" 20 220 basechar 0
AnchorPoint: "l;hi" 56 732 basechar 0
AnchorPoint: "l;t" 39 562 basechar 0
AnchorPoint: "l;x" 29 415 basechar 0
AnchorPoint: "l;bl" 0 20 basechar 0
AnchorPoint: "r;bl" 463 20 basechar 0
AnchorPoint: "r;o" 561 220 basechar 0
AnchorPoint: "r;hi" 585 732 basechar 0
AnchorPoint: "r;t" 585 562 basechar 0
AnchorPoint: "r;x" 576 415 basechar 0
LayerCount: 3
Fore
SplineSet
20 8 m 0
 20 15 28 24 41 25 c 0
 97 30 103 115 118 221 c 0
 146 415 168 610 168 620 c 0
 168 703 76 659 76 695 c 0
 76 705 81 711 99 711 c 0
 128 711 217 706 368 706 c 0
 408 706 518 708 548 708 c 0
 555 708 566 708 566 691 c 2
 566 638 l 2
 566 622 571 605 571 584 c 0
 571 565 566 557 559 557 c 0
 535 557 557 594 514 637 c 0
 502 650 480 663 417 666 c 0
 361 669 359 669 343 669 c 2
 309 669 l 2
 247 669 250 659 240 599 c 0
 236 571 215 413 215 400 c 0
 215 387 217 382 257 382 c 2
 318 382 l 2
 364 382 392 382 412 384 c 0
 475 390 458 448 484 448 c 0
 491 448 494 444 494 438 c 0
 494 406 475 364 475 291 c 0
 475 264 475 239 462 239 c 0
 453 239 446 244 446 260 c 2
 446 271 l 2
 446 337 421 340 242 340 c 0
 221 340 207 334 206 318 c 0
 198 247 177 106 177 89 c 0
 177 6 285 44 285 10 c 0
 285 1 282 -2 270 -2 c 0
 254 -2 224 3 167 3 c 0
 112 3 49 -5 45 -5 c 0
 27 -5 20 1 20 8 c 0
EndSplineSet
Position2: "'cpsp' Capital Spacing in Latin lookup 2 subtable" dx=20 dy=0 dh=40 dv=0
EndChar

StartChar: G
Encoding: 71 71 33
Width: 773
Flags: HW
PickledData: "(dp1
Vspacing_anchors_slanted
p2
I00
s."
HStem: -10 35<315.983 509.617> 328 31<506.195 591> 679 37<288.101 503.983>
VStem: 39 85<228.823 474.95> 599 83<110.907 323.794> 650 59<517.655 586.454>
AnchorPoint: "l;bl" 49 20 basechar 0
AnchorPoint: "l;o" 10 220 basechar 0
AnchorPoint: "l;hi" 98 732 basechar 0
AnchorPoint: "l;t" 20 562 basechar 0
AnchorPoint: "l;x" 0 415 basechar 0
AnchorPoint: "cedilla" 379 -79 basechar 0
AnchorPoint: "top" 417 723 basechar 0
AnchorPoint: "r;bl" 744 20 basechar 0
AnchorPoint: "r;o" 764 220 basechar 0
AnchorPoint: "r;hi" 764 732 basechar 0
AnchorPoint: "r;t" 773 562 basechar 0
AnchorPoint: "r;x" 773 415 basechar 0
LayerCount: 3
Back
SplineSet
39 359 m 4xf0
 39 445 85 629 272 693 c 4
 310 706 353 716 402 716 c 4
 561 716 653 642 662 642 c 4
 669 642 683 662 691 662 c 4
 701 662 704 657 704 644 c 4
 704 633 702 616 702 592 c 4
 702 558 709 521 709 508 c 4
 709 487 697 485 692 485 c 4
 673 485 679 520 650 562 c 4xe8
 597 641 489 679 386 679 c 4
 281 679 124 623 124 357 c 4
 124 178 233 25 404 25 c 4
 512 25 599 48 599 243 c 6
 599 249 l 6
 599 267 599 278 597 296 c 4
 591 354 506 306 506 346 c 4
 506 354 523 359 539 359 c 4
 564 359 606 356 631 356 c 4
 677 356 711 360 715 360 c 4
 726 360 734 357 734 348 c 4
 734 325 690 343 682 297 c 4
 669 216 660 121 660 105 c 6
 660 74 l 6
 660 40 659 53 618 37 c 4
 596 29 514 -10 403 -10 c 4
 159 -10 39 145 39 359 c 4xf0
EndSplineSet
Fore
SplineSet
599 249 m 2xf8
 599 315 596 328 544 328 c 2
 535 328 l 2
 520 328 506 330 506 346 c 0
 506 354 523 359 539 359 c 0
 564 359 606 356 631 356 c 0
 677 356 711 360 715 360 c 0
 726 360 734 357 734 348 c 0
 734 325 690 343 682 297 c 0xf8
 669 216 660 121 660 105 c 2
 660 74 l 2
 660 40 659 53 618 37 c 0
 596 29 514 -10 403 -10 c 0
 159 -10 39 145 39 359 c 0
 39 445 85 629 272 693 c 0
 310 706 353 716 402 716 c 0
 561 716 653 642 662 642 c 0
 669 642 683 662 691 662 c 0
 701 662 704 657 704 644 c 0
 704 633 702 616 702 592 c 0
 702 558 709 521 709 508 c 0
 709 487 697 485 692 485 c 0
 673 485 679 520 650 562 c 0xf4
 597 641 489 679 386 679 c 0
 281 679 124 623 124 357 c 0
 124 178 233 25 404 25 c 0
 512 25 599 48 599 243 c 2
 599 249 l 2xf8
EndSplineSet
AlternateSubs2: "'aalt' Access All Alternates lookup 0 subtable" G.001
AlternateSubs2: "'aalt' Access All Alternates in Latin lookup 0 subtable" G.001
Position2: "'cpsp' Capital Spacing in Latin lookup 2 subtable" dx=20 dy=0 dh=40 dv=0
Substitution2: "'salt' Stylistic Alternatives in Latin lookup 12 subtable" G.001
EndChar

StartChar: H
Encoding: 72 72 34
Width: 786
VWidth: 0
Flags: HMW
PickledData: "(dp1
Vspacing_anchors_slanted
p2
I00
s."
HStem: 0 25<189.125 253.367 489.599 537.774 652.93 728.628> 343 41<205.401 587.58> 670 32<525.684 600.885> 677 27<64.1142 129.626>
DStem2: 122 326 167 99 0.122954 0.992412<-238.71 0 1.03632 28.7967 73.1643 82.6513 121.847 329.439> 560 112 636 100 0.118828 0.992915<-59.7597 0 217.797 230.954 271.385 315.535 445.38 540.288>
AnchorPoint: "r;x" 767 415 basechar 0
AnchorPoint: "r;t" 786 562 basechar 0
AnchorPoint: "r;hi" 786 732 basechar 0
AnchorPoint: "r;o" 747 220 basechar 0
AnchorPoint: "r;bl" 747 20 basechar 0
AnchorPoint: "l;x" 29 415 basechar 0
AnchorPoint: "l;t" 39 562 basechar 0
AnchorPoint: "l;hi" 44 732 basechar 0
AnchorPoint: "l;o" 20 220 basechar 0
AnchorPoint: "l;bl" 0 20 basechar 0
AnchorPoint: "top" 417 723 basechar 0
LayerCount: 3
Fore
SplineSet
20 11 m 0xe0
 20 33 47 17 75 45 c 0
 96 66 98 121 122 326 c 0
 139 465 158 617 158 619 c 0
 158 678 87 670 72 677 c 0
 66 679 64 684 64 689 c 0
 64 697 70 704 91 704 c 0
 119 704 138 697 194 697 c 0
 237 697 268 704 288 704 c 0xd0
 295 704 306 703 306 689 c 0
 306 673 269 681 254 663 c 0
 230 635 232 568 209 438 c 0
 206 419 205 406 205 399 c 0
 205 387 209 387 217 387 c 0
 250 387 283 386 550 384 c 0
 560 384 563 384 570 384 c 0
 592 384 596 388 600 425 c 0
 603 454 619 594 619 605 c 0
 619 639 600 661 579 670 c 0
 564 676 525 673 525 689 c 0
 525 697 531 702 552 702 c 0
 580 702 603 699 659 699 c 0
 702 699 725 703 745 703 c 0
 752 703 767 702 767 688 c 0
 767 672 735 680 720 662 c 0
 700 639 693 577 690 545 c 0
 662 281 636 137 636 100 c 0
 636 22 672 26 698 24 c 0
 713 23 731 17 731 6 c 0
 731 -4 723 -6 713 -6 c 0
 674 -6 653 3 611 3 c 0
 560 3 542 -5 521 -5 c 0
 499 -5 489 0 489 8 c 0
 489 19 496 22 508 23 c 0
 556 28 556 82 560 112 c 0
 570 183 588 323 588 328 c 0
 588 342 585 344 554 344 c 0
 534 344 503 343 454 343 c 2
 219 343 l 2
 196 343 198 342 195 318 c 2
 188 266 l 2
 175 176 167 120 167 99 c 0
 167 30 199 32 224 25 c 0
 240 21 254 20 254 9 c 0
 254 0 245 0 238 0 c 0
 196 0 185 2 132 2 c 0
 109 2 78 -3 54 -3 c 0
 34 -3 20 -1 20 11 c 0xe0
EndSplineSet
Position2: "'cpsp' Capital Spacing in Latin lookup 2 subtable" dx=20 dy=0 dh=40 dv=0
EndChar

StartChar: I
Encoding: 73 73 35
Width: 325
VWidth: 2
Flags: HMW
PickledData: "(dp1
Vspacing_anchors_slanted
p2
I00
s."
HStem: 1 21<188.246 253.631> 677 27<64.1142 129.626>
DStem2: 88 72 167 99 0.126936 0.991911<-19.2736 36.8095 486.564 586.843>
AnchorPoint: "top" 192 723 basechar 0
AnchorPoint: "l;bl" 0 20 basechar 0
AnchorPoint: "l;o" 20 220 basechar 0
AnchorPoint: "l;hi" 44 732 basechar 0
AnchorPoint: "l;t" 39 562 basechar 0
AnchorPoint: "l;x" 29 415 basechar 0
AnchorPoint: "r;bl" 276 20 basechar 0
AnchorPoint: "r;o" 286 220 basechar 0
AnchorPoint: "r;hi" 325 732 basechar 0
AnchorPoint: "r;t" 325 562 basechar 0
AnchorPoint: "r;x" 306 415 basechar 0
LayerCount: 3
Back
SplineSet
20 11 m 4
 20 36 66 6 88 72 c 4
 88 73 158 615 158 619 c 4
 158 678 87 670 72 677 c 4
 66 679 64 684 64 689 c 4
 64 697 70 704 91 704 c 4
 119 704 138 696 194 696 c 4
 237 696 268 702 288 702 c 4
 295 702 306 702 306 688 c 4
 306 672 269 680 254 662 c 4
 234 639 228 577 225 545 c 4
 197 281 167 136 167 99 c 4
 167 21 199 29 224 22 c 4
 240 18 254 20 254 9 c 4
 254 -6 246 -5 233 -5 c 4
 219 -5 174 1 132 1 c 4
 104 1 76 -5 55 -5 c 4
 33 -5 20 -1 20 11 c 4
EndSplineSet
Fore
SplineSet
20 11 m 0
 20 31 54 16 74 45 c 0
 83 58 88 70 89 79 c 0
 97 142 158 615 158 619 c 0
 158 678 87 670 72 677 c 0
 66 679 64 684 64 689 c 0
 64 697 70 704 91 704 c 0
 119 704 138 696 194 696 c 0
 237 696 268 702 288 702 c 0
 295 702 306 702 306 688 c 0
 306 672 269 680 254 662 c 0
 234 639 228 577 225 545 c 0
 197 281 167 136 167 99 c 0
 167 21 199 29 224 22 c 0
 240 18 254 20 254 9 c 0
 254 -6 246 -5 233 -5 c 0
 219 -5 174 1 132 1 c 0
 104 1 76 -5 55 -5 c 0
 33 -5 20 -1 20 11 c 0
EndSplineSet
Position2: "'cpsp' Capital Spacing in Latin lookup 2 subtable" dx=20 dy=0 dh=40 dv=0
EndChar

StartChar: J
Encoding: 74 74 36
Width: 405
VWidth: 2
Flags: HMW
PickledData: "(dp1
Vspacing_anchors_slanted
p2
I00
s."
HStem: -69 52<26.5 115.04> 674 34<141.053 220.336>
DStem2: 189 246 259 195 0.125857 0.992048<-178.004 0 363.438 412.801>
AnchorPoint: "top" 268 723 basechar 0
AnchorPoint: "l;bl" 0 20 basechar 0
AnchorPoint: "l;o" 78 220 basechar 0
AnchorPoint: "l;hi" 122 732 basechar 0
AnchorPoint: "l;t" 117 562 basechar 0
AnchorPoint: "l;x" 103 415 basechar 0
AnchorPoint: "r;bl" 297 20 basechar 0
AnchorPoint: "r;o" 366 220 basechar 0
AnchorPoint: "r;hi" 405 732 basechar 0
AnchorPoint: "r;t" 405 562 basechar 0
AnchorPoint: "r;x" 385 415 basechar 0
LayerCount: 3
Back
SplineSet
-10 -39 m 4
 -10 -34 5 38 27 38 c 4
 47 38 45 -17 93 -17 c 4
 168 -17 184 203 201 354 c 5
 231 604 l 6
 232 615 234 623 234 629 c 4
 234 667 190 672 166 674 c 4
 151 675 141 680 141 692 c 4
 141 700 149 708 167 708 c 4
 198 708 205 699 265 699 c 4
 321 699 347 707 362 707 c 4
 371 707 385 705 385 695 c 4
 385 658 330 719 310 597 c 4
 302 547 286 375 259 195 c 4
 252 148 239 104 222 66 c 4
 186 -16 99 -69 42 -69 c 4
 11 -69 -10 -57 -10 -39 c 4
EndSplineSet
Fore
SplineSet
-10 -39 m 0
 -10 -34 5 38 27 38 c 0
 47 38 45 -17 93 -17 c 0
 151 -17 174 116 189 246 c 2
 231 604 l 2
 232 615 234 623 234 629 c 0
 234 667 190 672 166 674 c 0
 151 675 141 680 141 692 c 0
 141 700 149 708 167 708 c 0
 198 708 205 699 265 699 c 0
 321 699 347 707 362 707 c 0
 371 707 385 705 385 695 c 0
 385 658 330 719 310 597 c 0
 302 547 286 375 259 195 c 0
 252 148 239 104 222 66 c 0
 186 -16 99 -69 42 -69 c 0
 11 -69 -10 -57 -10 -39 c 0
EndSplineSet
AlternateSubs2: "'aalt' Access All Alternates lookup 0 subtable" J.001
AlternateSubs2: "'aalt' Access All Alternates in Latin lookup 0 subtable" J.001
Position2: "'cpsp' Capital Spacing in Latin lookup 2 subtable" dx=20 dy=0 dh=40 dv=0
Substitution2: "'salt' Stylistic Alternatives in Latin lookup 12 subtable" J.001
EndChar

StartChar: K
Encoding: 75 75 37
Width: 774
VWidth: 2
Flags: HMW
PickledData: "(dp1
Vspacing_anchors_slanted
p2
I00
s."
HStem: -2 28<193.484 269.915 625.135 712.991> 338 32<210.319 243.031> 671 35<680.205 753.948> 678 29<75.3016 136.439 262.283 310.638>
DStem2: 96 88 176 113 0.121279 0.992618<-32.1152 34.5177 183.366 262.577 294.566 302.678 337.905 570.523>
AnchorPoint: "l;x" 29 415 basechar 0
AnchorPoint: "l;t" 39 562 basechar 0
AnchorPoint: "l;hi" 54 732 basechar 0
AnchorPoint: "l;o" 20 220 basechar 0
AnchorPoint: "cedilla" 337 -79 basechar 0
AnchorPoint: "l;bl" 0 20 basechar 0
AnchorPoint: "r;bl" 713 20 basechar 0
AnchorPoint: "r;o" 647 220 basechar 0
AnchorPoint: "r;hi" 774 732 basechar 0
AnchorPoint: "r;t" 696 562 basechar 0
AnchorPoint: "r;x" 637 415 basechar 0
LayerCount: 3
Fore
SplineSet
20 13 m 0xe0
 20 41 75 5 96 88 c 0
 112 153 161 596 161 620 c 0
 161 653 131 676 93 678 c 0
 78 679 75 690 75 695 c 0
 75 704 87 707 93 707 c 0xd0
 95 707 131 701 208 701 c 0
 251 701 274 705 292 705 c 0
 299 705 311 703 311 695 c 0
 311 684 297 686 278 675 c 0
 235 650 236 627 214 414 c 0
 212 396 210 385 210 379 c 0
 210 372 212 370 217 370 c 0
 229 370 445 533 526 596 c 0
 540 607 579 636 579 656 c 0
 579 683 531 672 531 694 c 0
 531 699 532 706 558 706 c 0
 567 706 624 700 650 700 c 0
 685 700 716 706 733 706 c 0
 746 706 754 700 754 690 c 0
 754 678 749 673 741 671 c 0
 714 662 707 682 571 584 c 2
 355 429 l 2
 332 412 299 394 299 381 c 0
 299 375 304 372 308 368 c 0
 558 93 575 32 690 26 c 0
 704 25 713 21 713 12 c 0
 713 -1 701 -2 696 -2 c 0
 684 -2 627 2 597 2 c 0
 552 2 546 1 540 1 c 0
 523 1 513 19 323 245 c 0
 244 338 246 338 233 338 c 0
 224 338 218 333 214 329 c 0
 205 321 198 320 192 261 c 0
 188 225 176 145 176 113 c 0
 176 37 186 36 239 28 c 0
 257 26 270 21 270 13 c 0
 270 9 268 0 247 0 c 0
 193 0 196 3 163 3 c 0
 111 3 68 -2 49 -2 c 0
 22 -2 20 6 20 13 c 0xe0
EndSplineSet
Position2: "'cpsp' Capital Spacing in Latin lookup 2 subtable" dx=20 dy=0 dh=40 dv=0
EndChar

StartChar: L
Encoding: 76 76 38
Width: 589
Flags: HMW
PickledData: "(dp1
Vspacing_anchors_slanted
p2
I00
s."
HStem: -3 41<26.8707 91.6377 181.521 378.534> 687 32<77.6924 152.726>
DStem2: 138 377 175 93 0.131799 0.991276<-238.092 0 256.598 290.994>
AnchorPoint: "r;s;dot" 446 332 basechar 0
AnchorPoint: "l;o" 20 220 basechar 0
AnchorPoint: "l;hi" 54 732 basechar 0
AnchorPoint: "l;t" 39 562 basechar 0
AnchorPoint: "l;x" 29 415 basechar 0
AnchorPoint: "r;bl" 589 20 basechar 0
AnchorPoint: "right" 432 708 basechar 0
AnchorPoint: "top" 214 723 basechar 0
AnchorPoint: "cedilla" 280 -79 basechar 0
AnchorPoint: "l;bl" 0 20 basechar 0
AnchorPoint: "r;o" 589 220 basechar 0
AnchorPoint: "r;hi" 428 732 basechar 0
AnchorPoint: "r;t" 408 562 basechar 0
AnchorPoint: "r;x" 389 415 basechar 0
LayerCount: 3
Fore
SplineSet
25 10 m 0
 25 32 52 19 78 42 c 0
 106 67 94 66 138 377 c 0
 152 477 167 595 167 632 c 0
 167 670 145 686 106 687 c 0
 89 687 77 697 77 707 c 0
 77 712 80 719 93 719 c 0
 103 719 129 711 207 711 c 0
 261 711 280 715 298 715 c 0
 311 715 319 710 319 702 c 0
 319 677 257 701 246 627 c 0
 242 598 175 111 175 93 c 0
 175 49 184 38 284 38 c 0
 567 38 543 137 572 137 c 0
 577 137 584 135 584 122 c 0
 584 90 538 25 528 16 c 0
 503 -6 489 -8 467 -8 c 2
 420 -8 l 2
 333 -8 234 3 174 3 c 0
 119 3 97 -3 48 -3 c 0
 30 -3 25 4 25 10 c 0
EndSplineSet
Position2: "'cpsp' Capital Spacing in Latin lookup 2 subtable" dx=20 dy=0 dh=40 dv=0
EndChar

StartChar: M
Encoding: 77 77 39
Width: 911
VWidth: 2
Flags: HMW
PickledData: "(dp1
Vspacing_anchors_slanted
p2
I00
s."
HStem: 1 28<153.384 228.756 813.298 872.581> 3 21G<444.5 458.5> 680 32<53.1412 135.33 830.897 890.576>
VStem: 733 70<155.125 504.693>
AnchorPoint: "l;bl" 0 20 basechar 0
AnchorPoint: "l;o" 29 220 basechar 0
AnchorPoint: "l;hi" 34 732 basechar 0
AnchorPoint: "l;t" 68 562 basechar 0
AnchorPoint: "l;x" 68 415 basechar 0
AnchorPoint: "r;bl" 908 20 basechar 0
AnchorPoint: "r;o" 911 220 basechar 0
AnchorPoint: "r;hi" 911 732 basechar 0
AnchorPoint: "r;t" 911 562 basechar 0
AnchorPoint: "r;x" 896 415 basechar 0
LayerCount: 3
Back
SplineSet
20 10 m 4
 20 22 23 20 58 34 c 4
 97 49 103 105 125 225 c 4
 139 299 175 458 175 519 c 4
 175 533 174 547 174 562 c 4
 174 605 157 637 144 655 c 4
 127 677 112 680 83 680 c 4
 79 680 71 680 68 680 c 4
 62 680 53 683 53 695 c 4
 53 711 102 712 124 712 c 6
 130 712 l 6
 157 712 175 713 194 713 c 4
 217 713 224 690 272 571 c 4
 353 370 468 126 475 126 c 4
 482 126 531 221 636 432 c 4
 655 470 685 526 709 577 c 4
 755 674 759 708 782 708 c 4
 785 708 800 708 812 708 c 4
 830 708 861 712 867 712 c 4
 884 712 891 705 891 698 c 4
 891 693 883 684 877 683 c 4
 843 676 822 694 808 564 c 4
 803 518 803 484 803 454 c 6
 803 376 l 6
 803 322 801 270 801 234 c 4
 801 209 799 234 799 106 c 4
 799 37 817 27 873 22 c 4
 882 21 888 15 888 10 c 4
 888 -1 878 -4 860 -4 c 4
 836 -4 799 1 756 1 c 4
 728 1 709 -4 673 -4 c 4
 659 -4 652 3 652 8 c 4
 652 31 702 14 718 66 c 4
 732 113 733 356 733 390 c 4
 733 499 729 505 727 505 c 4
 721 505 707 486 688 449 c 6
 542 166 l 6
 460 7 468 3 449 3 c 4
 440 3 424 38 247 440 c 4
 224 493 224 493 219 493 c 4
 214 493 206 459 205 449 c 4
 188 307 143 131 143 71 c 4
 143 11 230 39 230 10 c 4
 230 -1 217 -2 209 -2 c 4
 175 -2 130 1 116 1 c 4
 104 1 87 -2 43 -2 c 4
 31 -2 20 0 20 10 c 4
EndSplineSet
Fore
SplineSet
20 10 m 0xb0
 20 22 23 20 58 34 c 0
 97 49 103 105 125 225 c 0
 139 299 175 458 175 519 c 0
 175 533 174 547 174 562 c 0
 174 605 157 637 144 655 c 0
 127 677 112 680 83 680 c 0
 79 680 71 680 68 680 c 0
 62 680 53 683 53 695 c 0
 53 711 102 712 124 712 c 2
 130 712 l 2
 157 712 175 713 194 713 c 0
 217 713 224 690 272 571 c 0
 353 370 468 126 475 126 c 0
 482 126 531 221 636 432 c 0
 655 470 685 526 709 577 c 0
 755 674 759 708 782 708 c 0
 785 708 800 708 812 708 c 0
 830 708 861 712 867 712 c 0
 884 712 891 705 891 698 c 0
 891 693 883 684 877 683 c 0
 843 676 822 694 808 564 c 0
 803 518 803 484 803 454 c 2
 803 376 l 2
 803 322 801 270 801 234 c 0
 801 209 799 234 799 106 c 0
 799 48.025390625 812 32 849 25 c 0
 856 24 864.051757812 22.798828125 873 22 c 0
 882 21 888 15 888 10 c 0
 888 -1 878 -4 860 -4 c 0
 836 -4 799 1 756 1 c 0xb0
 728 1 709 -4 673 -4 c 0
 659 -4 652 3 652 8 c 0
 652 31 702 14 718 66 c 0
 732 113 733 356 733 390 c 0
 733 499 729 505 727 505 c 0
 721 505 707 486 688 449 c 2
 542 166 l 2
 460 7 468 3 449 3 c 0x70
 440 3 424 38 247 440 c 0
 224 493 224 493 219 493 c 0
 214 493 206 459 205 449 c 0
 188 307 143 131 143 71 c 0
 143 41.2294921875 164 33 186 29 c 0
 208 25 230 24.611328125 230 10 c 0
 230 -1 217 -2 209 -2 c 0
 175 -2 130 1 116 1 c 0
 104 1 87 -2 43 -2 c 0
 31 -2 20 0 20 10 c 0xb0
EndSplineSet
Position2: "'cpsp' Capital Spacing in Latin lookup 2 subtable" dx=20 dy=0 dh=40 dv=0
EndChar

StartChar: N
Encoding: 78 78 40
Width: 804
VWidth: 2
Flags: HMW
PickledData: "(dp1
Vspacing_anchors_slanted
p2
I00
s."
HStem: -6 21G<31.5 48.5 194 210 585.5 603.5> -2 30<156.375 222.188> 683 29<733.154 784.951>
AnchorPoint: "cedilla" 349 -79 basechar 0
AnchorPoint: "top" 422 723 basechar 0
AnchorPoint: "l;bl" 0 20 basechar 0
AnchorPoint: "l;o" 20 220 basechar 0
AnchorPoint: "l;hi" 10 732 basechar 0
AnchorPoint: "l;t" 49 562 basechar 0
AnchorPoint: "l;x" 39 415 basechar 0
AnchorPoint: "r;bl" 716 20 basechar 0
AnchorPoint: "r;o" 750 220 basechar 0
AnchorPoint: "r;hi" 804 732 basechar 0
AnchorPoint: "r;t" 794 562 basechar 0
AnchorPoint: "r;x" 775 415 basechar 0
LayerCount: 3
Back
SplineSet
20 6 m 4
 20 22 43 15 62 32 c 4
 101 65 102 117 129 292 c 4
 141 369 166 503 166 571 c 4
 166 624 144 636 117 661 c 4
 88 688 28 661 28 691 c 4
 28 703 53 710 95 710 c 4
 108 710 123 707 137 707 c 4
 142 707 159 708 167 708 c 4
 190 708 190 702 216 666 c 4
 587 153 575 127 591 127 c 4
 621 127 669 611 669 616 c 4
 669 700 588 664 588 702 c 4
 588 710 597 712 613 712 c 4
 625 712 662 708 689 708 c 4
 731 708 740 712 759 712 c 4
 780 712 785 709 785 698 c 4
 785 689 768 687 755 683 c 4
 716 671 705 615 696 538 c 4
 660 232 624 48 618 21 c 4
 617 15 610 -6 597 -6 c 4
 574 -6 546 72 395 290 c 4
 275 463 243 502 232 524 c 4
 227 534 218 536 216 536 c 4
 209 536 201 530 197 489 c 4
 174 266 144 162 144 79 c 4
 144 10 224 35 224 7 c 4
 224 -4 213 -5 207 -5 c 4
 181 -5 197 -2 107 -2 c 4
 72 -2 55 -5 42 -5 c 4
 21 -5 20 2 20 6 c 4
EndSplineSet
Fore
SplineSet
20 6 m 0x60
 20 22 43 15 62 32 c 0
 101 65 102 117 129 292 c 0
 141 369 166 503 166 571 c 0
 166 624 144 636 117 661 c 0
 88 688 28 661 28 691 c 0
 28 703 53 710 95 710 c 0
 108 710 123 707 137 707 c 0
 142 707 159 708 167 708 c 0
 190 708 190 702 216 666 c 0
 587 153 575 127 591 127 c 0
 621 127 669 611 669 616 c 0
 669 700 588 664 588 702 c 0
 588 710 597 712 613 712 c 0
 625 712 662 708 689 708 c 0
 731 708 740 712 759 712 c 0
 780 712 785 709 785 698 c 0
 785 689 768 687 755 683 c 0
 716 671 705 615 696 538 c 0
 660 232 624 48 618 21 c 0
 617 15 610 -6 597 -6 c 0xa0
 574 -6 546 72 395 290 c 0
 275 463 243 502 232 524 c 0
 227 534 218 536 216 536 c 0
 209 536 201 530 197 489 c 0
 174 266 144 162 144 79 c 0
 144 44.5 164 34 183 28 c 0
 203 22 224 21 224 7 c 0
 224 -4 213 -5 207 -5 c 0
 181 -5 197 -2 107 -2 c 0
 72 -2 55 -5 42 -5 c 0
 21 -5 20 2 20 6 c 0x60
EndSplineSet
Position2: "'cpsp' Capital Spacing in Latin lookup 2 subtable" dx=20 dy=0 dh=40 dv=0
EndChar

StartChar: O
Encoding: 79 79 41
Width: 815
VWidth: -2
Flags: HW
PickledData: "(dp1
Vspacing_anchors_slanted
p2
I00
s."
HStem: -20 36<309.86 486.79> 686 30<334.253 509.328>
VStem: 39 86<210.223 443.823> 688 88<243.029 504.607>
AnchorPoint: "top" 433 723 basechar 0
AnchorPoint: "l;bl" 49 20 basechar 0
AnchorPoint: "l;o" 10 220 basechar 0
AnchorPoint: "l;hi" 98 732 basechar 0
AnchorPoint: "l;t" 20 562 basechar 0
AnchorPoint: "l;x" 0 415 basechar 0
AnchorPoint: "r;bl" 717 20 basechar 0
AnchorPoint: "r;o" 805 220 basechar 0
AnchorPoint: "r;hi" 727 732 basechar 0
AnchorPoint: "r;t" 805 562 basechar 0
AnchorPoint: "r;x" 815 415 basechar 0
LayerCount: 3
Fore
SplineSet
39 314 m 0
 39 509 181 716 434 716 c 0
 670 716 776 550 776 376 c 0
 776 192 655 -20 394 -20 c 0
 180 -20 39 114 39 314 c 0
125 347 m 0
 125 130 262 16 401 16 c 0
 584 16 688 204 688 380 c 0
 688 429 684 478 667 521 c 0
 630 616 547 686 420 686 c 0
 222 686 125 491 125 347 c 0
EndSplineSet
Position2: "'cpsp' Capital Spacing in Latin lookup 2 subtable" dx=20 dy=0 dh=40 dv=0
EndChar

StartChar: P
Encoding: 80 80 42
Width: 576
Flags: HMW
PickledData: "(dp1
Vspacing_anchors_slanted
p2
I00
s."
HStem: 2 24<19.5533 67.0213> 330.606 17.0898<244.431 335.618> 684 33<65.5203 142.886 257.645 372.71>
VStem: 457.891 79.1006<452.763 615.201>
DStem2: 114 292 173 160 0.121054 0.992646<-237.012 -203.638 346.07 380.81>
AnchorPoint: "r;s;AE" 303 -73 basechar 0
AnchorPoint: "l;x" 29 415 basechar 0
AnchorPoint: "l;t" 39 562 basechar 0
AnchorPoint: "l;hi" 44 732 basechar 0
AnchorPoint: "l;o" 20 220 basechar 0
AnchorPoint: "l;bl" 0 20 basechar 0
AnchorPoint: "r;bl" 400 20 basechar 0
AnchorPoint: "r;o" 410 220 basechar 0
AnchorPoint: "r;hi" 522 732 basechar 0
AnchorPoint: "r;t" 576 562 basechar 0
AnchorPoint: "r;x" 532 415 basechar 0
LayerCount: 3
Back
SplineSet
19.4150390625 10.294921875 m 4xf4
 19.4150390625 38.126953125 69.7080078125 3.947265625 87.2861328125 77.677734375 c 4xf4
 91.6796875 96.232421875 102.421875 199.747070312 113.65234375 292.032226562 c 4
 113.65234375 292.520507812 151.73828125 587.9296875 151.73828125 635.78125 c 4
 151.73828125 659.21875 143.92578125 688.02734375 83.3798828125 690.46875 c 4
 69.7080078125 690.95703125 65.3134765625 697.79296875 65.3134765625 704.140625 c 4
 65.3134765625 711.953125 72.1494140625 715.859375 88.26171875 715.859375 c 4
 121.46484375 715.859375 228.3984375 710 245 710 c 4
 287.96875 710 318.2421875 716.8359375 353.3984375 716.8359375 c 4
 461.30859375 716.8359375 536.991210938 662.63671875 536.991210938 550.8203125 c 4
 536.991210938 469.766601562 491.581054688 381.875976562 409.55078125 347.208007812 c 4
 380.7421875 335.000976562 345.5859375 330.606445312 303.59375 330.606445312 c 4
 266.484375 330.606445312 235.234375 338.418945312 235.234375 347.208007812 c 4
 235.234375 348.672851562 235.234375 349.161132812 238.1640625 349.161132812 c 4
 243.046875 349.161132812 256.23046875 347.696289062 292.8515625 347.696289062 c 4
 358.28125 347.696289062 457.890625 415.079101562 457.890625 540.079101562 c 4
 457.890625 611.85546875 415.8984375 641.15234375 386.6015625 659.70703125 c 4
 356.328125 678.75 321.171875 683.6328125 294.31640625 683.6328125 c 4
 243.046875 683.6328125 248.41796875 677.7734375 244.51171875 668.0078125 c 4
 226.4453125 621.1328125 226.4453125 603.06640625 172.734375 160.197265625 c 4xec
 171.26953125 147.990234375 162.48046875 90.373046875 162.48046875 80.607421875 c 4
 162.48046875 18.107421875 253.7890625 29.826171875 253.7890625 10.294921875 c 4
 253.7890625 -0.935546875 246.46484375 -4.841796875 235.234375 -4.841796875 c 4
 214.7265625 -4.841796875 183.4765625 2.482421875 131.71875 2.482421875 c 4
 118.53515625 2.482421875 60.4306640625 -3.865234375 51.1533203125 -3.865234375 c 4
 35.5283203125 -3.865234375 19.4150390625 0.529296875 19.4150390625 10.294921875 c 4xf4
20 10 m 0
 20 38 69 4 87 78 c 0
 91 97 103 200 114 292 c 0
 114 292 152 588 152 636 c 0
 152 659 144 688 83 690 c 0
 69 690 65 698 65 704 c 0
 65 712 72 716 88 716 c 0
 121 716 228 710 245 710 c 0
 288 710 319 717 354 717 c 0
 462 717 537 663 537 551 c 0
 537 470 492 382 410 347 c 0
 381 335 346 331 304 331 c 0
 267 331 235 338 235 347 c 0
 235 348 235 349 238 349 c 0
 243 349 256 348 293 348 c 0
 358 348 458 415 458 540 c 0
 458 612 416 641 387 660 c 0
 357 679 321 684 294 684 c 0
 243 684 249 678 245 668 c 0
 227 621 227 603 173 160 c 0
 172 148 163 91 163 81 c 0
 163 19 254 30 254 10 c 0
 254 -1 246 -5 235 -5 c 1
 214 6.0244140625 184 1.71484375 132 2 c 1
 119 2 60 -4 51 -4 c 0
 35 -4 20 0 20 10 c 0
EndSplineSet
Fore
SplineSet
19 10 m 0
 19 22 30 23 44 26 c 0
 59 29 78 39 87 78 c 0
 91 97 103 200 114 292 c 0
 114 292 152 588 152 636 c 0
 152 659 144 688 83 690 c 0
 69 690 65 698 65 704 c 0
 65 712 72 716 88 716 c 0
 121 716 228 710 245 710 c 0
 288 710 318 717 353 717 c 0
 461 717 537 663 537 551 c 0
 537 470 492 382 410 347 c 0
 381 335 346 331 304 331 c 0
 267 331 235 338 235 347 c 0
 235 348 235 349 238 349 c 0
 243 349 256 348 293 348 c 0
 358 348 458 415 458 540 c 0
 458 612 416 641 387 660 c 0
 357 679 321 684 294 684 c 0
 283 684 274 684 268 683 c 0
 251 682 246 683 235 638 c 0
 230 618 226 589 218 529 c 0
 209 459 196 348 173 160 c 0
 172 148 162 91 162 81 c 0
 162 19 254 30 254 10 c 0
 254 -1 246 -5 235 -5 c 0
 214 -5 184 2 132 2 c 0
 119 2 60 -4 51 -4 c 0
 35 -4 19 0 19 10 c 0
EndSplineSet
Position2: "'cpsp' Capital Spacing in Latin lookup 2 subtable" dx=20 dy=0 dh=40 dv=0
EndChar

StartChar: Q
Encoding: 81 81 43
Width: 807
VWidth: -2
Flags: HW
PickledData: "(dp1
Vspacing_anchors_slanted
p2
I00
s."
HStem: -200 65<588.195 708.844> -10 24<418.051 477.351> 688 29<341.649 505.415>
VStem: 39 85<196.733 434.976> 39 30<-113.347 -3.68559> 687 86<241.859 498.01>
AnchorPoint: "r;x" 807 415 basechar 0
AnchorPoint: "r;t" 802 562 basechar 0
AnchorPoint: "r;hi" 724 732 basechar 0
AnchorPoint: "r;o" 802 220 basechar 0
AnchorPoint: "r;bl" 762 20 basechar 0
AnchorPoint: "l;x" 0 415 basechar 0
AnchorPoint: "l;t" 20 562 basechar 0
AnchorPoint: "l;hi" 98 732 basechar 0
AnchorPoint: "l;o" 10 220 basechar 0
AnchorPoint: "l;bl" 24 20 basechar 0
AnchorPoint: "l;lo" 29 -205 basechar 0
AnchorPoint: "r;lo" 771 -205 basechar 0
LayerCount: 3
Fore
SplineSet
39 -40 m 0xec
 39 69 118 74 118 88 c 0
 118 107 39 160 39 300 c 0xf4
 39 440 120 717 443 717 c 0
 576 717 634 659 650 646 c 0
 670 630 687 615 702 595 c 0
 755 523 773 433 773 367 c 0
 773 165 627 9 470 -10 c 0
 418 -16 416 -21 416 -28 c 0
 416 -31 594 -135 672 -135 c 0
 737 -135 748 -86 763 -86 c 0
 769 -86 771 -90 771 -96 c 0
 771 -129 709 -200 646 -200 c 0
 478 -200 212 37 146 37 c 0
 103 37 69 -10 69 -52 c 0
 69 -103 92 -120 92 -133 c 0
 92 -138 88 -146 80 -146 c 0
 63 -146 39 -131 39 -40 c 0xec
124 326 m 0
 124 167 209 14 404 14 c 0
 595 14 687 217 687 389 c 0
 687 453 674 513 649 556 c 0
 616 614 534 688 425 688 c 0
 265 688 124 560 124 326 c 0
EndSplineSet
Position2: "'cpsp' Capital Spacing in Latin lookup 2 subtable" dx=20 dy=0 dh=40 dv=0
EndChar

StartChar: R
Encoding: 82 82 44
Width: 637
VWidth: 997
Flags: HMW
PickledData: "(dp1
Vspacing_anchors_slanted
p2
I00
s."
HStem: 3 37<72 152> 350 36<209.286 314.871> 678 30<64.1662 139.822 257.753 391.166>
VStem: 468 87<476.59 617.652>
DStem2: 133 428 189 262 0.124035 0.992278<-234.284 -67.3255 -28.9986 0 196.967 233.934>
AnchorPoint: "l;o" 20 220 basechar 0
AnchorPoint: "l;hi" 44 732 basechar 0
AnchorPoint: "l;t" 39 562 basechar 0
AnchorPoint: "l;x" 29 415 basechar 0
AnchorPoint: "cedilla" 299 -79 basechar 0
AnchorPoint: "top" 326 723 basechar 0
AnchorPoint: "l;bl" 0 20 basechar 0
AnchorPoint: "r;bl" 637 20 basechar 0
AnchorPoint: "r;o" 549 220 basechar 0
AnchorPoint: "r;hi" 547 732 basechar 0
AnchorPoint: "r;t" 591 562 basechar 0
AnchorPoint: "r;x" 557 415 basechar 0
LayerCount: 3
Fore
SplineSet
20 9 m 0
 20 32 45 25 72 40 c 0
 97 54 90 60 133 428 c 0
 141 493 158 611 158 624 c 0
 158 665 123 676 96 678 c 0
 78 679 64 680 64 690 c 0
 64 705 73 708 94 708 c 0
 115 708 150 702 175 702 c 0
 231 702 260 710 340 710 c 0
 364 710 386 710 407 708 c 0
 501 700 555 632 555 557 c 0
 555 485 506 407 396 369 c 0
 389 367 387 360 387 358 c 0
 387 338 479 123 516 74 c 0
 543 37 565 26 598 26 c 0
 608 26 617 22 617 15 c 0
 617 6 602 -8 547 -8 c 0
 466 -8 451 9 412 96 c 0
 341 255 322 350 296 350 c 0
 290 350 256 349 250 349 c 0
 235 349 226 350 215 350 c 0
 200 350 196 333 189 262 c 2
 175 121 l 2
 175 115 172 91 172 86 c 0
 172 18 261 37 261 10 c 0
 261 0 246 -3 227 -3 c 0
 199 -3 163 3 152 3 c 0
 104 3 58 -6 47 -6 c 0
 37 -6 20 -2 20 9 c 0
208 412 m 0
 208 389 224 386 239 386 c 2
 253 386 l 2
 338 386 355 389 373 393 c 0
 447 410 468 503 468 546 c 0
 468 610 421 676 325 676 c 0
 273 676 237 669 233 614 c 0
 226 514 208 426 208 412 c 0
EndSplineSet
Position2: "'cpsp' Capital Spacing in Latin lookup 2 subtable" dx=20 dy=0 dh=40 dv=0
EndChar

StartChar: S
Encoding: 83 83 45
Width: 481
VWidth: 0
Flags: HW
PickledData: "(dp1
Vspacing_anchors_slanted
p2
I00
s."
HStem: -14 36<140.25 306.656> 677 20G<423.5 431> 682 34<183.281 318.385>
VStem: 20 27<115.734 156.685> 83 68<517.979 644.995> 366 70<84.0893 201.601>
AnchorPoint: "cedilla" 218 -79 basechar 0
AnchorPoint: "top" 267 723 basechar 0
AnchorPoint: "l;bl" 0 20 basechar 0
AnchorPoint: "l;o" 20 220 basechar 0
AnchorPoint: "l;hi" 88 732 basechar 0
AnchorPoint: "l;t" 44 562 basechar 0
AnchorPoint: "l;x" 59 415 basechar 0
AnchorPoint: "r;bl" 437 20 basechar 0
AnchorPoint: "r;o" 481 220 basechar 0
AnchorPoint: "r;hi" 476 732 basechar 0
AnchorPoint: "r;t" 476 562 basechar 0
AnchorPoint: "r;x" 461 415 basechar 0
LayerCount: 3
Fore
SplineSet
20 134 m 0xbc
 20 139 22 157 36 157 c 0
 42 157 45 152 47 146 c 0
 66 85 120 22 224 22 c 0
 345 22 366 99 366 133 c 0
 366 181 339 217 295 262 c 1
 178 378 l 1
 138 419 83 483 83 555 c 0
 83 638 118 667 149 688 c 0
 172 704 207 716 251 716 c 0xbc
 311 716 379 681 397 681 c 0
 401 681 419 697 428 697 c 0xdc
 434 697 441 693 441 676 c 0
 441 665 440 654 440 641 c 0
 440 636 440 630 440 624 c 0
 440 598 452 551 452 538 c 0
 452 525 442 518 436 518 c 0
 409 518 429 569 362 634 c 0
 328 667 289 682 243 682 c 0
 162 682 151 623 151 593 c 0
 151 495 253 433 345 337 c 0
 397 283 436 241 436 158 c 0
 436 100 391 -14 201 -14 c 0
 157 -14 90 -11 57 8 c 0
 37 19 20 102 20 134 c 0xbc
EndSplineSet
Position2: "'cpsp' Capital Spacing in Latin lookup 2 subtable" dx=20 dy=0 dh=40 dv=0
EndChar

StartChar: T
Encoding: 84 84 46
Width: 692
VWidth: 2
Flags: HMW
PickledData: "(dp1
Vspacing_anchors_slanted
p2
I00
s."
HStem: 4 26<178.385 242.249> 654 52<100.327 329.988 406.375 624.029>
VStem: 632 46<553.637 641.662>
DStem2: 261 93 342 86 0.125603 0.992081<-38.0721 3.22927 458.307 560.669>
AnchorPoint: "r;s;AE" 447 -73 basechar 0
AnchorPoint: "top" 373 723 basechar 0
AnchorPoint: "cedilla" 283 -79 basechar 0
AnchorPoint: "l;bl" 98 20 basechar 0
AnchorPoint: "l;o" 98 220 basechar 0
AnchorPoint: "l;hi" 29 732 basechar 0
AnchorPoint: "l;t" 0 562 basechar 0
AnchorPoint: "l;x" 98 415 basechar 0
AnchorPoint: "r;bl" 521 20 basechar 0
AnchorPoint: "r;o" 561 220 basechar 0
AnchorPoint: "r;hi" 692 732 basechar 0
AnchorPoint: "r;t" 692 562 basechar 0
AnchorPoint: "r;x" 590 415 basechar 0
LayerCount: 3
Back
SplineSet
29 573 m 4xd8
 29 604 41 602 61 680 c 4
 67 702 77 706 107 706 c 4
 177 706 144 703 365 703 c 4
 535 703 612 707 646 707 c 4
 674 707 674 696 674 687 c 4
 674 629 678 595 678 576 c 4
 678 555 668 553 659 553 c 4
 643 553 652 562 632 617 c 4
 621 648 607 650 483 650 c 6
 438 650 l 6
 400 650 406 643 395 538 c 4xd8
 372 317 342 137 342 86 c 4
 342 5 428 45 428 13 c 4
 428 1 419 -2 403 -2 c 4
 383 -2 340 4 296 4 c 4
 264 4 228 -1 210 -1 c 4
 193 -1 178 2 178 13 c 4
 178 42 226 15 250 52 c 4
 257 63 259 78 261 93 c 4xe8
 275 198 330 628 330 638 c 4
 330 654 314 654 259 654 c 4
 120 654 108 643 87 620 c 4
 56 584 67 551 42 551 c 4
 32 551 29 562 29 573 c 4xd8
EndSplineSet
Fore
SplineSet
29 573 m 0
 29 604 41 602 61 680 c 0
 67 702 77 706 107 706 c 0
 177 706 144 703 365 703 c 0
 535 703 612 707 646 707 c 0
 674 707 674 696 674 687 c 0
 674 629 678 595 678 576 c 0
 678 555 668 553 659 553 c 0
 643 553 652 562 632 617 c 0
 621 648 607 650 483 650 c 2
 438 650 l 2
 400 650 406 643 395 538 c 0
 372 317 342 137 342 86 c 0
 342 5 428 45 428 13 c 0
 428 1 419 -2 403 -2 c 0
 383 -2 340 4 296 4 c 0
 264 4 228 -1 210 -1 c 0
 193 -1 178 2 178 13 c 0
 178 29 192 28 209 30 c 0
 224 32 239 35 250 52 c 0
 257 63 259 78 261 93 c 0
 275 198 330 628 330 638 c 0
 330 654 314 654 259 654 c 0
 120 654 108 643 87 620 c 0
 56 584 67 551 42 551 c 0
 32 551 29 562 29 573 c 0
EndSplineSet
AlternateSubs2: "'aalt' Access All Alternates lookup 0 subtable" T.001
AlternateSubs2: "'aalt' Access All Alternates in Latin lookup 0 subtable" T.001
Position2: "'cpsp' Capital Spacing in Latin lookup 2 subtable" dx=20 dy=0 dh=40 dv=0
Substitution2: "'salt' Stylistic Alternatives in Latin lookup 12 subtable" T.001
EndChar

StartChar: U
Encoding: 85 85 47
Width: 827
VWidth: 2
Flags: HW
PickledData: "(dp1
Vspacing_anchors_slanted
p2
I00
s."
HStem: -19 44<256.295 485.847> 688 20G<54.5 68.5 244 269 621 636 779.5 794>
VStem: 94 78<104.815 441.962> 131 82<429.86 664.601> 693 114<589.5 695>
AnchorPoint: "top" 451 723 basechar 0
AnchorPoint: "l;bl" 34 20 basechar 0
AnchorPoint: "l;o" 0 220 basechar 0
AnchorPoint: "l;hi" 24 732 basechar 0
AnchorPoint: "l;t" 24 562 basechar 0
AnchorPoint: "l;x" 15 415 basechar 0
AnchorPoint: "r;bl" 709 20 basechar 0
AnchorPoint: "r;o" 763 220 basechar 0
AnchorPoint: "r;hi" 827 732 basechar 0
AnchorPoint: "r;t" 817 562 basechar 0
AnchorPoint: "r;x" 788 415 basechar 0
LayerCount: 3
Fore
SplineSet
44 694 m 0xd8
 44 700 48 708 61 708 c 0
 76 708 102 702 175 702 c 0
 197 702 223 708 265 708 c 0
 273 708 285 705 285 694 c 0
 285 665 220 694 213 619 c 0xd8
 198 465 172 295 172 192 c 0
 172 136 197 25 361 25 c 0
 511 25 585 98 620 184 c 0
 653 267 693 562 693 617 c 0
 693 688 606 661 606 692 c 0
 606 698 612 705 630 705 c 0
 642 705 666 701 685 701 c 0
 727 701 770 705 789 705 c 0
 799 705 807 698 807 692 c 0
 807 672 760 688 743 631 c 0
 735 605 702 272 657 164 c 0
 625 87 582 56 515 15 c 0
 480 -6 398 -19 364 -19 c 0
 242 -19 184 6 141 50 c 0
 98 93 94 138 94 215 c 0xe8
 94 243 131 599 131 626 c 0
 131 697 44 662 44 694 c 0xd8
EndSplineSet
Position2: "'cpsp' Capital Spacing in Latin lookup 2 subtable" dx=20 dy=0 dh=40 dv=0
EndChar

StartChar: V
Encoding: 86 86 48
Width: 780
VWidth: 0
Flags: HMW
PickledData: "(dp1
Vspacing_anchors_slanted
p2
I00
s."
HStem: -21 128<293.5 351> 660 45<21.1699 95.3438 688.268 755.284>
AnchorPoint: "r;s;AE" 447 -73 basechar 0
AnchorPoint: "l;bl" 107 20 basechar 0
AnchorPoint: "l;o" 78 220 basechar 0
AnchorPoint: "l;hi" 0 732 basechar 0
AnchorPoint: "l;t" 29 562 basechar 0
AnchorPoint: "l;x" 49 415 basechar 0
AnchorPoint: "r;bl" 511 20 basechar 0
AnchorPoint: "r;o" 599 220 basechar 0
AnchorPoint: "r;hi" 780 732 basechar 0
AnchorPoint: "r;t" 721 562 basechar 0
AnchorPoint: "r;x" 667 415 basechar 0
LayerCount: 3
Fore
SplineSet
20 690 m 0
 20 701 31 705 56 705 c 0
 78 705 108 701 136 701 c 0
 156 701 193 705 214 705 c 0
 241 705 250 700 250 692 c 0
 250 665 196 696 196 622 c 0
 196 599 329 107 346 107 c 0
 356 107 624 594 624 638 c 0
 624 685 545 665 545 693 c 0
 545 702 547 707 565 707 c 0
 579 707 642 702 675 702 c 0
 691 702 687 704 726 704 c 0
 746 704 760 701 760 693 c 0
 760 671 739 687 709 662 c 0
 663 624 594 451 516 319 c 16
 445 198 347 21 312 -16 c 0
 308 -20 303 -21 301 -21 c 0
 286 -21 283 -2 272 39 c 2
 135 535 l 2
 120 590 108 638 73 660 c 0
 46 677 20 662 20 690 c 0
EndSplineSet
Position2: "'cpsp' Capital Spacing in Latin lookup 2 subtable" dx=20 dy=0 dh=40 dv=0
EndChar

StartChar: W
Encoding: 87 87 49
Width: 1053
VWidth: 0
Flags: HMW
PickledData: "(dp1
Vspacing_anchors_slanted
p2
I00
s."
HStem: -25 126<271.5 319 555.5 613.5> 669 39<178.154 236.058 299.228 364.561 677.867 742.268>
AnchorPoint: "r;s;AE" 711 -73 basechar 0
AnchorPoint: "r;x" 940 415 basechar 0
AnchorPoint: "r;t" 994 562 basechar 0
AnchorPoint: "r;hi" 1053 732 basechar 0
AnchorPoint: "r;o" 872 220 basechar 0
AnchorPoint: "r;bl" 784 20 basechar 0
AnchorPoint: "l;x" 49 415 basechar 0
AnchorPoint: "l;t" 29 562 basechar 0
AnchorPoint: "l;hi" 0 732 basechar 0
AnchorPoint: "l;o" 78 220 basechar 0
AnchorPoint: "l;bl" 107 20 basechar 0
AnchorPoint: "top" 530 723 basechar 0
LayerCount: 3
Fore
SplineSet
510 436 m 0
 526 436 612 628 612 640 c 0
 612 690 545 674 545 698 c 0
 545 705 553 708 571 708 c 0
 585 708 616 705 649 705 c 0
 665 705 674 708 713 708 c 0
 733 708 743 702 743 694 c 0
 743 672 723 691 693 666 c 0
 667 644 636 583 603 522 c 0
 526 382 526 389 526 371 c 0
 526 349 599 101 609 101 c 0
 618 101 890 600 890 643 c 0
 890 695 816 668 816 697 c 0
 816 706 825 710 837 710 c 0
 851 710 900 706 933 706 c 0
 949 706 990 710 999 710 c 0
 1019 710 1033 703 1033 695 c 0
 1033 672 1003 689 973 664 c 0
 927 626 858 451 780 319 c 0
 709 198 629 46 586 -15 c 0
 583 -20 577 -25 565 -25 c 0
 546 -25 548 -2 537 39 c 2
 478 263 l 2
 475 275 473 283 470 283 c 0
 466 283 308 9 289 -14 c 0
 286 -17 283 -21 277 -21 c 0
 266 -21 262 -14 249 39 c 0
 91 673 104 645 69 667 c 0
 42 684 20 680 20 700 c 0
 20 708 31 710 40 710 c 0
 54 710 86 703 132 703 c 0
 152 703 190 707 211 707 c 0
 238 707 239 700 239 695 c 0
 239 678 205 689 187 671 c 0
 179 663 177 650 177 628 c 0
 177 605 300 103 317 103 c 0
 321 103 451 311 451 333 c 0
 451 353 450 350 446 366 c 2
 403 536 l 2
 389 591 380 647 345 669 c 0
 318 686 294 682 294 698 c 0
 294 704 298 708 323 708 c 0
 345 708 372 703 400 703 c 0
 420 703 458 707 479 707 c 0
 506 707 510 703 510 695 c 0
 510 668 455 701 455 640 c 0
 455 632 477 549 500 463 c 0
 504 446 505 436 510 436 c 0
EndSplineSet
Layer: 2
SplineSet
20 700 m 4
 20 708 31 710 40 710 c 4
 54 710 86 703 132 703 c 4
 152 703 190 707 211 707 c 4
 238 707 239 700 239 695 c 4
 239 678 205 689 187 671 c 4
 179 663 177 650 177 628 c 4
 177 605 300 103 317 103 c 4
 321 103 451 311 451 333 c 4
 451 353 450 350 446 366 c 6
 403 536 l 6
 389 591 380 647 345 669 c 4
 318 686 294 682 294 698 c 4
 294 704 298 708 323 708 c 4
 345 708 372 703 400 703 c 4
 420 703 458 707 479 707 c 4
 506 707 510 703 510 695 c 4
 510 668 455 701 455 640 c 4
 455 632 477 549 500 463 c 4
 504 446 505 436 510 436 c 4
 516 436 524 450 533 467 c 4
 560 520 612 624 612 640 c 4
 612 690 545 674 545 698 c 4
 545 705 553 708 571 708 c 4
 585 708 616 705 649 705 c 4
 665 705 674 708 713 708 c 4
 733 708 743 702 743 694 c 4
 743 672 723 691 693 666 c 4
 667 644 636 583 603 522 c 4
 526 382 526 389 526 371 c 4
 526 349 599 101 609 101 c 4
 618 101 890 600 890 643 c 4
 890 695 816 668 816 697 c 4
 816 706 825 710 837 710 c 4
 851 710 900 706 933 706 c 4
 949 706 990 710 999 710 c 4
 1019 710 1033 703 1033 695 c 4
 1033 672 1003 689 973 664 c 4
 927 626 858 451 780 319 c 4
 709 198 629 46 586 -15 c 4
 583 -20 577 -25 565 -25 c 4
 546 -25 548 -2 537 39 c 6
 478 263 l 6
 475 275 473 283 470 283 c 4
 469 283 468 280 467 279 c 4
 284 -22 291 -21 277 -21 c 4
 262 -21 259 -2 249 39 c 4
 91 673 104 645 69 667 c 4
 42 684 20 680 20 700 c 4
EndSplineSet
Position2: "'cpsp' Capital Spacing in Latin lookup 2 subtable" dx=20 dy=0 dh=40 dv=0
EndChar

StartChar: X
Encoding: 88 88 50
Width: 737
VWidth: 0
Flags: HMW
PickledData: "(dp1
Vspacing_anchors_slanted
p2
I00
s."
HStem: -7 40<190.333 264.971 597.488 709.343> 661 58<86.4607 200.468> 684 32<647.666 706.854>
VStem: 24 37<530.406 630.727>
DStem2: 273 263 240 156 0.606449 0.795122<-212.086 93.5957 208.68 482.927>
AnchorPoint: "l;bl" 0 20 basechar 0
AnchorPoint: "l;o" 39 220 basechar 0
AnchorPoint: "l;hi" 20 732 basechar 0
AnchorPoint: "l;t" 0 562 basechar 0
AnchorPoint: "l;x" 20 415 basechar 0
AnchorPoint: "r;bl" 737 20 basechar 0
AnchorPoint: "r;o" 678 220 basechar 0
AnchorPoint: "r;hi" 732 732 basechar 0
AnchorPoint: "r;t" 698 562 basechar 0
AnchorPoint: "r;x" 668 415 basechar 0
LayerCount: 3
Fore
SplineSet
20 10 m 0xb0
 20 40 49 8 125 84 c 0
 167 126 214 189 273 263 c 0
 345 354 345 353 345 358 c 0
 345 361 321 414 296 477 c 0
 260 569 212 645 178 653 c 0
 175 654 162 661 141 661 c 0
 88 661 61 616 61 577 c 0
 61 556 71 534 86 525 c 0
 96 519 113 521 113 500 c 0
 113 488 100 481 86 481 c 0
 49 481 24 538 24 591 c 0
 24 697 117 719 158 719 c 0xd0
 249 719 289 670 337 570 c 0
 382 476 389 430 398 430 c 0
 401 430 405 434 417 450 c 2
 482 537 l 2
 532 603 554 637 554 657 c 0
 554 696 495 679 495 701 c 0
 495 711 502 716 512 716 c 0
 555 716 558 713 593 713 c 0
 629 713 656 716 676 716 c 0
 696 716 707 710 707 698 c 0
 707 692 703 686 693 684 c 0
 646 676 636 672 510 510 c 0
 417 390 416 395 416 390 c 0
 416 376 485 218 537 127 c 0
 565 78 594 33 661 33 c 0
 693 33 697 48 717 48 c 0
 725 48 727 41 727 37 c 0
 727 11 674 -7 629 -7 c 0
 515 -7 494 21 456 106 c 0
 375 289 371 313 362 313 c 0
 358 313 348 300 333 280 c 2
 240 156 l 2
 210 115 188 83 188 60 c 0
 188 51 196 31 248 27 c 0
 255 27 265 24 265 12 c 0
 265 0 256 -2 237 -2 c 0
 219 -2 137 3 128 3 c 0
 110 3 69 -7 48 -7 c 0
 32 -7 20 -4 20 10 c 0xb0
EndSplineSet
Position2: "'cpsp' Capital Spacing in Latin lookup 2 subtable" dx=20 dy=0 dh=40 dv=0
EndChar

StartChar: Y
Encoding: 89 89 51
Width: 690
VWidth: 2
Flags: HMW
PickledData: "(dp1
Vspacing_anchors_slanted
p2
I00
s."
HStem: -7 34<189.509 246.373> 680 34<20.235 94.3715>
DStem2: 257 89 337 79 0.125754 0.992061<-32.1074 0.139727 169.81 261.327>
AnchorPoint: "top" 366 723 basechar 0
AnchorPoint: "l;bl" 88 20 basechar 0
AnchorPoint: "l;o" 98 220 basechar 0
AnchorPoint: "l;hi" 0 732 basechar 0
AnchorPoint: "l;t" 39 562 basechar 0
AnchorPoint: "l;x" 88 415 basechar 0
AnchorPoint: "r;bl" 510 20 basechar 0
AnchorPoint: "r;o" 544 220 basechar 0
AnchorPoint: "r;hi" 690 732 basechar 0
AnchorPoint: "r;t" 651 562 basechar 0
AnchorPoint: "r;x" 612 415 basechar 0
LayerCount: 3
Fore
SplineSet
20 700 m 0
 20 707 26 714 53 714 c 0
 66 714 129 710 146 710 c 0
 169 710 218 714 235 714 c 0
 261 714 265 706 265 699 c 0
 265 678 215 683 215 657 c 0
 215 627 244 566 259 540 c 0
 298 468 341 359 348 359 c 0
 351 359 534 602 534 654 c 0
 534 696 463 665 463 698 c 0
 463 709 470 712 489 712 c 0
 500 712 526 710 542 710 c 0
 587 710 607 713 645 713 c 0
 670 713 671 705 671 698 c 0
 671 683 629 682 607 659 c 0
 564 614 432 405 396 365 c 0
 371 337 361 321 353 248 c 0
 341 133 337 85 337 79 c 0
 337 62 345 52 359 40 c 0
 391 14 432 30 432 8 c 0
 432 0 431 -6 413 -6 c 0
 399 -6 331 1 300 1 c 0
 254 1 240 -7 216 -7 c 0
 195 -7 189 0 189 6 c 0
 189 24 209 22 227 27 c 0
 247 33 252 50 257 89 c 2
 257 89 284 273 284 302 c 0
 284 331 261 365 155 570 c 0
 112 654 89 673 67 680 c 0
 55 684 20 677 20 700 c 0
EndSplineSet
AlternateSubs2: "'aalt' Access All Alternates lookup 0 subtable" Y.001
AlternateSubs2: "'aalt' Access All Alternates in Latin lookup 0 subtable" Y.001
Position2: "'cpsp' Capital Spacing in Latin lookup 2 subtable" dx=20 dy=0 dh=40 dv=0
Substitution2: "'salt' Stylistic Alternatives in Latin lookup 12 subtable" Y.001
EndChar

StartChar: Z
Encoding: 90 90 52
Width: 587
VWidth: 0
Flags: HMW
PickledData: "(dp1
Vspacing_anchors_slanted
p2
I00
s."
HStem: -4 72<132.01 482.117> 645 70<154.535 424.44>
VStem: 57 32<501.529 590.997> 510 37<69.222 142>
AnchorPoint: "top" 331 723 basechar 0
AnchorPoint: "l;bl" 0 20 basechar 0
AnchorPoint: "l;o" 39 220 basechar 0
AnchorPoint: "l;hi" 49 732 basechar 0
AnchorPoint: "l;t" 20 562 basechar 0
AnchorPoint: "l;x" 29 415 basechar 0
AnchorPoint: "r;bl" 533 20 basechar 0
AnchorPoint: "r;o" 553 220 basechar 0
AnchorPoint: "r;hi" 587 732 basechar 0
AnchorPoint: "r;t" 567 562 basechar 0
AnchorPoint: "r;x" 548 415 basechar 0
LayerCount: 3
Fore
SplineSet
20 4 m 0
 20 20 45 44 112 133 c 0
 229 289 469 608 469 632 c 0
 469 635 456 636 436 636 c 0
 420 636 414 635 383 635 c 0
 345 635 298 645 271 645 c 0
 239 645 204 643 178 637 c 0
 123 624 89 583 89 547 c 0
 89 484 125 505 125 480 c 0
 125 471 115 464 102 464 c 0
 64 464 57 517 57 537 c 0
 57 550 62 579 72 604 c 0
 82 630 101 648 125 671 c 0
 171 715 216 715 281 715 c 0
 385 715 442 701 496 701 c 0
 512 701 527 707 545 707 c 0
 558 707 567 707 567 691 c 0
 567 668 132 99 132 79 c 0
 132 68 146 68 205 68 c 2
 248 68 l 2
 346 68 393 62 435 62 c 0
 475 62 510 67 510 89 c 0
 510 106 454 101 454 139 c 0
 454 169 482 185 502 185 c 0
 537 185 547 148 547 136 c 0
 547 79 520 49 488 23 c 0
 484 20 462 -10 370 -10 c 0
 213 -10 190 -4 155 -4 c 0
 108 -4 100 -9 46 -9 c 0
 36 -9 20 -7 20 4 c 0
EndSplineSet
Position2: "'cpsp' Capital Spacing in Latin lookup 2 subtable" dx=20 dy=0 dh=40 dv=0
EndChar

StartChar: period
Encoding: 46 46 53
Width: 222
VWidth: 0
Flags: HW
PickledData: "(dp1
Vspacing_anchors_slanted
p2
I00
s."
HStem: -15 128<89.6878 138.673>
VStem: 49 124<18.357 74.0816>
AnchorPoint: "l;bl" 0 20 basechar 0
AnchorPoint: "l;o" 24 220 basechar 0
AnchorPoint: "r;bl" 222 20 basechar 0
AnchorPoint: "r;o" 198 220 basechar 0
LayerCount: 3
Fore
SplineSet
49 46 m 0
 49 55 66 70 82 84 c 0
 95 96 110 113 123 113 c 0
 132 113 140 101 152 83 c 0
 160 72 173 67 173 46 c 0
 173 33 157 24 142 10 c 0
 130 -2 120 -15 106 -15 c 0
 90 -15 86 2 73 15 c 0
 58 30 49 36 49 46 c 0
EndSplineSet
AlternateSubs2: "'aalt' Access All Alternates lookup 0 subtable" period.sub period.sup period.denom period.numer
AlternateSubs2: "'aalt' Access All Alternates in Latin lookup 0 subtable" period.sub period.sup period.denom period.numer
Substitution2: "'subs' Subscript in Latin lookup 8 subtable" period.sub
Substitution2: "'sups' Superscript in Latin lookup 7 subtable" period.sup
Substitution2: "'dnom' Denominators in Latin lookup 4 subtable" period.denom
Substitution2: "'numr' Numerators in Latin lookup 3 subtable" period.numer
Substitution2: "denominators subtable" period.denom
Substitution2: "numerators subtable" period.numer
EndChar

StartChar: comma
Encoding: 44 44 54
Width: 226
VWidth: 0
Flags: HW
PickledData: "(dp1
Vspacing_anchors_slanted
p2
I00
s."
HStem: -166 284<57 114>
VStem: 112 60<-71.4297 20.6031>
AnchorPoint: "r;o" 196 220 basechar 0
AnchorPoint: "r;lo" 177 -205 basechar 0
AnchorPoint: "r;bl" 226 20 basechar 0
AnchorPoint: "l;o" 27 220 basechar 0
AnchorPoint: "l;lo" 10 -205 basechar 0
AnchorPoint: "l;bl" 0 20 basechar 0
LayerCount: 3
Fore
SplineSet
42 -153 m 0
 42 -140 65 -128 75 -117 c 0
 94 -96 112 -64 112 -26 c 0
 112 28 57 35 57 56 c 0
 57 59 96 118 114 118 c 0
 134 118 172 87 172 0 c 0
 172 -73 87 -166 57 -166 c 0
 50 -166 42 -161 42 -153 c 0
EndSplineSet
AlternateSubs2: "'aalt' Access All Alternates lookup 0 subtable" comma.sub comma.sup comma.denom comma.numer
AlternateSubs2: "'aalt' Access All Alternates in Latin lookup 0 subtable" comma.sub comma.sup comma.denom comma.numer
Substitution2: "'subs' Subscript in Latin lookup 8 subtable" comma.sub
Substitution2: "'sups' Superscript in Latin lookup 7 subtable" comma.sup
Substitution2: "'dnom' Denominators in Latin lookup 4 subtable" comma.denom
Substitution2: "'numr' Numerators in Latin lookup 3 subtable" comma.numer
Substitution2: "denominators subtable" comma.denom
Substitution2: "numerators subtable" comma.numer
EndChar

StartChar: hyphen
Encoding: 45 45 55
Width: 282
VWidth: 0
Flags: HW
PickledData: "(dp1
Vspacing_anchors_slanted
p2
I00
s."
HStem: 152 116
VStem: 39 204<185 246>
AnchorPoint: "l;o" 0 220 basechar 0
AnchorPoint: "r;o" 282 220 basechar 0
LayerCount: 3
Fore
SplineSet
39 185 m 0
 39 200 43 213 83 225 c 0
 193 258 198 268 221 268 c 0
 231 268 243 264 243 246 c 0
 243 208 235 213 168 190 c 0
 90 163 77 152 56 152 c 0
 43 152 39 164 39 185 c 0
EndSplineSet
AlternateSubs2: "'aalt' Access All Alternates lookup 0 subtable" hyphen.uppercase
AlternateSubs2: "'aalt' Access All Alternates in Latin lookup 0 subtable" hyphen.uppercase
Substitution2: "'case' Case-Sensitive Forms in Latin lookup 11 subtable" hyphen.uppercase
EndChar

StartChar: colon
Encoding: 58 58 56
Width: 298
VWidth: 0
Flags: HW
PickledData: "(dp1
Vspacing_anchors_slanted
p2
I00
s."
HStem: -14 21G<127 136> 310 119<139.774 186.915>
VStem: 70 125<23.9541 77.4871> 104 119<343.629 394.361>
AnchorPoint: "l;bl" 0 20 basechar 0
AnchorPoint: "l;o" 32 220 basechar 0
AnchorPoint: "l;x" 42 415 basechar 0
AnchorPoint: "r;bl" 255 20 basechar 0
AnchorPoint: "r;o" 270 220 basechar 0
AnchorPoint: "r;x" 298 415 basechar 0
LayerCount: 3
Fore
SplineSet
70 50 m 0xe0
 70 58 94 80 98 83 c 0
 120 100 130 116 146 116 c 0
 154 116 161 102 177 83 c 0
 186 73 195 64 195 57 c 0
 195 45 180 30 165 16 c 0
 153 4 139 -14 133 -14 c 0
 121 -14 113 -2 102 11 c 0
 89 27 70 40 70 50 c 0xe0
104 368 m 0xd0
 104 379 161 429 172 429 c 0
 182 429 223 378 223 374 c 0
 223 354 162 310 154 310 c 0
 147 310 137 328 128 337 c 0
 114 351 104 359 104 368 c 0xd0
EndSplineSet
EndChar

StartChar: semicolon
Encoding: 59 59 57
Width: 298
VWidth: 0
Flags: HW
PickledData: "(dp1
Vspacing_anchors_slanted
p2
I00
s."
HStem: 411 20G<165 172>
VStem: 100 120<339.161 391.731> 136 59<-71.4297 20.6031>
AnchorPoint: "r;x" 298 415 basechar 0
AnchorPoint: "r;o" 270 220 basechar 0
AnchorPoint: "r;bl" 255 20 basechar 0
AnchorPoint: "l;x" 42 415 basechar 0
AnchorPoint: "l;o" 32 220 basechar 0
AnchorPoint: "l;bl" 0 20 basechar 0
LayerCount: 3
Fore
SplineSet
66 -153 m 0xa0
 66 -140 88 -128 98 -117 c 0
 117 -96 136 -64 136 -26 c 0
 136 28 81 35 81 56 c 0
 81 59 120 118 138 118 c 0
 158 118 195 87 195 0 c 0
 195 -73 110 -166 80 -166 c 0
 73 -166 66 -161 66 -153 c 0xa0
100 368 m 0xc0
 100 374 163 431 167 431 c 0
 177 431 220 373 220 369 c 0
 220 351 160 304 152 304 c 0
 145 304 133 325 124 334 c 0
 110 348 100 359 100 368 c 0xc0
EndSplineSet
EndChar

StartChar: exclam
Encoding: 33 33 58
Width: 249
VWidth: 0
Flags: HW
PickledData: "(dp1
Vspacing_anchors_slanted
p2
I00
s."
HStem: -11 127<107.723 155.847>
VStem: 68 123<23.7881 79.0966> 133 34<194.626 238.485> 161 84<546.844 681.886>
AnchorPoint: "l;bl" 0 20 basechar 0
AnchorPoint: "l;o" 24 220 basechar 0
AnchorPoint: "l;hi" 78 732 basechar 0
AnchorPoint: "l;t" 59 562 basechar 0
AnchorPoint: "l;x" 44 415 basechar 0
AnchorPoint: "r;bl" 249 20 basechar 0
AnchorPoint: "r;k;o" 273 220 basechar 0
AnchorPoint: "r;k;hi" 327 732 basechar 0
AnchorPoint: "r;k;t" 308 562 basechar 0
AnchorPoint: "r;k;x" 293 415 basechar 0
LayerCount: 3
Fore
SplineSet
68 50 m 0xc0
 68 58 90 80 94 83 c 0
 116 100 126 116 142 116 c 0
 150 116 157 102 173 83 c 0
 182 73 191 62 191 55 c 0xc0
 191 43 176 30 161 16 c 0x90
 149 4 135 -11 129 -11 c 0
 117 -11 109 -2 98 11 c 0
 85 27 68 40 68 50 c 0xc0
133 211 m 0xa0
 133 218 134 228 135 239 c 2
 161 627 l 2
 162 647 158 687 209 687 c 0
 227 687 245 680 245 654 c 0x90
 245 618 230 609 209 457 c 0
 198 378 185 300 167 214 c 0
 166 208 158 194 146 194 c 0
 136 194 133 200 133 211 c 0xa0
EndSplineSet
Position2: "'cpsp' Capital Spacing in Latin lookup 2 subtable" dx=20 dy=0 dh=40 dv=0
EndChar

StartChar: question
Encoding: 63 63 59
Width: 413
VWidth: 0
Flags: HW
PickledData: "(dp1
Vspacing_anchors_slanted
p2
I00
s."
HStem: -14 21G<158 167> 621 46<178.325 269.052>
VStem: 166 31<196.825 293.187> 297 75<484.978 593.008>
AnchorPoint: "r;bl" 354 20 basechar 0
AnchorPoint: "r;k;o" 378 220 basechar 0
AnchorPoint: "r;k;hi" 432 732 basechar 0
AnchorPoint: "r;t" 413 562 basechar 0
AnchorPoint: "r;k;x" 398 415 basechar 0
AnchorPoint: "l;x" 44 415 basechar 0
AnchorPoint: "l;t" 59 562 basechar 0
AnchorPoint: "l;hi" 78 732 basechar 0
AnchorPoint: "l;o" 24 220 basechar 0
AnchorPoint: "l;bl" 0 20 basechar 0
LayerCount: 3
Fore
SplineSet
101 50 m 0
 101 62 132 81 136 84 c 0
 158 101 161 114 177 114 c 0
 185 114 192 102 208 83 c 0
 217 73 230 59 230 52 c 0
 230 42 212 30 197 16 c 0
 185 4 170 -14 164 -14 c 0
 152 -14 143 0 132 13 c 0
 119 29 101 40 101 50 c 0
145 608 m 0
 145 623 191 667 246 667 c 0
 305 667 372 621 372 548 c 0
 372 488 326 447 312 429 c 0
 241 340 197 292 197 237 c 0
 197 226 200 212 200 204 c 0
 200 196 194 194 190 194 c 0
 170 194 166 228 166 259 c 0
 166 345 297 481 297 545 c 0
 297 589 251 621 217 621 c 0
 183 621 169 602 153 602 c 0
 148 602 145 604 145 608 c 0
EndSplineSet
Position2: "'cpsp' Capital Spacing in Latin lookup 2 subtable" dx=20 dy=0 dh=40 dv=0
EndChar

StartChar: quoteleft
Encoding: 8216 8216 60
Width: 239
VWidth: 0
Flags: HW
PickledData: "(dp1
Vspacing_anchors_slanted
p2
I00
s."
HStem: 427 281
VStem: 73 59<520.884 615.283>
AnchorPoint: "l;o" 78 220 basechar 0
AnchorPoint: "l;hi" 0 732 basechar 0
AnchorPoint: "l;t" 0 562 basechar 0
AnchorPoint: "l;x" 29 415 basechar 0
AnchorPoint: "r;o" 210 220 basechar 0
AnchorPoint: "r;hi" 239 732 basechar 0
AnchorPoint: "r;t" 239 562 basechar 0
AnchorPoint: "r;x" 239 415 basechar 0
LayerCount: 3
Fore
SplineSet
73 530 m 0
 73 637 171 708 191 708 c 0
 201 708 204 700 204 695 c 0
 204 672 166 676 144 618 c 0
 139 606 132 590 132 572 c 0
 132 513 183 511 183 484 c 0
 183 475 147 427 126 427 c 0
 118 427 73 448 73 530 c 0
EndSplineSet
EndChar

StartChar: quoteright
Encoding: 8217 8217 61
Width: 239
VWidth: 0
Flags: HW
PickledData: "(dp1
Vspacing_anchors_slanted
p2
I00
s."
HStem: 427 281<48 113>
VStem: 107 59<519.711 613.616>
AnchorPoint: "r;x" 210 415 basechar 0
AnchorPoint: "r;t" 239 562 basechar 0
AnchorPoint: "r;hi" 239 732 basechar 0
AnchorPoint: "r;o" 151 220 basechar 0
AnchorPoint: "l;x" 0 415 basechar 0
AnchorPoint: "l;t" 0 562 basechar 0
AnchorPoint: "l;hi" 0 732 basechar 0
AnchorPoint: "l;o" 29 220 basechar 0
LayerCount: 3
Fore
SplineSet
36 439 m 0
 36 462 73 459 95 517 c 0
 100 529 107 544 107 562 c 0
 107 621 56 623 56 650 c 0
 56 659 92 708 113 708 c 0
 121 708 166 687 166 605 c 0
 166 498 68 427 48 427 c 0
 38 427 36 434 36 439 c 0
EndSplineSet
EndChar

StartChar: quotesinglbase
Encoding: 8218 8218 62
Width: 239
VWidth: 0
Flags: HW
PickledData: "(dp1
Vspacing_anchors_slanted
p2
I00
s."
HStem: -60 282<48 113>
VStem: 107 59<33.3163 127.616>
AnchorPoint: "r;o" 239 220 basechar 0
AnchorPoint: "r;bl" 239 20 basechar 0
AnchorPoint: "l;o" 0 220 basechar 0
AnchorPoint: "l;bl" 0 20 basechar 0
LayerCount: 3
Fore
SplineSet
36 -47 m 0
 36 -24 73 -27 95 31 c 0
 100 43 107 58 107 76 c 0
 107 135 56 137 56 164 c 0
 56 173 92 222 113 222 c 0
 121 222 166 201 166 119 c 0
 166 12 68 -60 48 -60 c 0
 38 -60 36 -52 36 -47 c 0
EndSplineSet
EndChar

StartChar: quotereversed
Encoding: 8219 8219 63
Width: 239
VWidth: 0
Flags: HW
PickledData: "(dp1
Vspacing_anchors_slanted
p2
I00
s."
HStem: 425 286<117.196 149>
VStem: 73 54<487.4 600.41>
AnchorPoint: "r;x" 239 415 basechar 0
AnchorPoint: "r;t" 239 562 basechar 0
AnchorPoint: "r;hi" 239 732 basechar 0
AnchorPoint: "r;o" 210 220 basechar 0
AnchorPoint: "l;x" 29 415 basechar 0
AnchorPoint: "l;t" 0 562 basechar 0
AnchorPoint: "l;hi" 0 732 basechar 0
AnchorPoint: "l;o" 78 220 basechar 0
LayerCount: 3
Fore
SplineSet
73 592 m 0
 73 669 127 711 135 711 c 0
 153 711 163 689 175 677 c 0
 189 663 198 654 198 646 c 0
 198 636 191 639 175 627 c 0
 143 604 127 573 127 532 c 0
 127 475 155 457 155 438 c 0
 155 426 149 425 144 425 c 0
 124 425 73 497 73 592 c 0
EndSplineSet
EndChar

StartChar: quotedblleft
Encoding: 8220 8220 64
Width: 410
VWidth: 0
Flags: HW
PickledData: "(dp1
Vspacing_anchors_slanted
p2
I00
s."
HStem: 427 281
VStem: 73 59<520.884 615.283> 244 59<520.884 615.283>
AnchorPoint: "r;x" 410 415 basechar 0
AnchorPoint: "r;t" 410 562 basechar 0
AnchorPoint: "r;hi" 410 732 basechar 0
AnchorPoint: "r;o" 381 220 basechar 0
AnchorPoint: "l;x" 29 415 basechar 0
AnchorPoint: "l;t" 0 562 basechar 0
AnchorPoint: "l;hi" 0 732 basechar 0
AnchorPoint: "l;o" 78 220 basechar 0
LayerCount: 3
Fore
SplineSet
73 530 m 0
 73 637 171 708 191 708 c 0
 201 708 204 700 204 695 c 0
 204 672 166 676 144 618 c 0
 139 606 132 590 132 572 c 0
 132 513 183 511 183 484 c 0
 183 475 147 427 126 427 c 0
 118 427 73 448 73 530 c 0
244 530 m 0
 244 637 342 708 362 708 c 0
 372 708 375 700 375 695 c 0
 375 672 337 676 315 618 c 0
 310 606 303 590 303 572 c 0
 303 513 354 511 354 484 c 0
 354 475 318 427 297 427 c 0
 289 427 244 448 244 530 c 0
EndSplineSet
EndChar

StartChar: quotedblright
Encoding: 8221 8221 65
Width: 410
VWidth: 0
Flags: HW
PickledData: "(dp1
Vspacing_anchors_slanted
p2
I00
s."
HStem: 427 281<48 113 219 284>
VStem: 107 59<519.711 613.616> 278 59<519.711 613.616>
AnchorPoint: "l;o" 29 220 basechar 0
AnchorPoint: "l;hi" 0 732 basechar 0
AnchorPoint: "l;t" 0 562 basechar 0
AnchorPoint: "l;x" 0 415 basechar 0
AnchorPoint: "r;o" 322 220 basechar 0
AnchorPoint: "r;hi" 410 732 basechar 0
AnchorPoint: "r;t" 410 562 basechar 0
AnchorPoint: "r;x" 381 415 basechar 0
LayerCount: 3
Fore
SplineSet
36 439 m 0
 36 462 73 459 95 517 c 0
 100 529 107 544 107 562 c 0
 107 621 56 623 56 650 c 0
 56 659 92 708 113 708 c 0
 121 708 166 687 166 605 c 0
 166 498 68 427 48 427 c 0
 38 427 36 434 36 439 c 0
207 439 m 0
 207 462 244 459 266 517 c 0
 271 529 278 544 278 562 c 0
 278 621 227 623 227 650 c 0
 227 659 263 708 284 708 c 0
 292 708 337 687 337 605 c 0
 337 498 239 427 219 427 c 0
 209 427 207 434 207 439 c 0
EndSplineSet
EndChar

StartChar: quotedblbase
Encoding: 8222 8222 66
Width: 410
VWidth: 0
Flags: HW
PickledData: "(dp1
Vspacing_anchors_slanted
p2
I00
s."
HStem: -60 282<48 113 219 284>
VStem: 107 59<33.3163 127.616> 278 59<33.3163 127.616>
AnchorPoint: "l;bl" 0 20 basechar 0
AnchorPoint: "l;o" 0 220 basechar 0
AnchorPoint: "r;bl" 410 20 basechar 0
AnchorPoint: "r;o" 410 220 basechar 0
LayerCount: 3
Fore
SplineSet
36 -47 m 0
 36 -24 73 -27 95 31 c 0
 100 43 107 58 107 76 c 0
 107 135 56 137 56 164 c 0
 56 173 92 222 113 222 c 0
 121 222 166 201 166 119 c 0
 166 12 68 -60 48 -60 c 0
 38 -60 36 -52 36 -47 c 0
207 -47 m 0
 207 -24 244 -27 266 31 c 0
 271 43 278 58 278 76 c 0
 278 135 227 137 227 164 c 0
 227 173 263 222 284 222 c 0
 292 222 337 201 337 119 c 0
 337 12 239 -60 219 -60 c 0
 209 -60 207 -52 207 -47 c 0
EndSplineSet
EndChar

StartChar: uni201F
Encoding: 8223 8223 67
Width: 410
VWidth: 0
Flags: HW
PickledData: "(dp1
Vspacing_anchors_slanted
p2
I00
s."
HStem: 425 286<117.196 149 288.075 319>
VStem: 73 54<487.4 600.41> 244 54<486.572 600.41>
AnchorPoint: "l;o" 78 220 basechar 0
AnchorPoint: "l;hi" 0 732 basechar 0
AnchorPoint: "l;t" 0 562 basechar 0
AnchorPoint: "l;x" 29 415 basechar 0
AnchorPoint: "r;o" 381 220 basechar 0
AnchorPoint: "r;hi" 410 732 basechar 0
AnchorPoint: "r;t" 410 562 basechar 0
AnchorPoint: "r;x" 410 415 basechar 0
LayerCount: 3
Fore
SplineSet
73 592 m 0
 73 669 127 711 135 711 c 0
 153 711 163 689 175 677 c 0
 189 663 198 654 198 646 c 0
 198 636 191 639 175 627 c 0
 143 604 127 573 127 532 c 0
 127 475 155 457 155 438 c 0
 155 426 149 425 144 425 c 0
 124 425 73 497 73 592 c 0
244 592 m 0
 244 669 298 711 306 711 c 0
 324 711 334 689 346 677 c 0
 360 663 369 654 369 646 c 0
 369 636 362 639 346 627 c 0
 314 604 298 573 298 532 c 0
 298 475 326 457 326 438 c 0
 326 426 319 425 314 425 c 0
 294 425 244 497 244 592 c 0
EndSplineSet
EndChar

StartChar: dagger
Encoding: 8224 8224 68
Width: 535
VWidth: 0
Flags: HW
PickledData: "(dp1
Vspacing_anchors_slanted
p2
I00
s."
HStem: 479 121<72.4073 124.755 406.216 461.247> 522 27<162.115 246.801 285.085 363.763> 727 20G<264.5 295>
VStem: 176 33<-214.96 -52.7116> 188 116<284.124 368.894> 229 113<678.507 742.752> 247 32<429.894 521.998> 253 32<549.003 625.415>
AnchorPoint: "l;bl" 0 20 basechar 0
AnchorPoint: "l;lo" 0 -205 basechar 0
AnchorPoint: "l;o" 0 220 basechar 0
AnchorPoint: "l;hi" 0 732 basechar 0
AnchorPoint: "l;t" 0 562 basechar 0
AnchorPoint: "l;x" 0 415 basechar 0
AnchorPoint: "r;bl" 535 20 basechar 0
AnchorPoint: "r;lo" 535 -205 basechar 0
AnchorPoint: "r;o" 535 220 basechar 0
AnchorPoint: "r;hi" 535 732 basechar 0
AnchorPoint: "r;t" 535 562 basechar 0
AnchorPoint: "r;x" 535 415 basechar 0
LayerCount: 3
Fore
SplineSet
63 516 m 0xa2
 63 526 67 600 90 600 c 0xa2
 98 600 146 549 240 549 c 0
 253 549 253 553 253 583 c 0x61
 253 651 229 710 229 725 c 0
 229 734 241 747 288 747 c 0
 302 747 342 746 342 728 c 0x64
 342 723 285 611 285 553 c 0x61
 285 549 288 548 290 548 c 0
 368 548 443 602 457 602 c 0
 466 602 471 590 471 565 c 0
 471 545 465 481 444 481 c 0
 437 481 394 522 295 522 c 0
 281 522 279 520 279 455 c 0x62
 279 367 304 348 304 340 c 0x68
 304 315 266 347 209 -189 c 0x70
 207 -212 201 -215 191 -215 c 2
 188 -215 l 2x68
 180 -215 176 -213 176 -201 c 0x70
 176 -191 204 46 204 200 c 0
 204 319 188 322 188 335 c 0x68
 188 350 228 357 246 512 c 0
 246 515 247 518 247 519 c 0
 247 522 245 522 240 522 c 0x62
 148 522 92 479 78 479 c 0
 69 479 63 491 63 516 c 0xa2
EndSplineSet
EndChar

StartChar: daggerdbl
Encoding: 8225 8225 69
Width: 580
VWidth: 0
Flags: HW
PickledData: "(dp1
Vspacing_anchors_slanted
p2
I00
s."
HStem: -48 127<68.2188 136.564 401.127 459.704> -1 32<166.504 244.915 283.018 368.239> 469 121<123.407 178.53 456.465 511.781> 513 26<218.827 296.695 336.1 414.652> 717 20G<314.5 345>
VStem: 185 118<-200.752 -140.125> 238 108<230.587 330.625> 245 30<-78.8127 -2.13883> 250 33<33.0054 138.539> 280 113<673.541 733.082> 296 31<402.933 511.928> 305 31<539.019 618.119>
AnchorPoint: "l;bl" 0 20 basechar 0
AnchorPoint: "l;lo" 0 -205 basechar 0
AnchorPoint: "l;o" 0 220 basechar 0
AnchorPoint: "l;hi" 0 732 basechar 0
AnchorPoint: "l;t" 0 562 basechar 0
AnchorPoint: "l;x" 0 415 basechar 0
AnchorPoint: "r;bl" 580 20 basechar 0
AnchorPoint: "r;lo" 580 -205 basechar 0
AnchorPoint: "r;o" 580 220 basechar 0
AnchorPoint: "r;hi" 580 732 basechar 0
AnchorPoint: "r;t" 580 562 basechar 0
AnchorPoint: "r;x" 580 415 basechar 0
LayerCount: 3
Fore
SplineSet
59 -10 m 0x89
 59 -2 62 79 85 79 c 0x89
 93 79 179 31 241 31 c 0
 246 31 250 33 250 37 c 0x4880
 253 65 254 91 254 115 c 0
 254 204 238 262 238 285 c 0x4a
 238 301 276 319 296 500 c 0
 296 504 297 507 297 509 c 0
 297 512 296 513 291 513 c 0x5820
 288 513 284 512 281 512 c 0
 211 508 142 469 129 469 c 0
 120 469 114 481 114 506 c 0
 114 516 118 590 141 590 c 0x2820
 149 590 203 539 291 539 c 0
 304 539 305 543 305 583 c 0x1810
 305 657 280 701 280 715 c 0
 280 724 291 737 338 737 c 0
 352 737 393 736 393 718 c 0x1840
 393 707 347 649 336 545 c 0x1810
 336 542 336 538 340 538 c 0
 420 538 493 592 507 592 c 0
 516 592 521 580 521 555 c 0
 521 545 518 471 495 471 c 0
 487 471 433 513 339 513 c 0
 335 513 333 512 333 508 c 0
 329 469 327 437 327 411 c 0x1820
 327 319 346 296 346 288 c 0x1a
 346 280 302 204 284 47 c 0
 284 43 283 40 283 38 c 0x1880
 283 35 284 33 289 33 c 0
 372 33 442 81 456 81 c 0
 465 81 470 67 470 42 c 0
 470 21 464 -46 443 -46 c 0
 437 -46 374 -2 293 -2 c 0
 279 -2 275 -2 275 -50 c 0x19
 275 -127 303 -169 303 -183 c 0
 303 -192 291 -205 242 -205 c 0
 227 -205 185 -205 185 -187 c 0x1c
 185 -183 245 -73 245 -12 c 0
 245 -7 242 -1 235 -1 c 0x59
 191 -1 87 -48 73 -48 c 0
 64 -48 59 -35 59 -10 c 0x89
EndSplineSet
EndChar

StartChar: bullet
Encoding: 8226 8226 70
Width: 419
VWidth: 512
Flags: HW
PickledData: "(dp1
Vspacing_anchors_slanted
p2
I00
s."
HStem: 180 301<134.267 284.733>
VStem: 59 301<252.876 408.85>
AnchorPoint: "l;o" 0 220 basechar 0
AnchorPoint: "l;x" 0 415 basechar 0
AnchorPoint: "r;o" 419 220 basechar 0
AnchorPoint: "r;x" 419 415 basechar 0
LayerCount: 3
Fore
SplineSet
59 331 m 0
 59 414 126 481 209 481 c 0
 292 481 360 414 360 331 c 0
 360 248 293 180 210 180 c 0
 127 180 59 248 59 331 c 0
EndSplineSet
AlternateSubs2: "'aalt' Access All Alternates lookup 0 subtable" bullet.001
AlternateSubs2: "'aalt' Access All Alternates in Latin lookup 0 subtable" bullet.001
Substitution2: "'salt' Stylistic Alternatives in Latin lookup 12 subtable" bullet.001
EndChar

StartChar: paragraph
Encoding: 182 182 71
Width: 485
VWidth: 0
Flags: HW
PickledData: "(dp1
Vspacing_anchors_slanted
p2
I00
s."
HStem: -185 30<113.389 177.965> 321 29<216.832 257.725> 693 22<245.047 294.49 323 359.656>
VStem: 39 167<387.459 576.889> 241 15<38.9032 100.812> 297 26<585.987 691.82> 304 20<59.4392 182.848> 360 21<608.25 661.897>
AnchorPoint: "l;bl" 0 20 basechar 0
AnchorPoint: "l;lo" 0 -205 basechar 0
AnchorPoint: "l;o" 0 220 basechar 0
AnchorPoint: "l;hi" 49 732 basechar 0
AnchorPoint: "l;t" 0 562 basechar 0
AnchorPoint: "l;x" 0 415 basechar 0
AnchorPoint: "r;bl" 446 20 basechar 0
AnchorPoint: "r;lo" 397 -205 basechar 0
AnchorPoint: "r;o" 476 220 basechar 0
AnchorPoint: "r;hi" 485 732 basechar 0
AnchorPoint: "r;t" 485 562 basechar 0
AnchorPoint: "r;x" 485 415 basechar 0
LayerCount: 3
Fore
SplineSet
39 474 m 0xfb
 39 630 164 715 247 715 c 0
 296 715 332 716 372 716 c 0
 389 716 407 718 428 718 c 2
 439 718 l 2
 442 718 446 712 446 709 c 0
 446 693 419 696 401 677 c 0
 392 668 385 651 381 611 c 0
 360 409 345 296 324 94 c 0
 308 -60 225 -185 116 -185 c 0
 92 -185 76 -183 56 -170 c 16
 53 -168 51 -158 51 -149 c 0
 51 -127 73 -78 86 -78 c 0
 105 -78 86 -155 150 -155 c 0
 222 -155 236 59 241 116 c 2
 256 284 l 2
 257 293 258 301 258 306 c 0
 258 317 255 321 237 321 c 0
 153 321 39 334 39 474 c 0xfb
206 429 m 0
 206 381 215 350 239 350 c 0
 265 350 267 371 270 404 c 1
 274 446 276 481 280 517 c 0
 296 670 297 644 297 666 c 0xfd
 297 685 291 693 275 693 c 0
 266 693 244 688 238 672 c 16
 212 605 206 431 206 429 c 0
245 -51 m 0
 245 -56 246 -59 251 -59 c 0
 258 -59 293 13 304 120 c 2xfb
 360 678 l 2
 360 679 l 0
 360 689 350 696 341 696 c 0
 334 696 324 691 323 683 c 0
 297 485 256 26 256 26 c 2
 249 -44 245 -39 245 -51 c 0
EndSplineSet
EndChar

StartChar: emdash
Encoding: 8212 8212 72
Width: 1000
VWidth: 0
Flags: HW
PickledData: "(dp1
Vspacing_anchors_slanted
p2
I00
s."
HStem: 185 53<0.031311 999.781>
AnchorPoint: "l;o" 0 220 basechar 0
AnchorPoint: "r;o" 1000 220 basechar 0
LayerCount: 3
Fore
SplineSet
0 214 m 0
 0 236 10 238 34 238 c 2
 979 238 l 2
 994 238 1000 236 1000 208 c 0
 1000 195 992 185 979 185 c 2
 38 185 l 2
 0 185 0 186 0 214 c 0
EndSplineSet
AlternateSubs2: "'aalt' Access All Alternates lookup 0 subtable" emdash.uppercase
AlternateSubs2: "'aalt' Access All Alternates in Latin lookup 0 subtable" emdash.uppercase
Substitution2: "'case' Case-Sensitive Forms in Latin lookup 11 subtable" emdash.uppercase
EndChar

StartChar: endash
Encoding: 8211 8211 73
Width: 500
VWidth: 0
Flags: HW
PickledData: "(dp1
Vspacing_anchors_slanted
p2
I00
s."
HStem: 185 53<0.031311 499.781>
AnchorPoint: "l;o" 0 220 basechar 0
AnchorPoint: "r;o" 500 220 basechar 0
LayerCount: 3
Fore
SplineSet
0 214 m 0
 0 236 10 238 34 238 c 2
 479 238 l 2
 494 238 500 236 500 208 c 0
 500 195 492 185 479 185 c 2
 38 185 l 2
 0 185 0 186 0 214 c 0
EndSplineSet
AlternateSubs2: "'aalt' Access All Alternates lookup 0 subtable" endash.uppercase
AlternateSubs2: "'aalt' Access All Alternates in Latin lookup 0 subtable" endash.uppercase
Substitution2: "'case' Case-Sensitive Forms in Latin lookup 11 subtable" endash.uppercase
EndChar

StartChar: acutecomb
Encoding: 769 769 74
Width: 0
VWidth: 0
Flags: W
PickledData: "(dp1
Vspacing_anchors_slanted
p2
I00
s."
HStem: 482 178
VStem: -252 158
AnchorPoint: "l;k;t" -252 562 mark 0
AnchorPoint: "r;k;t" -74 562 mark 0
AnchorPoint: "top" -220 459 mark 0
LayerCount: 3
Fore
SplineSet
-252 490 m 0
 -252 503 -229 511 -161 642 c 0
 -153 658 -144 660 -141 660 c 0
 -133 660 -94 653 -94 637 c 0
 -94 614 -229 482 -244 482 c 0
 -249 482 -252 486 -252 490 c 0
EndSplineSet
EndChar

StartChar: uni0302
Encoding: 770 770 76
Width: 0
VWidth: 0
Flags: W
PickledData: "(dp1
Vspacing_anchors_slanted
p2
I00
s."
HStem: 579 67<-234.914 -182.066>
VStem: -325 221<497 500>
AnchorPoint: "r;k;t" -100 562 mark 0
AnchorPoint: "l;k;t" -330 562 mark 0
AnchorPoint: "top" -220 459 mark 0
LayerCount: 3
Fore
SplineSet
-325 499 m 0
 -325 500 -323 503 -321 506 c 0
 -222 631 -230 646 -215 646 c 2
 -189 646 l 2
 -184 646 -179 646 -175 636 c 0
 -142 564 -104 510 -104 500 c 0
 -104 497 -106 494 -112 494 c 0
 -126 494 -198 579 -207 579 c 0
 -222 579 -306 495 -318 495 c 0
 -319 495 -325 496 -325 499 c 0
EndSplineSet
EndChar

StartChar: gravecomb
Encoding: 768 768 77
Width: 0
VWidth: 0
Flags: W
PickledData: "(dp1
Vspacing_anchors_slanted
p2
I00
s."
HStem: 482 178
VStem: -308 127
AnchorPoint: "r;k;t" -181 562 mark 0
AnchorPoint: "l;k;t" -328 562 mark 0
AnchorPoint: "top" -220 459 mark 0
LayerCount: 3
Fore
SplineSet
-308 634 m 0
 -308 653 -261 660 -256 660 c 0
 -253 660 -245 658 -240 642 c 0
 -202 521 -181 504 -181 492 c 0
 -181 486 -186 482 -191 482 c 0
 -205 482 -308 608 -308 634 c 0
EndSplineSet
EndChar

StartChar: tildecomb
Encoding: 771 771 80
Width: 0
VWidth: 0
Flags: W
PickledData: "(dp1
Vspacing_anchors_slanted
p2
I00
s."
HStem: 533 52<-187.935 -115.427> 581 52<-296.072 -227.937>
VStem: -358 302
AnchorPoint: "l;k;t" -363 562 mark 0
AnchorPoint: "r;k;t" -51 562 mark 0
AnchorPoint: "top" -220 459 mark 0
LayerCount: 3
Fore
SplineSet
-358 534 m 0x60
 -358 551 -291 633 -251 633 c 0x60
 -204 633 -180 585 -131 585 c 0
 -95 585 -80 641 -65 641 c 0
 -60 641 -56 637 -56 630 c 0
 -56 610 -122 533 -162 533 c 0xa0
 -211 533 -238 581 -282 581 c 0
 -319 581 -334 524 -350 524 c 0
 -355 524 -358 528 -358 534 c 0x60
EndSplineSet
EndChar

StartChar: uni0308
Encoding: 776 776 81
Width: 0
VWidth: 0
Flags: W
PickledData: "(dp1
Vspacing_anchors_slanted
p2
I00
s."
HStem: 540 100<-301.694 -243.189 -146.884 -88.9659>
VStem: -317 90<556.253 624.497> -163 91<557.182 624.101>
AnchorPoint: "r;k;t" -58 562 mark 0
AnchorPoint: "l;k;t" -351 562 mark 0
AnchorPoint: "top" -220 459 mark 0
LayerCount: 3
Fore
SplineSet
-317 589 m 0
 -317 604 -288 640 -267 640 c 0
 -247 640 -227 612 -227 593 c 0
 -227 570 -265 540 -273 540 c 0
 -299 540 -317 572 -317 589 c 0
-163 589 m 0
 -163 604 -133 640 -112 640 c 0
 -92 640 -72 612 -72 593 c 0
 -72 570 -111 540 -119 540 c 0
 -145 540 -163 572 -163 589 c 0
EndSplineSet
EndChar

StartChar: uni0306
Encoding: 774 774 84
Width: 0
VWidth: 0
Flags: MW
PickledData: "(dp1
Vspacing_anchors_slanted
p2
I00
s."
HStem: 504 53<-265.037 -144.287>
AnchorPoint: "r;k;t" -82 562 mark 0
AnchorPoint: "l;k;t" -330 562 mark 0
AnchorPoint: "top" -220 459 mark 0
LayerCount: 3
Fore
SplineSet
-311 608 m 0
 -311 626 -310 627 -306 627 c 2
 -295 627 l 2
 -284 627 -291 557 -199 557 c 0
 -119 557 -106 627 -96 627 c 2
 -89 627 l 2
 -82 627 -82 627 -82 625 c 0
 -82 608 -117 504 -210 504 c 0
 -276 504 -311 558 -311 608 c 0
EndSplineSet
EndChar

StartChar: uni030C
Encoding: 780 780 85
Width: 0
VWidth: 0
Flags: MW
PickledData: "(dp1
Vspacing_anchors_slanted
p2
I00
s."
HStem: 494 67<-233.56 -179.939>
AnchorPoint: "l;k;t" -330 562 mark 0
AnchorPoint: "r;k;t" -92 562 mark 0
AnchorPoint: "top" -220 459 mark 0
LayerCount: 3
Fore
SplineSet
-302 646 m 2
 -290 646 -218 561 -208 561 c 0
 -202 561 -187 573 -154 602 c 0
 -122 630 -113 645 -99 645 c 0
 -96 645 -92 645 -92 640 c 0
 -92 639 -92 636 -94 633 c 0
 -193 508 -185 494 -200 494 c 2
 -226 494 l 2
 -231 494 -236 494 -240 504 c 0
 -271 571 -311 629 -311 640 c 0
 -311 645 -308 646 -304 646 c 2
 -302 646 l 2
EndSplineSet
EndChar

StartChar: exclamdown
Encoding: 161 161 88
Width: 249
VWidth: 0
Flags: HW
PickledData: "(dp1
Vspacing_anchors_slanted
p2
I00
s."
HStem: -11 21G<95 129.5> 560 127<157.153 205.277>
VStem: 68 84<-6.00169 129> 122 123<596.796 651.885> 146 34<437.514 480.374>
AnchorPoint: "r;k;x" 293 415 basechar 0
AnchorPoint: "r;k;t" 308 562 basechar 0
AnchorPoint: "r;k;hi" 327 732 basechar 0
AnchorPoint: "r;k;o" 273 220 basechar 0
AnchorPoint: "r;bl" 249 20 basechar 0
AnchorPoint: "l;x" 44 415 basechar 0
AnchorPoint: "l;t" 59 562 basechar 0
AnchorPoint: "l;hi" 78 732 basechar 0
AnchorPoint: "l;o" 24 220 basechar 0
AnchorPoint: "l;bl" 0 20 basechar 0
LayerCount: 3
Fore
SplineSet
245 625 m 0xd0
 245 617 223 596 219 593 c 0
 197 576 187 560 171 560 c 0
 163 560 156 574 140 593 c 0
 131 603 122 613 122 620 c 0xd0
 122 632 137 646 152 660 c 0xe0
 164 672 178 687 184 687 c 0
 196 687 204 677 215 664 c 0
 228 648 245 635 245 625 c 0xd0
180 464 m 0xc8
 180 457 179 448 178 437 c 2
 152 48 l 2
 151 28 155 -11 104 -11 c 0
 86 -11 68 -5 68 21 c 0xe0
 68 57 83 67 104 219 c 0
 115 298 128 375 146 461 c 0
 147 467 155 481 167 481 c 0
 177 481 180 475 180 464 c 0xc8
EndSplineSet
Position2: "'cpsp' Capital Spacing in Latin lookup 2 subtable" dx=20 dy=0 dh=40 dv=0
EndChar

StartChar: questiondown
Encoding: 191 191 89
Width: 354
VWidth: 0
Flags: HW
PickledData: "(dp1
Vspacing_anchors_slanted
p2
I00
s."
HStem: -14 46<154.698 245.675>
VStem: 52 74<59.5533 168.735> 227 31<359.813 455.658>
AnchorPoint: "l;bl" 0 20 basechar 0
AnchorPoint: "l;o" 24 220 basechar 0
AnchorPoint: "l;hi" 78 732 basechar 0
AnchorPoint: "l;t" 59 562 basechar 0
AnchorPoint: "l;x" 44 415 basechar 0
AnchorPoint: "r;k;x" 398 415 basechar 0
AnchorPoint: "r;k;t" 413 562 basechar 0
AnchorPoint: "r;k;hi" 432 732 basechar 0
AnchorPoint: "r;k;o" 378 220 basechar 0
AnchorPoint: "r;bl" 354 20 basechar 0
LayerCount: 3
Fore
SplineSet
323 603 m 0
 323 591 292 571 288 568 c 0
 266 551 263 539 247 539 c 0
 239 539 232 551 216 570 c 0
 207 580 193 594 193 601 c 0
 193 611 212 623 227 637 c 0
 239 649 254 667 260 667 c 0
 272 667 281 653 292 640 c 0
 305 624 323 613 323 603 c 0
279 45 m 0
 279 30 233 -14 178 -14 c 0
 119 -14 52 31 52 104 c 0
 52 164 98 206 112 224 c 0
 183 313 227 361 227 416 c 0
 227 427 224 441 224 449 c 0
 224 457 229 459 233 459 c 0
 253 459 258 425 258 394 c 0
 258 308 126 172 126 108 c 0
 126 64 173 32 207 32 c 0
 241 32 255 51 271 51 c 0
 276 51 279 49 279 45 c 0
EndSplineSet
Position2: "'cpsp' Capital Spacing in Latin lookup 2 subtable" dx=20 dy=0 dh=40 dv=0
EndChar

StartChar: dotlessi
Encoding: 305 305 99
Width: 250
VWidth: 0
Flags: HW
PickledData: "(dp1
Vspacing_anchors_slanted
p2
I00
s."
HStem: -10 76<80 161.056> 384 26<20.0517 102.076> 399 20G<138.5 170.5>
VStem: 58 66<66.4931 218.009> 103 78<320.046 412.47>
AnchorPoint: "r;x" 250 415 basechar 0
AnchorPoint: "r;o" 250 220 basechar 0
AnchorPoint: "r;bl" 250 20 basechar 0
AnchorPoint: "l;x" 0 415 basechar 0
AnchorPoint: "l;o" 5 220 basechar 0
AnchorPoint: "l;bl" 0 20 basechar 0
AnchorPoint: "top" 126 459 basechar 0
LayerCount: 3
Fore
SplineSet
20 396 m 0xc8
 20 409 32 410 43 410 c 2
 53 410 l 2xc8
 93 410 110 419 167 419 c 0
 174 419 181 415 181 408 c 0xa8
 181 382 162 343 154 292 c 0
 124 103 124 105 124 93 c 0
 124 79 134 66 144 66 c 0
 178 66 192 118 206 118 c 0
 212 118 216 114 216 107 c 0
 216 95 198 61 187 49 c 0
 187 49 132 -10 95 -10 c 0
 65 -10 58 30 58 73 c 0xb0
 58 149 103 305 103 362 c 0
 103 379 97 383 79 383 c 0
 58 383 42 384 34 384 c 0
 28 384 20 386 20 396 c 0xc8
EndSplineSet
EndChar

StartChar: uni0237
Encoding: 567 567 107
Width: 242
VWidth: 0
Flags: HW
PickledData: "(dp1
Vspacing_anchors_slanted
p2
I00
s."
HStem: -200 43<-42.5 23.8221> 383 28<20.136 93.122> 401 20G<131.5 156>
VStem: 96 72<258.41 411.628>
AnchorPoint: "r;lo" 145 -205 basechar 0
AnchorPoint: "l;x" 0 415 basechar 0
AnchorPoint: "l;o" 0 220 basechar 0
AnchorPoint: "l;k;lo" -83 -205 basechar 0
AnchorPoint: "l;bl" 0 20 basechar 0
AnchorPoint: "r;bl" 193 20 basechar 0
AnchorPoint: "r;o" 220 220 basechar 0
AnchorPoint: "r;x" 242 415 basechar 0
AnchorPoint: "top" 109 459 basechar 0
LayerCount: 3
Fore
SplineSet
-73 -131 m 0xb0
 -73 -123 -70 -115 -60 -115 c 0
 -38 -115 -23 -157 4 -157 c 0
 25 -157 34 -121 56 54 c 0
 73 188 96 350 96 359 c 0
 96 379 76 383 64 383 c 0
 60 383 47 383 38 383 c 0
 24 383 20 389 20 395 c 0
 20 403 25 411 40 411 c 0xd0
 48 411 59 412 71 412 c 0
 97 412 118 421 145 421 c 0
 167 421 168 412 168 405 c 0
 168 361 154 318 146 258 c 0
 104 -60 115 -99 46 -164 c 0
 28 -181 14 -200 -30 -200 c 0
 -55 -200 -69 -196 -70 -172 c 0
 -71 -145 -73 -139 -73 -131 c 0xb0
EndSplineSet
EndChar

StartChar: uni0327
Encoding: 807 807 133
Width: 0
VWidth: 0
Flags: W
PickledData: "(dp1
Vspacing_anchors_slanted
p2
I00
s."
HStem: -199 153<-250 -219>
VStem: -215 46<-162.065 -101.179>
AnchorPoint: "cedilla" -220 -79 mark 0
LayerCount: 3
Fore
SplineSet
-267 -79 m 0
 -267 -79 -233 -46 -219 -46 c 0
 -215 -46 -169 -61 -169 -105 c 0
 -169 -170 -237 -199 -250 -199 c 0
 -253 -199 -255 -197 -255 -195 c 0
 -255 -187 -215 -180 -215 -139 c 0
 -215 -94 -267 -96 -267 -79 c 0
EndSplineSet
EndChar

StartChar: uni0307
Encoding: 775 775 136
Width: 0
VWidth: 0
Flags: W
PickledData: "(dp1
Vspacing_anchors_slanted
p2
I00
s."
HStem: 538 108<-230.126 -178.188>
VStem: -250 89<555.094 626.247>
AnchorPoint: "l;k;t" -284 562 mark 0
AnchorPoint: "r;k;t" -146 562 mark 0
AnchorPoint: "top" -220 459 mark 0
LayerCount: 3
Fore
SplineSet
-250 593 m 0
 -250 602 -218 646 -199 646 c 0
 -179 646 -161 609 -161 593 c 0
 -161 572 -196 538 -206 538 c 0
 -221 538 -250 580 -250 593 c 0
EndSplineSet
EndChar

StartChar: uni030A
Encoding: 778 778 141
Width: 0
VWidth: 0
Flags: W
PickledData: "(dp1
Vspacing_anchors_slanted
p2
I00
s."
HStem: 512 34<-240.853 -176.957> 631 35<-235.181 -168.873>
VStem: -280 33<552.221 618.434> -165 33<558.817 626.812>
AnchorPoint: "l;k;t" -313 562 mark 0
AnchorPoint: "r;k;t" -118 562 mark 0
AnchorPoint: "top" -220 459 mark 0
LayerCount: 3
Fore
SplineSet
-280 580 m 0
 -280 626 -236 666 -196 666 c 0
 -148 666 -132 623 -132 595 c 0
 -132 537 -198 512 -213 512 c 0
 -270 512 -280 554 -280 580 c 0
-247 584 m 0
 -247 562 -233 546 -210 546 c 0
 -200 546 -165 556 -165 595 c 0
 -165 611 -171 631 -201 631 c 0
 -218 631 -247 615 -247 584 c 0
EndSplineSet
EndChar

StartChar: ampersand
Encoding: 38 38 145
Width: 834
VWidth: 0
Flags: HW
PickledData: "(dp1
Vspacing_anchors_slanted
p2
I00
s."
HStem: -10 41<259.874 445.315> 173 26<439.785 491.9> 354 31<264.175 332.032> 423 53<202 235> 457 29<251.87 328.759> 664 58<308.952 432.962> 692 27<657.902 740.483>
VStem: 39 82<169.91 309.333> 190 33<467.167 565.434> 197 49<440.301 452.879> 339 52<388.808 450.603> 373 51<206.33 305.48> 443 64<581.521 651.646> 594 47<613.848 674.415> 599 54<166.485 301.351> 774 41<554.166 666.822>
AnchorPoint: "l;o" 0 220 basechar 0
AnchorPoint: "l;hi" 88 732 basechar 0
AnchorPoint: "l;t" 59 562 basechar 0
AnchorPoint: "l;x" 39 415 basechar 0
AnchorPoint: "r;o" 688 220 basechar 0
AnchorPoint: "r;hi" 820 732 basechar 0
AnchorPoint: "r;t" 834 562 basechar 0
AnchorPoint: "r;x" 747 415 basechar 0
LayerCount: 3
Fore
SplineSet
39 219 m 0xeb0b
 39 298 92 376 136 413 c 0
 172 444 197 446 197 458 c 0xeb4b
 197 465 190 477 190 519 c 0
 190 665 323 722 400 722 c 0
 431 722 507 709 507 638 c 0
 507 606 495 568 442 568 c 0
 433 568 430 571 430 575 c 0
 430 585 443 602 443 621 c 0
 443 640 418 664 382 664 c 0
 269 664 223 562 223 494 c 0
 223 478 229 476 235 476 c 0xf589
 250 476 274 486 307 486 c 0xe989
 363 486 391 452 391 419 c 0
 391 386 364 354 311 354 c 0
 237 354 215 423 202 423 c 0
 186 423 121 357 121 265 c 0
 121 158 200 31 360 31 c 0
 485 31 599 129 599 234 c 0xf1ab
 599 288 567 332 509 332 c 0
 464 332 424 303 424 252 c 0
 424 214 451 199 465 199 c 0
 492 199 493 221 506 221 c 0
 511 221 513 216 513 212 c 0
 513 196 491 173 456 173 c 0
 397 173 373 237 373 267 c 0
 373 375 490 400 617 457 c 0
 716 501 774 548 774 620 c 0
 774 651 747 692 696 692 c 0
 680 692 641 684 641 640 c 0
 641 609 688 614 688 595 c 0
 688 576 679 554 641 554 c 0
 611 554 594 582 594 617 c 0xeb1d
 594 678 657 719 707 719 c 0
 765 719 815 667 815 605 c 0
 815 439 593 390 593 369 c 0
 593 358 653 348 653 264 c 0
 653 208 632 147 586 102 c 0
 510 26 434 -10 315 -10 c 0
 161 -10 39 66 39 219 c 0xeb0b
246 430 m 0
 246 416 270 385 301 385 c 0
 321 385 339 400 339 419 c 0xe969
 339 450 303 457 288 457 c 0
 267 457 246 444 246 430 c 0
EndSplineSet
Position2: "'cpsp' Capital Spacing in Latin lookup 2 subtable" dx=20 dy=0 dh=40 dv=0
EndChar

StartChar: dollar
Encoding: 36 36 146
Width: 488
VWidth: 0
Flags: HW
PickledData: "(dp1
Vspacing_anchors_slanted
p2
I00
s."
HStem: -17 34<144.607 192.975 234.033 319.519> 650 32<195.784 276.225> 736 20G<288.5 309.5>
VStem: 79 52<473.145 590.053> 193 35<-117.463 -16.3601> 201 33<17.1771 159.563> 237 32<198.439 310.995> 252 28<414.007 512.528> 277 29<521.084 644.865> 401 67<95.5562 244.334>
AnchorPoint: "r;x" 468 415 basechar 0
AnchorPoint: "r;t" 488 562 basechar 0
AnchorPoint: "r;hi" 400 732 basechar 0
AnchorPoint: "r;o" 488 220 basechar 0
AnchorPoint: "l;x" 49 415 basechar 0
AnchorPoint: "l;t" 49 562 basechar 0
AnchorPoint: "l;hi" 127 732 basechar 0
AnchorPoint: "l;o" 10 220 basechar 0
AnchorPoint: "l;bl" 0 20 basechar 0
AnchorPoint: "r;bl" 458 20 basechar 0
LayerCount: 3
Fore
SplineSet
20 91 m 0xf940
 20 100 38 168 54 168 c 0
 75 168 78 127 91 99 c 0
 114 48 156 17 188 17 c 0
 197 17 199 21 201 36 c 0
 217 172 237 308 237 315 c 0
 237 353 79 362 79 500 c 0
 79 627 183 680 270 682 c 0
 301 682 272 756 305 756 c 0
 314 756 330 754 330 738 c 0
 330 719 319 706 319 684 c 0
 319 677 341 676 350 674 c 0
 438 648 463 606 463 594 c 0
 463 545 441 534 436 534 c 0
 426 534 419 556 406 577 c 0
 388 606 342 645 320 645 c 0
 311 645 307 624 306 616 c 0xf6c0
 290 469 280 437 280 407 c 0
 280 364 468 376 468 189 c 0
 468 65 378 -13 245 -13 c 0
 236 -13 228 -19 228 -24 c 0
 216 -122 220 -160 195 -160 c 0
 176 -160 173 -154 173 -143 c 0
 173 -118 193 -34 193 -28 c 0
 193 -17 186 -17 183 -17 c 0
 100 -4 20 51 20 91 c 0xf940
131 531 m 0
 131 498 151 466 174 451 c 0
 205 431 234 414 239 414 c 0
 249 414 251 423 252 436 c 0xf140
 277 631 277 634 277 635 c 0
 277 646 270 650 257 650 c 0
 233 650 131 634 131 531 c 0
234 28 m 0xf640
 234 19 240 12 256 12 c 0
 282 12 401 44 401 177 c 0
 401 274 289 311 285 311 c 0
 272 311 270 304 269 295 c 0
 262 250 234 41 234 28 c 0xf640
EndSplineSet
AlternateSubs2: "'aalt' Access All Alternates lookup 0 subtable" dollar.lining dollar.lining.sub dollar.lining.sup
AlternateSubs2: "'aalt' Access All Alternates in Latin lookup 0 subtable" dollar.lining dollar.lining.sub dollar.lining.sup
Substitution2: "lining_figures subtable" dollar.lining
Substitution2: "'subs' Subscript in Latin lookup 8 subtable" dollar.lining.sub
Substitution2: "'sups' Superscript in Latin lookup 7 subtable" dollar.lining.sup
EndChar

StartChar: one
Encoding: 49 49 147
Width: 309
VWidth: 0
Flags: HW
PickledData: "(dp1
Vspacing_anchors_slanted
p2
I00
s."
HStem: -4 30<20.1862 79.9531 194.491 271.667> 392 39<42.9501 123.855 217.062 288.928>
VStem: 133 42<151.408 284.698>
AnchorPoint: "l;bl" 0 20 basechar 0
AnchorPoint: "l;o" 10 220 basechar 0
AnchorPoint: "l;x" 20 415 basechar 0
AnchorPoint: "r;bl" 289 20 basechar 0
AnchorPoint: "r;o" 299 220 basechar 0
AnchorPoint: "r;x" 309 415 basechar 0
LayerCount: 3
Fore
SplineSet
20 14 m 0
 20 18 23 26 45 26 c 0
 105 26 106 113 113 158 c 0
 126 241 133 338 133 344 c 0
 133 359 128 389 77 392 c 0
 67 392 42 399 42 417 c 0
 42 425 48 431 57 431 c 0
 72 431 86 423 109 423 c 0
 138 423 132 422 172 422 c 0
 215 422 241 428 266 428 c 0
 283 428 289 418 289 413 c 0
 289 396 267 396 255 396 c 0
 201 396 199 338 179 114 c 0
 178 104 175 93 175 81 c 0
 175 61 182 42 212 32 c 0
 220 30 272 30 272 9 c 0
 272 -1 266 -4 253 -4 c 0
 222 -4 189 3 146 3 c 0
 104 3 70 -4 43 -4 c 0
 27 -4 20 2 20 14 c 0
EndSplineSet
AlternateSubs2: "'aalt' Access All Alternates lookup 0 subtable" one.lining one.lining.sub one.lining.sup one.lining.denom one.lining.numer
AlternateSubs2: "'aalt' Access All Alternates in Latin lookup 0 subtable" one.lining one.lining.sub one.lining.sup one.lining.denom one.lining.numer
Substitution2: "lining_figures subtable" one.lining
Substitution2: "'subs' Subscript in Latin lookup 8 subtable" one.lining.sub
Substitution2: "'sups' Superscript in Latin lookup 7 subtable" one.lining.sup
Substitution2: "denominators subtable" one.lining.denom
Substitution2: "numerators subtable" one.lining.numer
EndChar

StartChar: bracketleft
Encoding: 91 91 148
Width: 266
VWidth: 488
Flags: HMW
PickledData: "(dp1
Vspacing_anchors_slanted
p2
I00
s."
HStem: -204 45<104.001 216.339> 722 41<195.411 316.823>
DStem2: 64 -82 104 -142 0.107785 0.994174<-71.2991 -55.3391 649.769 816.093>
AnchorPoint: "l;bl" 0 20 basechar 0
AnchorPoint: "l;k;lo" -18 -205 basechar 0
AnchorPoint: "l;o" 23 220 basechar 0
AnchorPoint: "l;hi" 77 732 basechar 0
AnchorPoint: "l;t" 60 562 basechar 0
AnchorPoint: "l;x" 43 415 basechar 0
AnchorPoint: "r;bl" 207 20 basechar 0
AnchorPoint: "r;lo" 247 -205 basechar 0
AnchorPoint: "r;o" 227 220 basechar 0
AnchorPoint: "r;k;hi" 347 732 basechar 0
AnchorPoint: "r;t" 266 562 basechar 0
AnchorPoint: "r;x" 246 415 basechar 0
LayerCount: 3
Fore
SplineSet
55 -179 m 0
 55 -170 57 -159 58 -143 c 2
 64 -82 l 2
 81 77 117 372 138 570 c 0
 149 671 152 721 154 738 c 0
 156 761 169 763 203 763 c 2
 243 763 l 2
 292 763 298 764 304 764 c 0
 312 764 317 756 317 746 c 0
 317 735 312 723 304 723 c 0
 287 723 227 722 218 722 c 2
 203 722 l 2
 193 722 197 722 180 559 c 0
 162 391 104 -101 104 -142 c 0
 104 -151 106 -159 113 -159 c 0
 130 -159 189 -158 197 -158 c 0
 212 -158 217 -162 217 -174 c 0
 217 -202 200 -204 165 -204 c 2
 82 -204 l 2
 61 -204 55 -201 55 -179 c 0
EndSplineSet
AlternateSubs2: "'aalt' Access All Alternates lookup 0 subtable" bracketleft.uppercase bracketleft.sub bracketleft.sup
AlternateSubs2: "'aalt' Access All Alternates in Latin lookup 0 subtable" bracketleft.uppercase bracketleft.sub bracketleft.sup
Substitution2: "'case' Case-Sensitive Forms in Latin lookup 11 subtable" bracketleft.uppercase
Substitution2: "'subs' Subscript in Latin lookup 8 subtable" bracketleft.sub
Substitution2: "'sups' Superscript in Latin lookup 7 subtable" bracketleft.sup
EndChar

StartChar: zero
Encoding: 48 48 149
Width: 518
VWidth: 4
Flags: HW
PickledData: "(dp1
Vspacing_anchors_slanted
p2
I00
s."
HStem: -25 49<153.414 320.09> 384 50<199.33 362.448>
VStem: 32 59<87.1028 271.431> 430 56<135.077 314.62>
AnchorPoint: "l;o" 0 220 basechar 0
AnchorPoint: "r;o" 518 220 basechar 0
LayerCount: 3
Fore
SplineSet
32 170 m 0
 32 295 123 434 284 434 c 0
 393 434 486 353 486 232 c 0
 486 64 352 -25 229 -25 c 0
 126 -25 32 37 32 170 c 0
91 170 m 0
 91 71 158 24 232 24 c 0
 325 24 430 97 430 230 c 0
 430 333 360 384 283 384 c 0
 191 384 91 312 91 170 c 0
EndSplineSet
AlternateSubs2: "'aalt' Access All Alternates lookup 0 subtable" zero.lining zero.lining.sub zero.lining.sup zero.lining.denom zero.lining.numer
AlternateSubs2: "'aalt' Access All Alternates in Latin lookup 0 subtable" zero.lining zero.lining.sub zero.lining.sup zero.lining.denom zero.lining.numer
Substitution2: "lining_figures subtable" zero.lining
Substitution2: "'subs' Subscript in Latin lookup 8 subtable" zero.lining.sub
Substitution2: "'sups' Superscript in Latin lookup 7 subtable" zero.lining.sup
Substitution2: "denominators subtable" zero.lining.denom
Substitution2: "numerators subtable" zero.lining.numer
EndChar

StartChar: two
Encoding: 50 50 150
Width: 450
VWidth: 0
Flags: HW
PickledData: "(dp1
Vspacing_anchors_slanted
p2
I00
s."
HStem: 0 60<172.012 363.925> 400 33<168.232 292.479>
VStem: 76 67<293.581 364.977> 340 80<267.83 364.561>
AnchorPoint: "l;bl" 0 20 basechar 0
AnchorPoint: "l;o" 39 220 basechar 0
AnchorPoint: "l;x" 39 415 basechar 0
AnchorPoint: "r;bl" 431 20 basechar 0
AnchorPoint: "r;o" 450 220 basechar 0
AnchorPoint: "r;x" 440 415 basechar 0
LayerCount: 3
Fore
SplineSet
20 11 m 0
 20 27 97 48 194 128 c 0
 285 202 340 269 340 316 c 0
 340 379 262 400 235 400 c 0
 190 400 143 392 143 354 c 0
 143 333 158 311 158 297 c 0
 158 291 153 284 144 284 c 0
 111 284 76 287 76 319 c 0
 76 346 123 433 260 433 c 0
 334 433 420 403 420 325 c 0
 420 219 172 93 172 68 c 0
 172 61 188 60 217 60 c 2
 283 60 l 2
 360 60 374 91 393 113 c 0
 399 120 406 125 409 125 c 0
 417 125 421 120 421 114 c 0
 421 105 407 99 382 41 c 0
 380 36 369 0 350 0 c 2
 202 0 l 2
 92 0 70 -2 43 -2 c 0
 25 -2 20 3 20 11 c 0
EndSplineSet
AlternateSubs2: "'aalt' Access All Alternates lookup 0 subtable" two.lining two.lining.sub two.lining.sup two.lining.denom two.lining.numer
AlternateSubs2: "'aalt' Access All Alternates in Latin lookup 0 subtable" two.lining two.lining.sub two.lining.sup two.lining.denom two.lining.numer
Substitution2: "lining_figures subtable" two.lining
Substitution2: "'subs' Subscript in Latin lookup 8 subtable" two.lining.sub
Substitution2: "'sups' Superscript in Latin lookup 7 subtable" two.lining.sup
Substitution2: "denominators subtable" two.lining.denom
Substitution2: "numerators subtable" two.lining.numer
EndChar

StartChar: three
Encoding: 51 51 151
Width: 390
VWidth: 0
Flags: HW
PickledData: "(dp1
Vspacing_anchors_slanted
p2
I00
s."
HStem: -185 41<41.7225 168.764> 399 37<120.291 243.325>
VStem: 283 67<277.443 365.921> 292 68<-20.1197 78.3385>
AnchorPoint: "l;bl" 0 20 basechar 0
AnchorPoint: "l;k;lo" -29 -205 basechar 0
AnchorPoint: "l;o" 20 220 basechar 0
AnchorPoint: "l;x" 10 415 basechar 0
AnchorPoint: "r;bl" 390 20 basechar 0
AnchorPoint: "r;o" 390 220 basechar 0
AnchorPoint: "r;x" 390 415 basechar 0
LayerCount: 3
Fore
SplineSet
-20 -116 m 0xd0
 -20 -104 -13 -94 0 -94 c 0
 10 -94 45 -144 109 -144 c 0
 211 -144 292 -42 292 21 c 0xd0
 292 84 226 131 168 131 c 0
 147 131 96 123 93 123 c 0
 83 123 81 128 81 135 c 0
 81 151 109 150 169 184 c 0
 231 219 283 262 283 315 c 0
 283 362 238 399 174 399 c 0
 119 399 101 368 81 368 c 0
 69 368 67 376 67 382 c 0
 67 403 153 436 217 436 c 0
 271 436 350 418 350 344 c 0xe0
 350 264 273 226 237 201 c 0
 209 180 204 180 204 176 c 0
 204 164 360 167 360 53 c 0
 360 -30 251 -185 52 -185 c 0
 -3 -185 -20 -180 -20 -116 c 0xd0
EndSplineSet
AlternateSubs2: "'aalt' Access All Alternates lookup 0 subtable" three.lining three.lining.sub three.lining.sup three.lining.denom three.lining.numer
AlternateSubs2: "'aalt' Access All Alternates in Latin lookup 0 subtable" three.lining three.lining.sub three.lining.sup three.lining.denom three.lining.numer
Substitution2: "lining_figures subtable" three.lining
Substitution2: "'subs' Subscript in Latin lookup 8 subtable" three.lining.sub
Substitution2: "'sups' Superscript in Latin lookup 7 subtable" three.lining.sup
Substitution2: "denominators subtable" three.lining.denom
Substitution2: "numerators subtable" three.lining.numer
EndChar

StartChar: four
Encoding: 52 52 152
Width: 496
VWidth: 0
Flags: HW
PickledData: "(dp1
Vspacing_anchors_slanted
p2
I00
s."
HStem: -189 21G<280.5 316.5> 0 52<104.011 286.674 361.007 457.516> 403 20G<398.5 412>
VStem: 10 94<9.5 73> 287 55<-134.821 2.92712> 309 70<74.1678 297.925>
AnchorPoint: "l;bl" 0 20 basechar 0
AnchorPoint: "l;o" 68 220 basechar 0
AnchorPoint: "l;x" 146 415 basechar 0
AnchorPoint: "r;bl" 496 20 basechar 0
AnchorPoint: "r;lo" 379 -205 basechar 0
AnchorPoint: "r;o" 486 220 basechar 0
AnchorPoint: "r;x" 496 415 basechar 0
LayerCount: 3
Fore
SplineSet
10 14 m 0xf8
 10 34 36 54 62 81 c 2
 344 373 l 2
 358 388 389 423 408 423 c 0
 416 423 421 418 421 406 c 0
 421 379 407 365 388 240 c 2
 379 184 l 2xf4
 371 131 361 77 361 68 c 0
 361 57 370 52 388 52 c 0
 464 52 445 76 466 76 c 0
 471 76 477 73 477 64 c 0
 477 55 465 33 459 20 c 0
 453 8 443 0 428 0 c 0
 391 0 362 3 357 3 c 0
 344 3 349 -8 342 -83 c 0
 335 -155 341 -189 292 -189 c 0
 269 -189 261 -173 261 -165 c 0
 261 -151 287 -23 287 -14 c 0
 287 4 272 4 223 4 c 0
 107 4 97 -2 32 -2 c 0
 14 -2 10 5 10 14 c 0xf8
104 69 m 0
 104 55 119 53 170 53 c 0
 193 53 225 54 250 54 c 0
 257 54 265 54 272 54 c 2
 277 54 l 2
 304 54 300 66 309 119 c 0
 317 167 335 281 335 297 c 0
 335 305 334 312 331 312 c 0
 323 312 307 293 297 283 c 0
 236 223 104 77 104 69 c 0
EndSplineSet
AlternateSubs2: "'aalt' Access All Alternates lookup 0 subtable" four.lining four.lining.sub four.lining.sup four.lining.denom four.lining.numer
AlternateSubs2: "'aalt' Access All Alternates in Latin lookup 0 subtable" four.lining four.lining.sub four.lining.sup four.lining.denom four.lining.numer
Substitution2: "lining_figures subtable" four.lining
Substitution2: "'subs' Subscript in Latin lookup 8 subtable" four.lining.sub
Substitution2: "'sups' Superscript in Latin lookup 7 subtable" four.lining.sup
Substitution2: "denominators subtable" four.lining.denom
Substitution2: "numerators subtable" four.lining.numer
EndChar

StartChar: five
Encoding: 53 53 153
Width: 373
VWidth: 0
Flags: HW
PickledData: "(dp1
Vspacing_anchors_slanted
p2
I00
s."
HStem: -187 44<14.5 152.88> 361 65<119.888 346.698>
VStem: 282 61<1.65549 139.884>
AnchorPoint: "l;bl" 0 20 basechar 0
AnchorPoint: "l;k;lo" -44 -205 basechar 0
AnchorPoint: "l;o" 29 220 basechar 0
AnchorPoint: "l;x" 49 415 basechar 0
AnchorPoint: "r;bl" 373 20 basechar 0
AnchorPoint: "r;lo" 246 -205 basechar 0
AnchorPoint: "r;o" 373 220 basechar 0
AnchorPoint: "r;k;x" 392 415 basechar 0
LayerCount: 3
Back
SplineSet
-35 -115 m 4
 -35 -102 -32 -92 -19 -92 c 4
 4 -92 15 -143 102 -143 c 4
 176 -143 282 -69 282 59 c 4
 282 142 227 217 85 219 c 4
 60 219 49 218 49 239 c 4
 49 242 51 248 75 318 c 6
 102 400 l 6
 106 412 109 426 138 426 c 4
 157 426 167 420 233 420 c 4
 307 420 338 423 349 436 c 4
 354 442 365 462 375 462 c 4
 379 462 384 461 384 454 c 4
 384 442 374 434 350 388 c 4
 342 373 334 360 319 360 c 4
 257 360 215 360 186 360 c 4
 150 360 145 361 141 361 c 4
 134 361 123 359 120 342 c 4
 116 322 107 298 107 295 c 4
 107 262 230 296 306 207 c 4
 332 177 343 140 343 99 c 4
 343 30 309 -45 249 -104 c 4
 208 -144 146 -187 19 -187 c 4
 10 -187 -5 -185 -14 -175 c 4
 -22 -166 -35 -139 -35 -115 c 4
EndSplineSet
Fore
SplineSet
-35 -115 m 0
 -35 -102 -32 -92 -19 -92 c 0
 4 -92 15 -143 102 -143 c 0
 176 -143 282 -69 282 59 c 0
 282 143 226 219 79 219 c 0
 58 219 49 220 49 239 c 0
 49 242 51 248 75 318 c 2
 102 400 l 2
 106 412 109 426 138 426 c 0
 157 426 167 420 233 420 c 0
 307 420 338 423 349 436 c 0
 354 442 365 462 375 462 c 0
 379 462 384 461 384 454 c 0
 384 442 374 434 350 388 c 0
 342 373 334 360 319 360 c 2
 186 360 l 2
 150 360 145 361 141 361 c 0
 134 361 123 359 120 342 c 0
 116 322 107 298 107 295 c 0
 107 262 230 296 306 207 c 0
 332 177 343 140 343 99 c 0
 343 30 309 -45 249 -104 c 0
 208 -144 146 -187 19 -187 c 0
 10 -187 -5 -185 -14 -175 c 0
 -22 -166 -35 -139 -35 -115 c 0
EndSplineSet
AlternateSubs2: "'aalt' Access All Alternates lookup 0 subtable" five.lining five.lining.sub five.lining.sup five.lining.denom five.lining.numer
AlternateSubs2: "'aalt' Access All Alternates in Latin lookup 0 subtable" five.lining five.lining.sub five.lining.sup five.lining.denom five.lining.numer
Substitution2: "lining_figures subtable" five.lining
Substitution2: "'subs' Subscript in Latin lookup 8 subtable" five.lining.sub
Substitution2: "'sups' Superscript in Latin lookup 7 subtable" five.lining.sup
Substitution2: "denominators subtable" five.lining.denom
Substitution2: "numerators subtable" five.lining.numer
EndChar

StartChar: six
Encoding: 54 54 154
Width: 490
VWidth: 0
Flags: HW
PickledData: "(dp1
Vspacing_anchors_slanted
p2
I00
s."
HStem: -13 32<201.799 313.301> 399 36<190.698 298.882> 641 51<335.666 422.206>
VStem: 32 71<125.137 331.845> 388 75<127.679 304.097>
AnchorPoint: "l;o" 0 220 basechar 0
AnchorPoint: "l;t" 49 562 basechar 0
AnchorPoint: "l;x" 0 415 basechar 0
AnchorPoint: "r;o" 490 220 basechar 0
AnchorPoint: "r;hi" 460 732 basechar 0
AnchorPoint: "r;t" 460 562 basechar 0
AnchorPoint: "r;x" 460 415 basechar 0
LayerCount: 3
Fore
SplineSet
32 246 m 0
 32 464 266 692 421 692 c 0
 432 692 444 686 444 679 c 0
 444 656 410 670 348 641 c 0
 244 593 130 451 130 386 c 0
 130 383 132 381 134 381 c 0
 145 381 184 435 267 435 c 0
 401 435 463 336 463 232 c 0
 463 113 382 -13 236 -13 c 0
 74 -13 32 110 32 246 c 0
103 239 m 0
 103 96 184 19 260 19 c 0
 344 19 388 107 388 198 c 0
 388 297 337 399 232 399 c 0
 142 399 103 323 103 239 c 0
EndSplineSet
AlternateSubs2: "'aalt' Access All Alternates lookup 0 subtable" six.lining six.lining.sub six.lining.sup six.lining.denom six.lining.numer
AlternateSubs2: "'aalt' Access All Alternates in Latin lookup 0 subtable" six.lining six.lining.sub six.lining.sup six.lining.denom six.lining.numer
Substitution2: "lining_figures subtable" six.lining
Substitution2: "'subs' Subscript in Latin lookup 8 subtable" six.lining.sub
Substitution2: "'sups' Superscript in Latin lookup 7 subtable" six.lining.sup
Substitution2: "denominators subtable" six.lining.denom
Substitution2: "numerators subtable" six.lining.numer
EndChar

StartChar: seven
Encoding: 55 55 155
Width: 473
VWidth: 0
Flags: HW
PickledData: "(dp1
Vspacing_anchors_slanted
p2
I00
s."
HStem: 360 64<60.0427 364.994> 419 20G<435 446>
VStem: -23 100<-162.789 -103.382>
AnchorPoint: "l;bl" 0 20 basechar 0
AnchorPoint: "l;k;lo" -34 -205 basechar 0
AnchorPoint: "l;o" 0 220 basechar 0
AnchorPoint: "l;x" 0 415 basechar 0
AnchorPoint: "r;bl" 375 20 basechar 0
AnchorPoint: "r;lo" 307 -205 basechar 0
AnchorPoint: "r;o" 424 220 basechar 0
AnchorPoint: "r;x" 473 415 basechar 0
LayerCount: 3
Back
SplineSet
-23.4375 -151.85546875 m 4xe0
 -23.4375 -141.11328125 -15.13671875 -118.1640625 5.859375 -92.7734375 c 4
 61.5234375 -24.4140625 134.765625 74.70703125 211.42578125 165.0390625 c 4
 293.45703125 261.71875 365.234375 345.21484375 365.234375 355.46875 c 4
 365.234375 359.86328125 356.93359375 360.83984375 341.796875 360.83984375 c 4
 331.54296875 360.83984375 318.359375 360.3515625 302.24609375 360.3515625 c 6
 223.6328125 360.3515625 l 6
 192.87109375 360.3515625 143.06640625 357.421875 114.2578125 357.421875 c 4
 60.05859375 357.421875 63.4765625 346.19140625 58.10546875 334.47265625 c 4
 53.22265625 324.21875 54.19921875 314.94140625 39.0625 314.94140625 c 4
 24.90234375 314.94140625 19.53125 321.2890625 19.53125 331.54296875 c 4xd0
 19.53125 346.19140625 30.2734375 369.140625 39.55078125 392.08984375 c 4
 49.8046875 416.9921875 43.45703125 428.7109375 72.75390625 428.7109375 c 6
 89.35546875 428.7109375 l 6
 127.44140625 428.7109375 223.14453125 423.828125 331.54296875 423.828125 c 4
 353.02734375 423.828125 374.51171875 423.828125 396.484375 424.31640625 c 4
 422.36328125 424.8046875 426.7578125 439.453125 442.87109375 439.453125 c 4
 448.73046875 439.453125 453.125 436.5234375 453.125 427.734375 c 4
 453.125 413.57421875 434.5703125 396.97265625 418.9453125 375.9765625 c 6
 335.44921875 259.765625 l 5
 204.58984375 80.078125 260.7421875 162.109375 145.5078125 -10.7421875 c 4
 81.0546875 -107.421875 76.66015625 -115.234375 76.66015625 -134.765625 c 6
 76.66015625 -139.6484375 l 6
 76.66015625 -161.1328125 57.12890625 -163.0859375 51.7578125 -163.0859375 c 4
 41.9921875 -163.0859375 22.94921875 -162.59765625 -1.46484375 -162.59765625 c 4
 -13.18359375 -162.59765625 -23.4375 -160.64453125 -23.4375 -151.85546875 c 4xe0
EndSplineSet
Fore
SplineSet
-23 -152 m 0x60
 -23 -141 -15 -118 6 -93 c 0
 62 -25 134 75 211 165 c 0
 293 262 365 345 365 355 c 0
 365 359 357 361 342 361 c 0
 332 361 318 360 302 360 c 2
 224 360 l 2
 193 360 143 357 114 357 c 0
 60 357 63 346 58 334 c 0
 53 324 54 315 39 315 c 0
 25 315 20 322 20 332 c 0
 20 347 31 369 40 392 c 0
 50 417 44 429 73 429 c 2
 89 429 l 2
 127 429 224 424 332 424 c 0
 353 424 374 424 396 424 c 0xa0
 422 424 427 439 443 439 c 0
 449 439 453 437 453 428 c 0
 453 414 435 397 419 376 c 2
 335 260 l 1
 204 80 261 162 146 -11 c 0
 82 -108 77 -115 77 -135 c 2
 77 -140 l 2
 77 -161 57 -163 52 -163 c 0
 42 -163 23 -163 -1 -163 c 0
 -13 -163 -23 -161 -23 -152 c 0x60
EndSplineSet
AlternateSubs2: "'aalt' Access All Alternates lookup 0 subtable" seven.lining seven.lining.sub seven.lining.sup seven.lining.denom seven.lining.numer
AlternateSubs2: "'aalt' Access All Alternates in Latin lookup 0 subtable" seven.lining seven.lining.sub seven.lining.sup seven.lining.denom seven.lining.numer
Substitution2: "lining_figures subtable" seven.lining
Substitution2: "'subs' Subscript in Latin lookup 8 subtable" seven.lining.sub
Substitution2: "'sups' Superscript in Latin lookup 7 subtable" seven.lining.sup
Substitution2: "denominators subtable" seven.lining.denom
Substitution2: "numerators subtable" seven.lining.numer
EndChar

StartChar: eight
Encoding: 56 56 156
Width: 526
VWidth: 0
Flags: HW
PickledData: "(dp1
Vspacing_anchors_slanted
p2
I00
s."
HStem: -25 30<180.101 319.224> 340 53<257.969 304.331> 659 29<229.811 365.912>
VStem: 42 59<74.6674 235.286> 103 50<475.92 588.103> 426 68<103.317 245.649> 440 53<464.044 599.05>
AnchorPoint: "l;bl" 20 20 basechar 0
AnchorPoint: "l;o" 0 220 basechar 0
AnchorPoint: "l;hi" 107 732 basechar 0
AnchorPoint: "l;t" 49 562 basechar 0
AnchorPoint: "l;x" 20 415 basechar 0
AnchorPoint: "r;bl" 506 20 basechar 0
AnchorPoint: "r;o" 526 220 basechar 0
AnchorPoint: "r;hi" 477 732 basechar 0
AnchorPoint: "r;t" 526 562 basechar 0
AnchorPoint: "r;x" 516 415 basechar 0
LayerCount: 3
Fore
SplineSet
42 148 m 0xfc
 42 303 212 346 212 351 c 0
 212 357 103 411 103 511 c 0
 103 583 167 688 306 688 c 0
 399 688 493 643 493 539 c 0xfa
 493 409 356 390 356 380 c 0
 356 371 494 327 494 195 c 0
 494 63 382 -25 243 -25 c 0
 123 -25 42 46 42 148 c 0xfc
101 158 m 0
 101 87 143 5 247 5 c 0
 286 5 311 10 357 41 c 0
 394 66 426 109 426 178 c 0xfc
 426 238 383 278 339 303 c 0
 318 315 247 340 242 340 c 0
 233 340 169 310 143 271 c 0
 129 250 101 203 101 158 c 0
153 533 m 0
 153 434 314 393 324 393 c 0
 355 393 440 448 440 535 c 0xfa
 440 586 396 659 300 659 c 0
 224 659 153 618 153 533 c 0
EndSplineSet
AlternateSubs2: "'aalt' Access All Alternates lookup 0 subtable" eight.lining eight.lining.sub eight.lining.sup eight.lining.denom eight.lining.numer
AlternateSubs2: "'aalt' Access All Alternates in Latin lookup 0 subtable" eight.lining eight.lining.sub eight.lining.sup eight.lining.denom eight.lining.numer
Substitution2: "lining_figures subtable" eight.lining
Substitution2: "'subs' Subscript in Latin lookup 8 subtable" eight.lining.sub
Substitution2: "'sups' Superscript in Latin lookup 7 subtable" eight.lining.sup
Substitution2: "denominators subtable" eight.lining.denom
Substitution2: "numerators subtable" eight.lining.numer
EndChar

StartChar: nine
Encoding: 57 57 157
Width: 502
VWidth: 0
Flags: HW
PickledData: "(dp1
Vspacing_anchors_slanted
p2
I00
s."
HStem: -205 33<53.0073 150.569> -19 40<192.829 313.874> 400 34<187.075 298.424>
VStem: 32 71<116.165 281.555> 394 77<84.8414 294.913>
AnchorPoint: "l;bl" 10 20 basechar 0
AnchorPoint: "l;lo" 29 -205 basechar 0
AnchorPoint: "l;o" 0 220 basechar 0
AnchorPoint: "r;bl" 493 20 basechar 0
AnchorPoint: "r;lo" 424 -205 basechar 0
AnchorPoint: "r;o" 502 220 basechar 0
AnchorPoint: "r;x" 483 415 basechar 0
LayerCount: 3
Fore
SplineSet
32 184 m 0
 32 287 114 434 263 434 c 0
 370 434 471 366 471 211 c 0
 471 115 437 33 393 -31 c 0
 346 -99 285 -145 219 -177 c 0
 172 -199 128 -205 85 -205 c 0
 54 -205 53 -196 53 -188 c 0
 53 -173 63 -172 73 -172 c 0
 201 -172 335 -29 335 1 c 0
 335 3 334 5 331 5 c 0
 313 5 285 -19 230 -19 c 0
 133 -19 32 35 32 184 c 0
103 216 m 0
 103 131 151 21 266 21 c 0
 372 21 394 116 394 190 c 0
 394 307 317 400 246 400 c 0
 161 400 103 311 103 216 c 0
EndSplineSet
AlternateSubs2: "'aalt' Access All Alternates lookup 0 subtable" nine.lining nine.lining.sub nine.lining.sup nine.lining.denom nine.lining.numer
AlternateSubs2: "'aalt' Access All Alternates in Latin lookup 0 subtable" nine.lining nine.lining.sub nine.lining.sup nine.lining.denom nine.lining.numer
Substitution2: "lining_figures subtable" nine.lining
Substitution2: "'subs' Subscript in Latin lookup 8 subtable" nine.lining.sub
Substitution2: "'sups' Superscript in Latin lookup 7 subtable" nine.lining.sup
Substitution2: "denominators subtable" nine.lining.denom
Substitution2: "numerators subtable" nine.lining.numer
EndChar

StartChar: at
Encoding: 64 64 160
Width: 821
VWidth: 488
Flags: HW
PickledData: "(dp1
Vspacing_anchors_slanted
p2
I00
s."
HStem: -64 37<313.427 529.582> 111 56<295.373 381.786> 129 45<528.845 636.111> 456 32<392.32 498.668> 659 38<348.075 569.338>
VStem: 44 60<172.678 423.289> 217 67<179.616 304.028> 736 41<288.327 503.574>
AnchorPoint: "r;x" 821 415 basechar 0
AnchorPoint: "r;t" 821 562 basechar 0
AnchorPoint: "r;hi" 762 732 basechar 0
AnchorPoint: "r;o" 821 220 basechar 0
AnchorPoint: "r;bl" 762 20 basechar 0
AnchorPoint: "l;x" 0 415 basechar 0
AnchorPoint: "l;t" 0 562 basechar 0
AnchorPoint: "l;hi" 59 732 basechar 0
AnchorPoint: "l;o" 0 220 basechar 0
AnchorPoint: "l;bl" 59 20 basechar 0
LayerCount: 3
Fore
SplineSet
44 286 m 0xbf
 44 625 343 697 463 697 c 0
 652 697 777 559 777 392 c 0
 777 244 668 129 549 129 c 0xbf
 456 129 474 209 465 209 c 0
 456 209 400 111 310 111 c 0xdf
 244 111 217 152 217 208 c 0
 217 321 325 488 448 488 c 0
 480 488 511 479 520 479 c 0
 535 479 541 519 562 519 c 0
 570 519 570 509 570 500 c 0
 570 487 521 320 521 246 c 2
 521 233 l 2
 521 203 532 174 562 174 c 0
 658 174 736 246 736 397 c 0
 736 568 612 659 464 659 c 0
 267 659 104 516 104 297 c 0
 104 109 232 -27 423 -27 c 0
 566 -27 629 38 641 38 c 0
 646 38 652 35 652 26 c 0
 652 8 556 -64 405 -64 c 0
 197 -64 44 63 44 286 c 0xbf
284 227 m 0
 284 185 312 167 346 167 c 0xdf
 389 167 429 203 437 215 c 0
 448 231 451 238 462 281 c 0
 476 334 502 433 502 436 c 0
 502 444 464 456 440 456 c 0
 386 456 284 374 284 227 c 0
EndSplineSet
EndChar

StartChar: parenleft
Encoding: 40 40 161
Width: 288
VWidth: 488
Flags: HW
PickledData: "(dp1
Vspacing_anchors_slanted
p2
I00
s."
VStem: 63 41<48.3071 369.653>
AnchorPoint: "l;bl" 15 20 basechar 0
AnchorPoint: "l;lo" 78 -205 basechar 0
AnchorPoint: "l;o" 0 220 basechar 0
AnchorPoint: "l;hi" 137 732 basechar 0
AnchorPoint: "l;t" 49 562 basechar 0
AnchorPoint: "l;x" 15 415 basechar 0
AnchorPoint: "r;bl" 229 20 basechar 0
AnchorPoint: "r;lo" 256 -205 basechar 0
AnchorPoint: "r;o" 220 220 basechar 0
AnchorPoint: "r;k;hi" 354 732 basechar 0
AnchorPoint: "r;t" 288 562 basechar 0
AnchorPoint: "r;x" 229 415 basechar 0
LayerCount: 3
Fore
SplineSet
63 207 m 0
 63 546 298 772 326 772 c 0
 340 772 343 764 343 755 c 0
 343 716 146 631 109 277 c 0
 106 248 104 221 104 195 c 0
 104 -61 241 -168 241 -194 c 0
 241 -205 227 -214 220 -214 c 0
 192 -214 63 -36 63 207 c 0
EndSplineSet
AlternateSubs2: "'aalt' Access All Alternates lookup 0 subtable" parenleft.uppercase parenleft.sub parenleft.sup
AlternateSubs2: "'aalt' Access All Alternates in Latin lookup 0 subtable" parenleft.uppercase parenleft.sub parenleft.sup
Substitution2: "'case' Case-Sensitive Forms in Latin lookup 11 subtable" parenleft.uppercase
Substitution2: "'subs' Subscript in Latin lookup 8 subtable" parenleft.sub
Substitution2: "'sups' Superscript in Latin lookup 7 subtable" parenleft.sup
EndChar

StartChar: asterisk
Encoding: 42 42 162
Width: 431
VWidth: 0
Flags: HW
PickledData: "(dp1
Vspacing_anchors_slanted
p2
I00
s."
HStem: 401 94<167.656 186.997 244.065 263.812>
VStem: 184 63<282.507 400.996 495.004 613.501>
AnchorPoint: "l;o" 29 220 basechar 0
AnchorPoint: "l;t" 0 562 basechar 0
AnchorPoint: "l;x" 0 415 basechar 0
AnchorPoint: "r;o" 402 220 basechar 0
AnchorPoint: "r;t" 431 562 basechar 0
AnchorPoint: "r;x" 431 415 basechar 0
LayerCount: 3
Fore
SplineSet
59 383 m 0
 59 405 167 438 167 447 c 0
 167 458 59 492 59 513 c 0
 59 522 71 548 91 548 c 0
 107 548 173 495 182 495 c 0
 185 495 187 500 187 514 c 0
 187 535 184 567 184 593 c 0
 184 610 189 614 210 614 c 0
 240 614 247 612 247 578 c 0
 247 560 243 533 243 513 c 0
 243 499 245 495 248 495 c 0
 259 495 328 549 340 549 c 0
 358 549 373 526 373 514 c 0
 373 493 264 458 264 448 c 0
 264 436 373 404 373 383 c 0
 373 373 360 348 339 348 c 0
 324 348 256 401 249 401 c 0
 245 401 244 396 244 382 c 0
 244 363 247 339 247 324 c 0
 247 286 244 282 211 282 c 0
 196 282 184 285 184 306 c 0
 184 324 187 355 187 378 c 0
 187 395 186 401 182 401 c 0
 173 401 103 348 91 348 c 0
 72 348 59 373 59 383 c 0
EndSplineSet
EndChar

StartChar: plus
Encoding: 43 43 163
Width: 508
VWidth: 488
Flags: HW
PickledData: "(dp1
Vspacing_anchors_slanted
p2
I00
s."
HStem: -22 21G<246 261.5> 188 44<21.0034 231 276.086 485.999>
VStem: 231 45<-21.9956 187.996 232 441.995>
AnchorPoint: "l;bl" 0 20 basechar 0
AnchorPoint: "l;o" 0 220 basechar 0
AnchorPoint: "l;x" 0 415 basechar 0
AnchorPoint: "r;bl" 508 20 basechar 0
AnchorPoint: "r;o" 508 220 basechar 0
AnchorPoint: "r;x" 508 415 basechar 0
LayerCount: 3
Fore
SplineSet
21 212 m 0
 21 225 22 232 40 232 c 2
 209 232 l 2
 228 232 231 240 231 251 c 2
 231 427 l 2
 231 442 238 442 252 442 c 0
 266 442 276 442 276 422 c 2
 276 259 l 2
 276 245 277 232 293 232 c 2
 470 232 l 2
 486 232 486 225 486 211 c 0
 486 194 486 188 465 188 c 2
 293 188 l 2
 276 188 276 182 276 170 c 2
 276 -5 l 2
 276 -22 267 -22 256 -22 c 0
 236 -22 231 -22 231 -4 c 2
 231 170 l 2
 231 188 225 188 208 188 c 2
 39 188 l 2
 21 188 21 195 21 212 c 0
EndSplineSet
EndChar

StartChar: slash
Encoding: 47 47 164
Width: 416
VWidth: 488
Flags: HW
PickledData: "(dp1
Vspacing_anchors_slanted
p2
I00
s."
HStem: -183 21G<40 53.5>
DStem2: 39 -113 78 -152 0.343557 0.939132<-59.6482 907.357>
AnchorPoint: "l;bl" 29 20 basechar 0
AnchorPoint: "l;lo" 0 -205 basechar 0
AnchorPoint: "l;o" 49 220 basechar 0
AnchorPoint: "l;hi" 117 732 basechar 0
AnchorPoint: "l;t" 88 562 basechar 0
AnchorPoint: "l;x" 68 415 basechar 0
AnchorPoint: "r;bl" 328 20 basechar 0
AnchorPoint: "r;lo" 298 -205 basechar 0
AnchorPoint: "r;o" 357 220 basechar 0
AnchorPoint: "r;hi" 416 732 basechar 0
AnchorPoint: "r;t" 396 562 basechar 0
AnchorPoint: "r;x" 376 415 basechar 0
LayerCount: 3
Fore
SplineSet
20 -170 m 0
 20 -161 31 -136 39 -113 c 2
 39 -113 344 710 346 717 c 0
 351 732 357 735 375 735 c 0
 384 735 396 733 396 723 c 0
 396 714 387 692 382 679 c 2
 78 -152 l 2
 67 -183 61 -183 46 -183 c 0
 34 -183 20 -183 20 -170 c 0
EndSplineSet
AlternateSubs2: "'aalt' Access All Alternates lookup 0 subtable" fraction
AlternateSubs2: "'aalt' Access All Alternates in Latin lookup 0 subtable" fraction
Substitution2: "numerators subtable" fraction
EndChar

StartChar: less
Encoding: 60 60 165
Width: 508
VWidth: 488
Flags: HW
PickledData: "(dp1
Vspacing_anchors_slanted
p2
I00
s."
AnchorPoint: "r;x" 508 415 basechar 0
AnchorPoint: "r;o" 508 220 basechar 0
AnchorPoint: "r;bl" 508 20 basechar 0
AnchorPoint: "l;x" 0 415 basechar 0
AnchorPoint: "l;o" 0 220 basechar 0
AnchorPoint: "l;bl" 0 20 basechar 0
LayerCount: 3
Fore
SplineSet
31 211 m 0
 31 221 31 225 46 231 c 0
 453 379 452 381 458 381 c 0
 467 381 477 377 477 356 c 0
 477 347 469 342 461 340 c 2
 156 229 l 2
 137 222 114 213 114 208 c 0
 114 203 136 197 156 190 c 2
 466 78 l 2
 472 76 477 72 477 65 c 0
 477 57 472 41 454 41 c 0
 448 41 450 41 45 188 c 0
 31 193 31 197 31 211 c 0
EndSplineSet
EndChar

StartChar: equal
Encoding: 61 61 166
Width: 508
VWidth: 488
Flags: HW
PickledData: "(dp1
Vspacing_anchors_slanted
p2
I00
s."
HStem: 90 45<21.0034 485.998> 286 44<21.0034 485.999>
AnchorPoint: "r;x" 508 415 basechar 0
AnchorPoint: "r;o" 508 220 basechar 0
AnchorPoint: "r;bl" 508 20 basechar 0
AnchorPoint: "l;x" 0 415 basechar 0
AnchorPoint: "l;o" 0 220 basechar 0
AnchorPoint: "l;bl" 0 20 basechar 0
LayerCount: 3
Fore
SplineSet
21 114 m 0
 21 127 22 135 40 135 c 2
 470 135 l 2
 486 135 486 128 486 114 c 0
 486 97 486 90 465 90 c 2
 39 90 l 2
 21 90 21 97 21 114 c 0
21 310 m 0
 21 323 22 330 40 330 c 2
 470 330 l 2
 486 330 486 323 486 309 c 0
 486 292 486 286 465 286 c 2
 39 286 l 2
 21 286 21 293 21 310 c 0
EndSplineSet
EndChar

StartChar: greater
Encoding: 62 62 167
Width: 508
VWidth: 488
Flags: HW
PickledData: "(dp1
Vspacing_anchors_slanted
p2
I00
s."
AnchorPoint: "r;x" 508 415 basechar 0
AnchorPoint: "r;o" 508 220 basechar 0
AnchorPoint: "r;bl" 508 20 basechar 0
AnchorPoint: "l;x" 0 415 basechar 0
AnchorPoint: "l;o" 0 220 basechar 0
AnchorPoint: "l;bl" 0 20 basechar 0
LayerCount: 3
Fore
SplineSet
31 65 m 0
 31 72 36 76 42 78 c 2
 352 190 l 2
 372 197 394 203 394 208 c 0
 394 213 371 222 352 229 c 2
 46 340 l 2
 38 342 31 347 31 356 c 0
 31 377 40 381 49 381 c 0
 55 381 54 379 461 231 c 0
 476 225 477 221 477 211 c 0
 477 197 476 193 462 188 c 0
 57 41 60 41 54 41 c 0
 36 41 31 57 31 65 c 0
EndSplineSet
EndChar

StartChar: parenright
Encoding: 41 41 168
Width: 288
VWidth: 488
Flags: HW
PickledData: "(dp1
Vspacing_anchors_slanted
p2
I00
s."
VStem: 184 41<188.347 510.554>
AnchorPoint: "l;bl" 0 20 basechar 0
AnchorPoint: "l;k;lo" -66 -205 basechar 0
AnchorPoint: "l;o" 59 220 basechar 0
AnchorPoint: "l;hi" 29 732 basechar 0
AnchorPoint: "l;t" 49 562 basechar 0
AnchorPoint: "l;x" 78 415 basechar 0
AnchorPoint: "r;bl" 249 20 basechar 0
AnchorPoint: "r;lo" 122 -205 basechar 0
AnchorPoint: "r;o" 288 220 basechar 0
AnchorPoint: "r;hi" 210 732 basechar 0
AnchorPoint: "r;t" 269 562 basechar 0
AnchorPoint: "r;x" 288 415 basechar 0
LayerCount: 3
Fore
SplineSet
-55 -197 m 0
 -55 -158 142 -73 179 281 c 0
 182 310 184 337 184 363 c 0
 184 619 47 727 47 753 c 0
 47 764 61 772 68 772 c 0
 96 772 225 595 225 352 c 0
 225 13 -10 -214 -38 -214 c 0
 -52 -214 -55 -206 -55 -197 c 0
EndSplineSet
AlternateSubs2: "'aalt' Access All Alternates lookup 0 subtable" parenright.uppercase parenright.sub parenright.sup
AlternateSubs2: "'aalt' Access All Alternates in Latin lookup 0 subtable" parenright.uppercase parenright.sub parenright.sup
Substitution2: "'case' Case-Sensitive Forms in Latin lookup 11 subtable" parenright.uppercase
Substitution2: "'subs' Subscript in Latin lookup 8 subtable" parenright.sub
Substitution2: "'sups' Superscript in Latin lookup 7 subtable" parenright.sup
EndChar

StartChar: numbersign
Encoding: 35 35 169
Width: 533
VWidth: 488
Flags: HW
PickledData: "(dp1
Vspacing_anchors_slanted
p2
I00
s."
HStem: 121 42<59.0001 150.999 201.451 306.913 356.028 474.98> 305 42<59.0175 176.998 228.001 332 383.001 474.89>
VStem: 151 42<-35.5 120.692> 158 43<163 295.956> 177 42<168.29 305> 186 42<347 497.532> 307 42<-34.4978 121> 341 42<347 504.36>
AnchorPoint: "l;bl" 0 20 basechar 0
AnchorPoint: "l;o" 0 220 basechar 0
AnchorPoint: "l;t" 0 562 basechar 0
AnchorPoint: "l;x" 0 415 basechar 0
AnchorPoint: "r;bl" 533 20 basechar 0
AnchorPoint: "r;o" 533 220 basechar 0
AnchorPoint: "r;t" 533 562 basechar 0
AnchorPoint: "r;x" 533 415 basechar 0
LayerCount: 3
Fore
SplineSet
59 139 m 0xe2
 59 140 59 141 59 142 c 0
 59 156 59 163 73 163 c 2
 155 163 l 2
 157 163 158 163 158 165 c 0xd0
 164 210 177 295 177 300 c 0
 177 304 174 305 170 305 c 2
 75 305 l 2
 65 305 59 307 59 325 c 0
 59 339 62 347 75 347 c 2
 177 347 l 2xc8
 183 347 186 349 186 354 c 0
 212 540 209 538 212 543 c 0
 216 549 220 550 234 550 c 0
 241 550 254 549 254 538 c 0
 254 532 228 358 228 352 c 0
 228 348 229 347 234 347 c 2
 332 347 l 2
 336 347 340 348 341 354 c 0
 367 540 366 540 369 544 c 0
 373 550 380 550 392 550 c 0
 400 550 408 550 408 540 c 0
 408 531 383 361 383 352 c 0xc5
 383 349 384 347 388 347 c 2
 457 347 l 2
 471 347 475 339 475 322 c 0
 475 307 469 305 460 305 c 2
 379 305 l 2
 375 305 375 302 374 299 c 1
 368 256 356 173 356 169 c 0
 356 165 358 163 363 163 c 2
 458 163 l 2
 468 163 475 161 475 143 c 0
 475 128 471 121 458 121 c 2
 360 121 l 2
 351 121 350 117 349 111 c 0
 324 -66 331 -66 303 -66 c 0
 289 -66 284 -60 284 -53 c 0
 284 -47 307 110 307 115 c 0
 307 120 304 121 300 121 c 2
 234 121 l 2
 195 121 194 119 193 113 c 0
 170 -58 170 -55 169 -58 c 0
 165 -64 160 -66 146 -66 c 0
 137 -66 128 -63 128 -53 c 0
 128 -47 151 109 151 114 c 0
 151 119 149 121 143 121 c 2
 73 121 l 2
 60 121 59 129 59 139 c 0xe2
201 168 m 0
 201 164 204 163 209 163 c 2
 304 163 l 2
 308 163 313 163 314 170 c 0
 327 265 332 292 332 300 c 0
 332 303 332 305 326 305 c 2
 228 305 l 2xc4
 222 305 220 302 219 298 c 0xc8
 213 255 201 173 201 168 c 0
EndSplineSet
EndChar

StartChar: percent
Encoding: 37 37 170
Width: 771
VWidth: 488
Flags: HW
PickledData: "(dp1
Vspacing_anchors_slanted
p2
I00
s."
HStem: -78 32<484.398 555.089> 220 27<160.083 227.967> 262 31<529.33 601.777> 484 24<367.961 458.942> 548 29<204.131 275.587>
VStem: 59 72<271.022 440.735> 297 63<349.441 494> 386 71<-22.7545 162.796> 626 66<65.554 244.321>
AnchorPoint: "l;bl" 0 20 basechar 0
AnchorPoint: "l;lo" 59 -205 basechar 0
AnchorPoint: "l;o" 0 220 basechar 0
AnchorPoint: "l;t" 29 562 basechar 0
AnchorPoint: "l;x" 0 415 basechar 0
AnchorPoint: "r;bl" 771 20 basechar 0
AnchorPoint: "r;lo" 712 -205 basechar 0
AnchorPoint: "r;o" 771 220 basechar 0
AnchorPoint: "r;hi" 771 732 basechar 0
AnchorPoint: "r;t" 771 562 basechar 0
AnchorPoint: "r;x" 771 415 basechar 0
LayerCount: 3
Fore
SplineSet
59 344 m 0
 59 441 138 577 258 577 c 0
 333 577 346 508 408 508 c 0
 489 508 589 611 619 638 c 0
 625 644 632 646 637 646 c 0
 644 646 646 642 646 637 c 0
 646 630 641 621 638 616 c 0
 167 -88 184 -85 172 -89 c 0
 169 -90 165 -91 162 -91 c 0
 145 -91 129 -78 129 -67 c 0
 129 -53 138 -42 169 3 c 2
 334 240 l 2
 462 424 536 516 536 524 c 0
 536 527 534 528 532 528 c 0
 525 528 471 484 410 484 c 0
 386 484 365 494 361 494 c 0
 360 494 360 494 360 493 c 0
 360 491 362 484 362 474 c 0
 362 401 353 362 311 300 c 0
 288 266 248 220 169 220 c 0
 133 220 59 256 59 344 c 0
131 364 m 0
 131 291 153 247 191 247 c 0
 260 247 297 364 297 456 c 0
 297 508 279 548 250 548 c 0
 170 548 131 449 131 364 c 0
386 64 m 0
 386 168 459 293 584 293 c 0
 660 293 692 238 692 170 c 0
 692 62 612 -78 507 -78 c 0
 425 -78 386 -12 386 64 c 0
457 73 m 0
 457 0 479 -46 517 -46 c 0
 581 -46 626 73 626 165 c 0
 626 217 605 262 576 262 c 0
 496 262 457 158 457 73 c 0
EndSplineSet
EndChar

StartChar: backslash
Encoding: 92 92 171
Width: 416
VWidth: 488
Flags: HW
PickledData: "(dp1
Vspacing_anchors_slanted
p2
I00
s."
HStem: -183 21G<358.5 368.5>
DStem2: 70 717 34 679 0.343557 -0.939132<-22.4053 941.784>
AnchorPoint: "l;bl" 117 20 basechar 0
AnchorPoint: "l;lo" 156 -205 basechar 0
AnchorPoint: "l;o" 78 220 basechar 0
AnchorPoint: "l;hi" 0 732 basechar 0
AnchorPoint: "l;t" 10 562 basechar 0
AnchorPoint: "l;x" 39 415 basechar 0
AnchorPoint: "r;bl" 367 20 basechar 0
AnchorPoint: "r;lo" 416 -205 basechar 0
AnchorPoint: "r;o" 347 220 basechar 0
AnchorPoint: "r;hi" 259 732 basechar 0
AnchorPoint: "r;t" 298 562 basechar 0
AnchorPoint: "r;x" 318 415 basechar 0
LayerCount: 3
Fore
SplineSet
20 723 m 0
 20 733 32 735 41 735 c 0
 59 735 65 732 70 717 c 0
 72 710 377 -113 377 -113 c 2
 385 -136 396 -158 396 -167 c 0
 396 -183 374 -183 363 -183 c 0
 354 -183 349 -181 338 -152 c 2
 34 679 l 2
 29 692 20 714 20 723 c 0
EndSplineSet
EndChar

StartChar: bracketright
Encoding: 93 93 172
Width: 266
VWidth: 488
Flags: HMW
PickledData: "(dp1
Vspacing_anchors_slanted
p2
I00
s."
HStem: -204 41<-50.9094 70.589> 718 46<49.7701 161.999>
DStem2: 86 1 128 -10 0.107785 0.994174<-167.262 0 705.108 718.913>
AnchorPoint: "l;bl" 0 20 basechar 0
AnchorPoint: "l;k;lo" -81 -205 basechar 0
AnchorPoint: "l;o" 21 220 basechar 0
AnchorPoint: "l;hi" 20 732 basechar 0
AnchorPoint: "l;t" 55 562 basechar 0
AnchorPoint: "l;x" 41 415 basechar 0
AnchorPoint: "r;bl" 208 20 basechar 0
AnchorPoint: "r;lo" 185 -205 basechar 0
AnchorPoint: "r;o" 230 220 basechar 0
AnchorPoint: "r;k;hi" 284 732 basechar 0
AnchorPoint: "r;t" 266 562 basechar 0
AnchorPoint: "r;x" 252 415 basechar 0
LayerCount: 3
Fore
SplineSet
-51 -186 m 0
 -51 -175 -46 -163 -38 -163 c 0
 -21 -163 35 -163 59 -163 c 2
 63 -163 l 2
 73 -163 69 -162 86 1 c 0
 104 169 162 661 162 702 c 0
 162 711 160 718 153 718 c 0
 136 718 77 718 69 718 c 0
 54 718 49 721 49 733 c 0
 49 746 53 762 67 762 c 0
 114 763 79 764 184 764 c 0
 205 764 211 760 211 738 c 0
 211 729 209 719 208 703 c 2
 202 642 l 2
 185 483 149 188 128 -10 c 0
 117 -111 114 -161 112 -178 c 0
 110 -201 97 -204 63 -204 c 2
 23 -204 l 2
 -26 -204 -32 -204 -38 -204 c 0
 -46 -204 -51 -196 -51 -186 c 0
EndSplineSet
AlternateSubs2: "'aalt' Access All Alternates lookup 0 subtable" bracketright.uppercase bracketright.sub bracketright.sup
AlternateSubs2: "'aalt' Access All Alternates in Latin lookup 0 subtable" bracketright.uppercase bracketright.sub bracketright.sup
Substitution2: "'case' Case-Sensitive Forms in Latin lookup 11 subtable" bracketright.uppercase
Substitution2: "'subs' Subscript in Latin lookup 8 subtable" bracketright.sub
Substitution2: "'sups' Superscript in Latin lookup 7 subtable" bracketright.sup
EndChar

StartChar: asciicircum
Encoding: 94 94 173
Width: 333
VWidth: 488
Flags: HMW
PickledData: "(dp1
Vspacing_anchors_slanted
p2
I00
s."
HStem: 468 53<143.977 179.554>
AnchorPoint: "l;o" 0 220 basechar 0
AnchorPoint: "l;t" 0 562 basechar 0
AnchorPoint: "l;x" 0 415 basechar 0
AnchorPoint: "r;o" 333 220 basechar 0
AnchorPoint: "r;t" 333 562 basechar 0
AnchorPoint: "r;x" 333 415 basechar 0
LayerCount: 3
Fore
SplineSet
29 331 m 0
 29 336 38 350 42 356 c 0
 129 502 135 521 162 521 c 0
 190 521 196 501 282 356 c 0
 286 350 293 334 293 329 c 0
 293 322 284 321 275 321 c 0
 269 321 264 321 260 321 c 0
 243 321 238 339 230 354 c 0
 185 437 171 468 162 468 c 0
 152 468 139 437 94 354 c 0
 86 339 80 322 63 322 c 0
 60 322 54 322 49 322 c 0
 39 322 29 324 29 331 c 0
EndSplineSet
EndChar

StartChar: underscore
Encoding: 95 95 174
Width: 213
VWidth: 488
Flags: HW
PickledData: "(dp1
Vspacing_anchors_slanted
p2
I00
s."
HStem: -62 45<0.00341797 212.998>
VStem: 0 213<-62 -17>
AnchorPoint: "l;bl" 0 20 basechar 0
AnchorPoint: "l;lo" 0 -205 basechar 0
AnchorPoint: "l;o" 0 220 basechar 0
AnchorPoint: "r;bl" 213 20 basechar 0
AnchorPoint: "r;lo" 213 -205 basechar 0
AnchorPoint: "r;o" 213 220 basechar 0
LayerCount: 3
Fore
SplineSet
0 -38 m 0
 0 -25 1 -17 19 -17 c 2
 197 -17 l 2
 213 -17 213 -24 213 -38 c 0
 213 -55 213 -62 192 -62 c 2
 18 -62 l 2
 0 -62 0 -55 0 -38 c 0
EndSplineSet
EndChar

StartChar: braceleft
Encoding: 123 123 175
Width: 266
VWidth: 488
Flags: HMW
PickledData: "(dp1
Vspacing_anchors_slanted
p2
I00
s."
HStem: -186 26G<59 71.5 197.5 203.5> 685 59<196 275.784> 732 20G<163.5 176.5>
DStem2: 52 -175 114 -106 0.105026 0.994469<67.948 75.13 385.398 420.472 462.859 499.138 861.417 873.986>
AnchorPoint: "r;x" 246 415 basechar 0
AnchorPoint: "r;t" 266 562 basechar 0
AnchorPoint: "r;k;hi" 327 732 basechar 0
AnchorPoint: "r;o" 227 220 basechar 0
AnchorPoint: "r;lo" 232 -205 basechar 0
AnchorPoint: "r;bl" 207 20 basechar 0
AnchorPoint: "l;x" 43 415 basechar 0
AnchorPoint: "l;t" 60 562 basechar 0
AnchorPoint: "l;hi" 77 732 basechar 0
AnchorPoint: "l;o" 23 220 basechar 0
AnchorPoint: "l;k;lo" -18 -205 basechar 0
AnchorPoint: "l;bl" 0 20 basechar 0
LayerCount: 3
Fore
SplineSet
52 -175 m 0xc0
 52 -161 95 192 95 208 c 0
 95 240 68 239 68 263 c 0
 68 299 105 287 108 321 c 0
 122 450 133 589 148 734 c 0
 149 749 160 752 167 752 c 0xa0
 186 752 201 744 224 744 c 0
 258 744 271 750 287 750 c 0
 293 750 303 748 303 741 c 0
 303 707 233 685 204 685 c 0
 200 685 196 680 196 676 c 16
 146 239 114 -104 114 -106 c 0
 114 -116 152 -114 180 -131 c 0
 186 -135 208 -150 208 -169 c 0
 208 -174 207 -181 200 -181 c 0
 195 -181 170 -172 133 -172 c 0
 84 -172 81 -186 62 -186 c 0
 56 -186 52 -181 52 -175 c 0xc0
EndSplineSet
AlternateSubs2: "'aalt' Access All Alternates lookup 0 subtable" braceleft.uppercase
AlternateSubs2: "'aalt' Access All Alternates in Latin lookup 0 subtable" braceleft.uppercase
Substitution2: "'case' Case-Sensitive Forms in Latin lookup 11 subtable" braceleft.uppercase
EndChar

StartChar: bar
Encoding: 124 124 176
Width: 209
VWidth: 488
Flags: HW
PickledData: "(dp1
Vspacing_anchors_slanted
p2
I00
s."
VStem: 78 50<-208.515 761.364>
AnchorPoint: "l;bl" 0 20 basechar 0
AnchorPoint: "l;lo" 0 -205 basechar 0
AnchorPoint: "l;o" 0 220 basechar 0
AnchorPoint: "l;hi" 0 732 basechar 0
AnchorPoint: "l;t" 0 562 basechar 0
AnchorPoint: "l;x" 0 415 basechar 0
AnchorPoint: "r;bl" 209 20 basechar 0
AnchorPoint: "r;lo" 209 -205 basechar 0
AnchorPoint: "r;o" 209 220 basechar 0
AnchorPoint: "r;hi" 209 732 basechar 0
AnchorPoint: "r;t" 209 562 basechar 0
AnchorPoint: "r;x" 209 415 basechar 0
LayerCount: 3
Fore
SplineSet
78 -87 m 2
 78 72 84 372 84 570 c 0
 84 671 83 721 83 738 c 0
 83 755 89 762 108 762 c 0
 127 762 130 754 130 737 c 0
 130 731 129 723 129 714 c 0
 129 698 131 652 131 559 c 0
 131 402 126 160 126 10 c 0
 126 -32 126 -87 127 -137 c 0
 127 -142 128 -152 128 -163 c 2
 128 -171 l 2
 128 -190 127 -209 111 -209 c 0
 81 -209 78 -203 78 -148 c 2
 78 -87 l 2
EndSplineSet
EndChar

StartChar: braceright
Encoding: 125 125 177
Width: 266
VWidth: 488
Flags: HMW
PickledData: "(dp1
Vspacing_anchors_slanted
p2
I00
s."
HStem: -181 16G<-30.5 -25.5 98.5 118.5> 685 65<81.6753 154.357> 732 20G<191.5 204.5>
DStem2: 73 -105 158 202 0.104288 0.994547<103.787 358.512 403.793 429.606 786.287 793.43>
AnchorPoint: "r;x" 252 415 basechar 0
AnchorPoint: "r;t" 266 562 basechar 0
AnchorPoint: "r;k;hi" 284 732 basechar 0
AnchorPoint: "r;o" 230 220 basechar 0
AnchorPoint: "r;lo" 185 -205 basechar 0
AnchorPoint: "r;bl" 208 20 basechar 0
AnchorPoint: "l;x" 41 415 basechar 0
AnchorPoint: "l;t" 55 562 basechar 0
AnchorPoint: "l;hi" 28 732 basechar 0
AnchorPoint: "l;o" 21 220 basechar 0
AnchorPoint: "l;k;lo" -70 -205 basechar 0
AnchorPoint: "l;bl" 0 20 basechar 0
LayerCount: 3
Fore
SplineSet
-35 -174 m 0xa0
 -35 -157 -13 -139 2 -131 c 0
 34 -114 72 -115 73 -105 c 0
 115 286 78 -106 155 677 c 0
 155 681 152 685 149 685 c 0
 125 685 62 702 62 737 c 0
 62 745 66 750 80 750 c 0xc0
 96 750 108 744 142 744 c 0
 165 744 182 752 201 752 c 0
 208 752 215 749 215 737 c 0
 215 720 168 331 168 317 c 0
 168 290 197 297 197 271 c 0
 197 237 162 244 158 202 c 0
 117 -175 129 -186 108 -186 c 0
 89 -186 90 -172 41 -172 c 0
 4 -172 -23 -181 -28 -181 c 0
 -33 -181 -35 -177 -35 -174 c 0xa0
EndSplineSet
AlternateSubs2: "'aalt' Access All Alternates lookup 0 subtable" braceright.uppercase
AlternateSubs2: "'aalt' Access All Alternates in Latin lookup 0 subtable" braceright.uppercase
Substitution2: "'case' Case-Sensitive Forms in Latin lookup 11 subtable" braceright.uppercase
EndChar

StartChar: asciitilde
Encoding: 126 126 178
Width: 380
VWidth: 488
Flags: HW
PickledData: "(dp1
Vspacing_anchors_slanted
p2
I00
s."
HStem: 164 56<194.336 292.013> 210 55<84.5882 171.179>
VStem: 29 322
AnchorPoint: "l;o" 0 220 basechar 0
AnchorPoint: "r;o" 380 220 basechar 0
LayerCount: 3
Fore
SplineSet
29 172 m 0x60
 29 175 78 265 134 265 c 0x60
 180 265 205 220 251 220 c 0
 299 220 320 269 331 269 c 0
 344 269 351 262 351 254 c 0
 351 249 299 164 234 164 c 0xa0
 181 164 163 210 121 210 c 0
 75 210 58 156 49 156 c 0
 36 156 29 160 29 172 c 0x60
EndSplineSet
EndChar

StartChar: minus
Encoding: 8722 8722 179
Width: 508
VWidth: 488
Flags: HW
PickledData: "(dp1
Vspacing_anchors_slanted
p2
I00
s."
HStem: 188 44<21.0034 485.999>
AnchorPoint: "r;x" 508 415 basechar 0
AnchorPoint: "r;o" 508 220 basechar 0
AnchorPoint: "r;bl" 508 20 basechar 0
AnchorPoint: "l;x" 0 415 basechar 0
AnchorPoint: "l;o" 0 220 basechar 0
AnchorPoint: "l;bl" 0 20 basechar 0
LayerCount: 3
Fore
SplineSet
21 212 m 0
 21 225 22 232 40 232 c 2
 470 232 l 2
 486 232 486 225 486 211 c 0
 486 194 486 188 465 188 c 2
 39 188 l 2
 21 188 21 195 21 212 c 0
EndSplineSet
EndChar

StartChar: Euro
Encoding: 8364 8364 180
Width: 614
VWidth: 488
Flags: HW
PickledData: "(dp1
Vspacing_anchors_slanted
p2
I00
s."
HStem: 10 47<266.471 452.162> 204 48<42 97 155 440> 291 47<39 97 155 477> 485 47<265.202 451.269>
VStem: 97 48<252 291>
AnchorPoint: "l;bl" 39 20 basechar 0
AnchorPoint: "l;o" 0 220 basechar 0
AnchorPoint: "l;t" 39 562 basechar 0
AnchorPoint: "l;x" 0 415 basechar 0
AnchorPoint: "r;bl" 575 20 basechar 0
AnchorPoint: "r;o" 614 220 basechar 0
AnchorPoint: "r;t" 575 562 basechar 0
AnchorPoint: "r;x" 614 415 basechar 0
LayerCount: 3
Fore
SplineSet
20 291 m 1
 39 338 l 1
 105 338 l 1
 149 488 280 532 352 532 c 0
 429 532 485 510 545 454 c 1
 532 421 523 404 523 404 c 1
 513 421 457 485 356 485 c 0
 289 485 196 450 155 338 c 1
 496 338 l 1
 477 291 l 1
 145 291 l 1
 145 287 144 280 144 271 c 0
 144 262 145 256 145 252 c 1
 460 252 l 1
 440 204 l 1
 155 204 l 1
 190 100 287 57 355 57 c 0
 464 57 521 130 523 132 c 1
 526 132 l 1
 526 71 l 1
 479 33 425 10 358 10 c 0
 271 10 151 55 105 204 c 1
 23 204 l 1
 42 252 l 1
 97 252 l 1
 97 291 l 1
 20 291 l 1
EndSplineSet
EndChar

StartChar: germandbls
Encoding: 223 223 246
Width: 509
VWidth: 0
Flags: HMW
PickledData: "(dp1
Vspacing_anchors_slanted
p2
I00
s."
HStem: -189 42<-15.5 47.6378> -14 32<281.554 373.84> 698 42<273.614 370.172>
VStem: -43 42<-142.746 -101.967> 254 57<322.109 396.188> 399 61<50.8383 146.427 550.822 669.945>
AnchorPoint: "l;x" 39 415 basechar 0
AnchorPoint: "l;t" 68 562 basechar 0
AnchorPoint: "l;hi" 132 732 basechar 0
AnchorPoint: "l;o" 15 220 basechar 0
AnchorPoint: "l;k;lo" -63 -205 basechar 0
AnchorPoint: "l;bl" 0 20 basechar 0
AnchorPoint: "r;bl" 509 20 basechar 0
AnchorPoint: "r;o" 509 220 basechar 0
AnchorPoint: "r;hi" 489 732 basechar 0
AnchorPoint: "r;t" 499 562 basechar 0
AnchorPoint: "r;x" 489 415 basechar 0
LayerCount: 3
Fore
SplineSet
-43 -166 m 0
 -43 -158 -34 -98 -14 -98 c 0
 -9 -98 -2 -101 -1 -111 c 0
 3 -135 24 -147 29 -147 c 0
 59 -147 58 -63 85 127 c 0
 130 449 134 553 211 661 c 0
 246 710 296 740 337 740 c 0
 371 740 459 719 459 625 c 0
 459 504 311 452 311 375 c 0
 311 347 335 313 391 251 c 0
 422 216 460 184 460 117 c 0
 460 81 432 -14 304 -14 c 0
 265 -14 192 -2 192 51 c 0
 192 82 213 87 225 87 c 0
 276 87 258 18 319 18 c 0
 392 18 399 71 399 83 c 0
 399 130 367 163 331 199 c 0
 276 256 254 299 254 334 c 0
 254 432 398 480 398 605 c 0
 398 661 363 698 322 698 c 0
 258 698 243 641 237 625 c 0
 207 547 186 426 185 416 c 0
 157 196 145 -19 119 -82 c 0
 80 -176 14 -189 -7 -189 c 0
 -24 -189 -43 -182 -43 -166 c 0
EndSplineSet
EndChar

StartChar: section
Encoding: 167 167 247
Width: 542
VWidth: 488
Flags: HW
PickledData: "(dp1
Vspacing_anchors_slanted
p2
I00
s."
HStem: -181 45<167.942 325.046> 680 20G<459.5 465.5> 683 37<238.356 379.467>
VStem: 59 36<-41.5556 39.884> 83 61<247.67 343.592> 125 62<531.906 618.08> 393 55<-63.9444 27.0249> 425 56<209.308 316.46>
AnchorPoint: "l;bl" 0 20 basechar 0
AnchorPoint: "l;lo" 20 -205 basechar 0
AnchorPoint: "l;o" 0 220 basechar 0
AnchorPoint: "l;hi" 88 732 basechar 0
AnchorPoint: "l;t" 49 562 basechar 0
AnchorPoint: "l;x" 20 415 basechar 0
AnchorPoint: "r;bl" 512 20 basechar 0
AnchorPoint: "r;lo" 454 -205 basechar 0
AnchorPoint: "r;o" 542 220 basechar 0
AnchorPoint: "r;hi" 542 732 basechar 0
AnchorPoint: "r;t" 542 562 basechar 0
AnchorPoint: "r;x" 542 415 basechar 0
LayerCount: 3
Back
SplineSet
59 12 m 4xb0
 59 22 62 40 75 40 c 4
 82 40 88 35 90 28 c 4xb0
 92 19 119 -136 236 -136 c 4
 329 -136 393 -79 393 -17 c 4
 393 92 83 80 83 258 c 4xaa
 83 383 195 418 195 426 c 4
 195 438 125 454 125 536 c 4
 125 631 206 720 323 720 c 4xa4
 398 720 418 693 440 693 c 4
 444 693 456 700 463 700 c 4xc4
 468 700 478 697 478 690 c 4
 479 650 483 589 483 564 c 4
 483 545 479 526 468 526 c 4
 437 526 465 616 380 665 c 4
 361 676 337 683 304 683 c 4
 223 683 187 617 187 577 c 4
 187 460 481 491 481 306 c 4xa5
 481 182 394 138 394 131 c 4
 394 123 425 119 441 65 c 4
 445 50 448 35 448 21 c 4
 448 -64 377 -181 224 -181 c 4
 175 -181 139 -177 83 -143 c 4xaa
 64 -132 59 -12 59 12 c 4xb0
144 299 m 4x89
 144 273 157 247 189 225 c 4
 217 205 350 153 355 153 c 4
 371 153 425 207 425 263 c 4
 425 334 340 364 300 381 c 4
 275 392 242 404 236 404 c 4
 223 404 144 366 144 299 c 4x89
EndSplineSet
Fore
SplineSet
59 12 m 0xb0
 59 22 62 40 75 40 c 0
 90 40 90 25 95 6 c 0xb0
 107 -39 143 -136 236 -136 c 0
 329 -136 393 -79 393 -17 c 0
 393 92 83 80 83 258 c 0xaa
 83 383 195 418 195 426 c 0
 195 438 125 454 125 536 c 0
 125 631 206 720 323 720 c 0xa4
 398 720 418 693 440 693 c 0
 444 693 456 700 463 700 c 0xc4
 468 700 478 697 478 690 c 0
 479 650 483 589 483 564 c 0
 483 545 479 526 468 526 c 0
 437 526 465 616 380 665 c 0
 361 676 337 683 304 683 c 0
 223 683 187 617 187 577 c 0
 187 460 481 491 481 306 c 0xa5
 481 182 394 138 394 131 c 0
 394 123 425 119 441 65 c 0
 445 50 448 35 448 21 c 0
 448 -64 377 -181 224 -181 c 0
 175 -181 139 -177 83 -143 c 0xaa
 64 -132 59 -12 59 12 c 0xb0
144 299 m 0x89
 144 273 157 247 189 225 c 0
 217 205 350 153 355 153 c 0
 371 153 425 207 425 263 c 0
 425 334 340 364 300 381 c 0
 275 392 242 404 236 404 c 0
 223 404 144 366 144 299 c 0x89
EndSplineSet
EndChar

StartChar: multiply
Encoding: 215 215 248
Width: 508
VWidth: 488
Flags: HW
PickledData: "(dp1
Vspacing_anchors_slanted
p2
I00
s."
HStem: 173 76<227.703 280.453>
VStem: 216 75<184.438 236.234>
DStem2: 120 376 85 347 0.707107 -0.707107<-15.4217 185.027 238.429 440.427> 87 74 118 42 0.707107 0.707107<-14.7151 187.216 242.639 443.221>
AnchorPoint: "l;bl" 0 20 basechar 0
AnchorPoint: "l;o" 0 220 basechar 0
AnchorPoint: "l;x" 0 415 basechar 0
AnchorPoint: "r;bl" 508 20 basechar 0
AnchorPoint: "r;o" 508 220 basechar 0
AnchorPoint: "r;x" 508 415 basechar 0
LayerCount: 3
Fore
SplineSet
79 358 m 0
 79 365 97 384 106 384 c 0
 110 384 115 381 120 376 c 2
 236 261 l 2
 242 255 248 249 255 249 c 0
 258 249 263 250 267 254 c 2
 392 379 l 2
 396 383 400 385 403 385 c 0
 410 385 429 367 429 359 c 0
 429 355 425 350 419 344 c 2
 298 223 l 2
 293 218 291 213 291 210 c 0
 291 206 294 202 298 198 c 2
 422 74 l 2
 427 69 429 65 429 62 c 0
 429 54 409 35 402 35 c 0
 399 35 395 37 390 42 c 2
 267 166 l 2
 262 171 257 173 253 173 c 0
 248 173 244 169 237 162 c 2
 118 42 l 2
 113 37 108 35 105 35 c 0
 98 35 79 53 79 61 c 0
 79 65 82 69 87 74 c 2
 207 195 l 2
 213 201 216 206 216 210 c 0
 216 215 213 219 209 223 c 2
 85 347 l 2
 81 351 79 355 79 358 c 0
EndSplineSet
EndChar

StartChar: plusminus
Encoding: 177 177 249
Width: 508
VWidth: 488
Flags: HW
PickledData: "(dp1
Vspacing_anchors_slanted
p2
I00
s."
HStem: 73 44<21.0568 485.991> 301 45<21.0034 231 275 485.92>
VStem: 231 44<138.05 301 346 509.892>
AnchorPoint: "l;bl" 0 20 basechar 0
AnchorPoint: "l;o" 0 220 basechar 0
AnchorPoint: "l;x" 0 415 basechar 0
AnchorPoint: "r;bl" 508 20 basechar 0
AnchorPoint: "r;o" 508 220 basechar 0
AnchorPoint: "r;x" 508 415 basechar 0
LayerCount: 3
Fore
SplineSet
21 90 m 0
 21 108 22 117 40 117 c 2
 468 117 l 2
 483 117 486 112 486 97 c 0
 486 82 485 73 465 73 c 2
 39 73 l 2
 28 73 21 75 21 90 c 0
21 324 m 0
 21 336 25 346 40 346 c 2
 221 346 l 2
 230 346 231 350 231 356 c 0
 231 359 231 362 231 365 c 2
 231 495 l 2
 231 506 238 510 247 510 c 0
 271 510 275 507 275 493 c 2
 275 365 l 2
 275 362 275 359 275 357 c 0
 275 351 277 346 287 346 c 2
 471 346 l 2
 480 346 486 344 486 331 c 0
 486 311 486 301 465 301 c 2
 287 301 l 2
 277 301 275 294 275 284 c 2
 275 152 l 2
 275 139 269 138 259 138 c 0
 238 138 231 139 231 152 c 2
 231 284 l 2
 231 297 230 301 215 301 c 2
 39 301 l 2
 22 301 21 309 21 324 c 0
EndSplineSet
EndChar

StartChar: divide
Encoding: 247 247 250
Width: 508
VWidth: 488
Flags: HW
PickledData: "(dp1
Vspacing_anchors_slanted
p2
I00
s."
HStem: 60 81<213.078 284.428> 188 44<21.0034 485.999> 280 81<207.31 279.922>
VStem: 208 82<64.8767 135.188 288.56 352.666>
AnchorPoint: "l;bl" 0 20 basechar 0
AnchorPoint: "l;o" 0 220 basechar 0
AnchorPoint: "l;x" 0 415 basechar 0
AnchorPoint: "r;bl" 508 20 basechar 0
AnchorPoint: "r;o" 508 220 basechar 0
AnchorPoint: "r;x" 508 415 basechar 0
LayerCount: 3
Fore
SplineSet
21 212 m 0
 21 225 22 232 40 232 c 2
 470 232 l 2
 486 232 486 225 486 211 c 0
 486 194 486 188 465 188 c 2
 39 188 l 2
 21 188 21 195 21 212 c 0
202 320 m 0
 202 342 222 361 244 361 c 0
 266 361 285 343 285 321 c 0
 285 299 266 280 244 280 c 0
 222 280 202 298 202 320 c 0
208 101 m 0
 208 123 226 141 248 141 c 0
 270 141 290 122 290 100 c 0
 290 78 271 60 249 60 c 0
 227 60 208 78 208 101 c 0
EndSplineSet
EndChar

StartChar: guillemotleft
Encoding: 171 171 251
Width: 351
VWidth: 488
Flags: HW
PickledData: "(dp1
Vspacing_anchors_slanted
p2
I00
s."
HStem: 84 265
VStem: 20 69<190.442 238.687> 143 69<191.334 238.902>
AnchorPoint: "l;bl" 15 20 basechar 0
AnchorPoint: "l;o" 0 220 basechar 0
AnchorPoint: "l;x" 39 415 basechar 0
AnchorPoint: "r;bl" 326 20 basechar 0
AnchorPoint: "r;o" 351 220 basechar 0
AnchorPoint: "r;x" 351 415 basechar 0
LayerCount: 3
Fore
SplineSet
20 215 m 0
 20 221 25 225 27 227 c 0
 173 349 172 349 176 349 c 0
 182 349 188 337 188 331 c 0
 188 319 89 227 89 217 c 0
 89 204 164 116 164 103 c 0
 164 97 154 84 147 84 c 0
 143 84 144 84 24 208 c 0
 22 210 20 212 20 215 c 0
143 215 m 0
 143 222 148 226 149 227 c 0
 295 349 294 349 299 349 c 0
 305 349 312 337 312 331 c 0
 312 319 212 228 212 217 c 0
 212 205 286 112 286 102 c 0
 286 99 278 84 270 84 c 0
 265 84 267 84 147 208 c 0
 145 210 143 212 143 215 c 0
EndSplineSet
AlternateSubs2: "'aalt' Access All Alternates lookup 0 subtable" guillemotleft.uppercase
AlternateSubs2: "'aalt' Access All Alternates in Latin lookup 0 subtable" guillemotleft.uppercase
Substitution2: "'case' Case-Sensitive Forms in Latin lookup 11 subtable" guillemotleft.uppercase
EndChar

StartChar: guillemotright
Encoding: 187 187 252
Width: 351
VWidth: 488
Flags: HW
PickledData: "(dp1
Vspacing_anchors_slanted
p2
I00
s."
HStem: 84 265
VStem: 139 69<194.76 242.329> 261 70<194.313 242.225>
AnchorPoint: "l;bl" 0 20 basechar 0
AnchorPoint: "l;o" 0 220 basechar 0
AnchorPoint: "l;x" 24 415 basechar 0
AnchorPoint: "r;bl" 312 20 basechar 0
AnchorPoint: "r;o" 351 220 basechar 0
AnchorPoint: "r;x" 336 415 basechar 0
LayerCount: 3
Fore
SplineSet
39 102 m 0
 39 114 139 209 139 215 c 0
 139 227 65 321 65 331 c 0
 65 334 73 349 81 349 c 0
 86 349 84 349 204 225 c 0
 206 223 208 220 208 217 c 0
 208 211 204 208 201 206 c 0
 55 84 57 84 52 84 c 0
 45 84 39 96 39 102 c 0
162 102 m 0
 162 114 261 206 261 216 c 0
 261 229 187 325 187 331 c 0
 187 338 197 349 204 349 c 0
 208 349 207 349 327 225 c 0
 329 223 331 220 331 217 c 0
 331 211 326 208 324 206 c 0
 178 84 179 84 175 84 c 0
 168 84 162 96 162 102 c 0
EndSplineSet
AlternateSubs2: "'aalt' Access All Alternates lookup 0 subtable" guillemotright.uppercase
AlternateSubs2: "'aalt' Access All Alternates in Latin lookup 0 subtable" guillemotright.uppercase
Substitution2: "'case' Case-Sensitive Forms in Latin lookup 11 subtable" guillemotright.uppercase
EndChar

StartChar: guilsinglleft
Encoding: 8249 8249 253
Width: 228
VWidth: 488
Flags: HW
PickledData: "(dp1
Vspacing_anchors_slanted
p2
I00
s."
HStem: 84 265
VStem: 19 70<191.372 237.714>
AnchorPoint: "r;x" 228 415 basechar 0
AnchorPoint: "r;o" 228 220 basechar 0
AnchorPoint: "r;bl" 203 20 basechar 0
AnchorPoint: "l;x" 39 415 basechar 0
AnchorPoint: "l;o" 0 220 basechar 0
AnchorPoint: "l;bl" 15 20 basechar 0
LayerCount: 3
Fore
SplineSet
19 215 m 0
 19 221 25 225 27 227 c 0
 173 349 172 349 176 349 c 0
 182 349 189 337 189 331 c 0
 189 319 89 227 89 217 c 0
 89 204 164 115 164 102 c 0
 164 96 154 84 147 84 c 0
 143 84 144 84 24 208 c 0
 22 210 19 212 19 215 c 0
EndSplineSet
AlternateSubs2: "'aalt' Access All Alternates lookup 0 subtable" guilsinglleft.uppercase
AlternateSubs2: "'aalt' Access All Alternates in Latin lookup 0 subtable" guilsinglleft.uppercase
Substitution2: "'case' Case-Sensitive Forms in Latin lookup 11 subtable" guilsinglleft.uppercase
EndChar

StartChar: guilsinglright
Encoding: 8250 8250 254
Width: 228
VWidth: 488
Flags: HW
PickledData: "(dp1
Vspacing_anchors_slanted
p2
I00
s."
HStem: 84 265
VStem: 138 70<194.313 242.558>
AnchorPoint: "r;x" 213 415 basechar 0
AnchorPoint: "r;o" 228 220 basechar 0
AnchorPoint: "r;bl" 188 20 basechar 0
AnchorPoint: "l;x" 24 415 basechar 0
AnchorPoint: "l;o" 0 220 basechar 0
AnchorPoint: "l;bl" 0 20 basechar 0
LayerCount: 3
Fore
SplineSet
39 102 m 0
 39 114 138 206 138 216 c 0
 138 229 64 317 64 330 c 0
 64 336 74 349 81 349 c 0
 85 349 84 349 204 225 c 0
 206 223 208 220 208 217 c 0
 208 211 203 208 201 206 c 0
 55 84 56 84 52 84 c 0
 45 84 39 96 39 102 c 0
EndSplineSet
AlternateSubs2: "'aalt' Access All Alternates lookup 0 subtable" guilsinglright.uppercase
AlternateSubs2: "'aalt' Access All Alternates in Latin lookup 0 subtable" guilsinglright.uppercase
Substitution2: "'case' Case-Sensitive Forms in Latin lookup 11 subtable" guilsinglright.uppercase
EndChar

StartChar: logicalnot
Encoding: 172 172 255
Width: 508
VWidth: 488
Flags: HW
PickledData: "(dp1
Vspacing_anchors_slanted
p2
I00
s."
HStem: 188 44<21.0648 442>
VStem: 442 45<40.0916 187.914>
AnchorPoint: "l;bl" 0 20 basechar 0
AnchorPoint: "l;o" 0 220 basechar 0
AnchorPoint: "l;x" 0 415 basechar 0
AnchorPoint: "r;bl" 508 20 basechar 0
AnchorPoint: "r;o" 508 220 basechar 0
AnchorPoint: "r;x" 508 415 basechar 0
LayerCount: 3
Fore
SplineSet
21 215 m 0
 21 232 31 232 40 232 c 2
 467 232 l 2
 484 232 487 230 487 213 c 2
 487 55 l 2
 487 45 485 40 472 40 c 0
 453 40 442 40 442 60 c 2
 442 171 l 2
 442 185 432 188 416 188 c 2
 41 188 l 2
 22 188 21 196 21 215 c 0
EndSplineSet
EndChar

StartChar: oslash
Encoding: 248 248 256
Width: 446
VWidth: 0
Flags: HMW
PickledData: "(dp1
Vspacing_anchors_slanted
p2
I00
s."
HStem: -10 30<153.362 244.597> 405 30<207.036 296.673>
VStem: 32 77<81.1795 280> 340 74<145.104 348.517>
DStem2: 43 -54 91 -58 0.4994 0.866371<-7.84693 88.5186 156.083 490.953 553.741 637.575>
AnchorPoint: "r;x" 426 415 basechar 0
AnchorPoint: "r;o" 446 220 basechar 0
AnchorPoint: "r;bl" 417 20 basechar 0
AnchorPoint: "l;x" 49 415 basechar 0
AnchorPoint: "l;o" 0 220 basechar 0
AnchorPoint: "l;bl" 10 20 basechar 0
LayerCount: 3
Fore
SplineSet
32 169 m 0
 32 293 116 435 268 435 c 0
 300 435 317 426 319 426 c 0
 321 426 322 429 326 437 c 2
 356 489 l 2
 359 494 363 498 368 498 c 0
 374 498 397 491 397 478 c 0
 397 475 397 472 383 449 c 0
 358 405 358 404 358 404 c 0
 358 401 414 366 414 258 c 0
 414 133 333 -10 186 -10 c 0
 151 -10 128 1 126 1 c 0
 124 1 124 -2 119 -10 c 2
 91 -58 l 2
 80 -77 77 -83 71 -83 c 0
 66 -83 41 -73 41 -62 c 0
 41 -60 42 -56 43 -54 c 2
 71 -6 l 2
 82 13 87 19 87 23 c 0
 87 30 32 60 32 169 c 0
109 168 m 0
 109 128 121 80 123 80 c 0
 123 80 131 96 139 110 c 2
 289 372 l 2
 294 381 298 386 298 388 c 0
 298 391 279 405 254 405 c 0
 206 405 152 361 129 280 c 0
 119 245 109 209 109 168 c 0
149 42 m 0
 149 33 175 20 196 20 c 0
 303 20 340 187 340 270 c 0
 340 318 328 349 327 349 c 0
 326 349 325 347 322 342 c 2
 166 72 l 2
 156 55 149 47 149 42 c 0
EndSplineSet
EndChar

StartChar: Oslash
Encoding: 216 216 257
Width: 815
VWidth: -2
Flags: HW
PickledData: "(dp1
Vspacing_anchors_slanted
p2
I00
s."
HStem: -20 36<308.261 486.79> 686 30<334.253 514.018>
VStem: 39 86<215.806 443.823> 688 88<243.029 504.979>
DStem2: 126 -79 167 -96 0.49908 0.866556<-11.7734 126.309 621.91 845.281 897.753 1001.4>
AnchorPoint: "r;x" 815 415 basechar 0
AnchorPoint: "r;t" 805 562 basechar 0
AnchorPoint: "r;hi" 727 732 basechar 0
AnchorPoint: "r;o" 805 220 basechar 0
AnchorPoint: "r;bl" 717 20 basechar 0
AnchorPoint: "l;x" 0 415 basechar 0
AnchorPoint: "l;t" 20 562 basechar 0
AnchorPoint: "l;hi" 98 732 basechar 0
AnchorPoint: "l;o" 10 220 basechar 0
AnchorPoint: "l;bl" 49 20 basechar 0
LayerCount: 3
Fore
SplineSet
39 314 m 0
 39 509 181 716 434 716 c 0
 522 716 565 694 570 694 c 0
 573 694 575 698 582 711 c 2
 617 773 l 2
 623 783 631 788 636 788 c 0
 641 788 662 781 662 768 c 0
 662 766 661 763 660 760 c 2
 622 694 l 2
 616 683 612 679 612 677 c 0
 612 673 776 601 776 376 c 0
 776 192 655 -20 394 -20 c 0
 290 -20 235 11 230 11 c 0
 226 11 225 5 215 -13 c 2
 167 -96 l 2
 165 -99 158 -111 151 -111 c 0
 141 -111 123 -100 123 -91 c 0
 123 -88 123 -84 126 -79 c 2
 177 7 l 2
 185 21 190 28 190 30 c 0
 190 37 39 102 39 314 c 0
125 347 m 0
 125 170 221 89 223 89 c 0
 225 89 230 97 239 114 c 2
 539 636 l 2
 546 648 549 653 549 655 c 0
 549 661 486 686 420 686 c 0
 222 686 125 491 125 347 c 0
258 62 m 0
 258 54 326 16 401 16 c 0
 584 16 688 204 688 380 c 0
 688 472 670 550 608 613 c 0
 595 626 590 631 587 631 c 0
 585 631 583 626 579 619 c 0
 264 71 258 64 258 62 c 0
EndSplineSet
Position2: "'cpsp' Capital Spacing in Latin lookup 2 subtable" dx=20 dy=0 dh=40 dv=0
EndChar

StartChar: uni0326
Encoding: 806 806 265
Width: 0
VWidth: 0
Flags: W
PickledData: "(dp1
Vspacing_anchors_slanted
p2
I00
s."
HStem: -199 153<-250 -219>
VStem: -215 46<-162.065 -101.179>
AnchorPoint: "cedilla" -220 -79 mark 0
LayerCount: 3
Fore
SplineSet
-267 -79 m 0
 -267 -79 -233 -46 -219 -46 c 0
 -215 -46 -169 -61 -169 -105 c 0
 -169 -170 -237 -199 -250 -199 c 0
 -253 -199 -255 -197 -255 -195 c 0
 -255 -187 -215 -180 -215 -139 c 0
 -215 -94 -267 -96 -267 -79 c 0
EndSplineSet
EndChar

StartChar: uni0312
Encoding: 786 786 280
Width: 0
VWidth: 0
Flags: W
PickledData: "(dp1
Vspacing_anchors_slanted
p2
I00
s."
HStem: 501 153<-219 -188>
VStem: -269 46<556.678 617.418>
AnchorPoint: "l;k;t" -303 562 mark 0
AnchorPoint: "r;k;t" -156 562 mark 0
AnchorPoint: "top" -220 459 mark 0
LayerCount: 3
Fore
SplineSet
-269 561 m 0
 -269 626 -201 654 -188 654 c 0
 -185 654 -183 652 -183 650 c 0
 -183 642 -223 635 -223 594 c 0
 -223 549 -171 551 -171 534 c 0
 -171 534 -205 501 -219 501 c 0
 -223 501 -269 517 -269 561 c 0
EndSplineSet
EndChar

StartChar: AE
Encoding: 198 198 283
Width: 1078
VWidth: 997
Flags: HMW
PickledData: "(dp1
Vspacing_anchors_slanted
p2
I01
s."
HStem: -2 32<22.0101 76.0437 466.421 528.261> 0 38<625.235 817.226> 257 47<329.009 571.811> 340 39<661.181 884.146> 665 40<579.46 618.997 696.756 991.735>
VStem: 905 29<241.798 315.557>
DStem2: 502 604 279 245 0.615032 0.788502<-128.566 76.5509> 572 252 621 74 0.123334 0.992365<-169.701 3.42515 50.8458 98.9087 139.912 151.893 356.426 413.91>
AnchorPoint: "l;s;AE" 0 -73 basechar 0
AnchorPoint: "l;x" 176 415 basechar 0
AnchorPoint: "l;t" 254 562 basechar 0
AnchorPoint: "l;hi" 342 732 basechar 0
AnchorPoint: "l;o" 98 220 basechar 0
AnchorPoint: "l;bl" 0 20 basechar 0
AnchorPoint: "r;x" 1073 415 basechar 0
AnchorPoint: "r;t" 1078 562 basechar 0
AnchorPoint: "r;hi" 1078 732 basechar 0
AnchorPoint: "r;o" 1068 220 basechar 0
AnchorPoint: "r;bl" 1044 20 basechar 0
LayerCount: 3
Fore
SplineSet
329 312 m 0x3c
 329 306 341 304 357 304 c 0
 375 304 417 305 580 305 c 1
 607 543 l 2
 613 598 619 629 619 646 c 0
 619 660 615 665 606 665 c 0
 598 665 584 651 574 639 c 0
 497 540 329 316 329 312 c 0x3c
20 7 m 0
 20 21 38 26 48 30 c 0xbc
 106 51 89 67 502 604 c 2
 541 654 l 2
 543 657 546 662 546 667 c 0
 546 688 485 670 485 691 c 0
 485 701 490 705 508 705 c 0
 562 705 605 705 616 705 c 0
 658 705 721 703 815 703 c 0
 855 703 1016 708 1046 708 c 0
 1053 708 1063 705 1063 688 c 0
 1063 675 1060 659 1060 636 c 0
 1060 620 1063 603 1063 582 c 0
 1063 570 1058 553 1050 553 c 0
 1023 553 1048 593 1016 630 c 0
 1011 636 979 660 911 661 c 0
 831 662 813 664 756 664 c 0
 694 664 696 657 686 597 c 0
 682 569 661 407 661 394 c 0
 661 381 664 379 704 379 c 0
 885 379 892 384 908 404 c 0
 932 434 928 456 941 456 c 0
 950 456 954 452 954 444 c 0
 954 426 940 380 934 340 c 0
 929 305 937 241 916 241 c 0
 907 241 905 249 905 258 c 0
 905 277 905 306 888 318 c 0
 869 332 833 339 781 339 c 0
 694 339 706 340 695 340 c 0
 674 340 658 338 657 322 c 0
 649 251 621 91 621 74 c 0
 621 41 647 38 747 38 c 0
 996 38 1003 136 1029 136 c 0
 1034 136 1039 133 1039 123 c 0
 1039 91 968 -10 922 -10 c 0
 794 -10 675 0 614 0 c 0x7c
 559 0 550 -2 501 -2 c 0
 466 -2 466 7 466 12 c 0
 466 17 473 25 489 26 c 0
 541 29 544 62 572 252 c 1
 568 255 562 258 551 258 c 0
 531 258 499 257 438 257 c 0
 317 257 350 260 314 260 c 0
 298 260 287 256 279 245 c 0
 196 137 160 74 159 69 c 0
 158 64 158 60 158 56 c 0
 158 18 209 35 209 15 c 0
 209 0 203 -2 184 -2 c 0xbc
 169 -2 141 0 106 0 c 0x7c
 90 0 77 -1 36 -2 c 0xbc
 25 -2 20 2 20 7 c 0
EndSplineSet
Position2: "'cpsp' Capital Spacing in Latin lookup 2 subtable" dx=20 dy=0 dh=40 dv=0
EndChar

StartChar: ae
Encoding: 230 230 284
Width: 704
VWidth: 0
Flags: HMW
PickledData: "(dp1
Vspacing_anchors_slanted
p2
I01
s."
HStem: -15 55<125.715 212.186> -12 60<454.872 581.941> 214 17<417.352 480.691> 393 27<247.538 360.124> 406 30<507.996 589.592>
VStem: 32 70<63.0764 208.906> 603 69<302.52 397.23>
AnchorPoint: "l;x" 49 415 basechar 0
AnchorPoint: "l;o" 0 220 basechar 0
AnchorPoint: "l;bl" 0 20 basechar 0
AnchorPoint: "r;x" 704 415 basechar 0
AnchorPoint: "r;o" 704 220 basechar 0
AnchorPoint: "r;bl" 691 20 basechar 0
LayerCount: 3
Fore
SplineSet
32 114 m 0xa6
 32 226 149 420 296 420 c 0xb6
 327 420 343 414 376 414 c 0
 396 414 408 463 428 463 c 0
 434 463 439 459 439 448 c 0
 439 430 416 382 416 359 c 0
 416 356 417 355 418 355 c 0
 428 355 464 436 585 436 c 0
 632 436 672 406 672 362 c 0
 672 290 595 249 576 241 c 0
 567 237 512 215 418 214 c 0
 404 214 401 199 401 173 c 0
 401 98 446 48 545 48 c 0
 602 48 642 91 653 91 c 0
 661 91 666 87 666 81 c 0
 666 58 579 -12 492 -12 c 0x6e
 327 -12 345 108 331 108 c 0
 315 108 238 -15 139 -15 c 0
 44 -15 32 49 32 114 c 0xa6
102 120 m 0
 102 70 138 40 180 40 c 0
 252 40 299 112 308 130 c 0
 331 177 358 355 358 359 c 0
 358 383 320 393 298 393 c 0
 207 393 102 258 102 120 c 0
416 251 m 0
 416 244 417 231 424 231 c 0
 521 231 603 296 603 359 c 0
 603 397 567 406 550 406 c 0x2e
 525 406 494 386 468 359 c 0
 438 328 416 264 416 251 c 0
EndSplineSet
EndChar

StartChar: OE
Encoding: 338 338 285
Width: 1047
VWidth: 0
Flags: HMW
PickledData: "(dp1
Vspacing_anchors_slanted
p2
I01
s."
HStem: -20 36<309.86 485.294> 0 38<611.855 786.226> 340 39<630.181 850.801> 664 39<671.508 961.773> 686 30<334.253 513.472>
VStem: 39 86<210.223 443.823> 874 29<242.611 314.889>
DStem2: 547 294 590 74 0.121465 0.992596<-236.822 -134.566 37.3884 56.3174 97.3212 109.341 313.753 351.377>
AnchorPoint: "r;x" 1042 415 basechar 0
AnchorPoint: "r;t" 1047 562 basechar 0
AnchorPoint: "r;hi" 1047 732 basechar 0
AnchorPoint: "r;o" 1037 220 basechar 0
AnchorPoint: "r;bl" 1013 20 basechar 0
AnchorPoint: "l;x" 0 415 basechar 0
AnchorPoint: "l;t" 20 562 basechar 0
AnchorPoint: "l;hi" 98 732 basechar 0
AnchorPoint: "l;o" 10 220 basechar 0
AnchorPoint: "l;bl" 49 20 basechar 0
LayerCount: 3
Fore
SplineSet
125 347 m 0xae
 125 130 262 16 401 16 c 0
 514 16 508 55 526 161 c 0
 531 195 540 240 547 294 c 2
 583 597 l 2
 584 606 584 612 584 617 c 0
 584 671 448 686 420 686 c 0
 222 686 125 491 125 347 c 0xae
39 314 m 0
 39 509 181 716 434 716 c 0xae
 515 716 433 703 784 703 c 0
 824 703 985 708 1015 708 c 0
 1022 708 1032 705 1032 688 c 0
 1032 675 1029 659 1029 636 c 0
 1029 620 1032 603 1032 582 c 0
 1032 570 1027 553 1019 553 c 0
 992 553 1017 593 985 630 c 0
 980 636 947 660 879 661 c 0
 799 662 782 664 725 664 c 0
 663 664 664 657 654 597 c 0
 650 569 630 407 630 394 c 0
 630 381 633 379 673 379 c 0
 854 379 860 384 876 404 c 0
 900 434 897 456 910 456 c 0
 919 456 922 452 922 444 c 0
 922 426 909 380 903 340 c 0
 898 305 905 241 884 241 c 0
 875 241 874 249 874 258 c 0
 874 277 873 306 856 318 c 0
 837 332 802 339 750 339 c 0
 663 339 675 340 664 340 c 0
 643 340 627 338 626 322 c 0
 618 251 590 91 590 74 c 0
 590 59 596 50 611 45 c 0
 629 39 662 38 716 38 c 0
 965 38 972 136 998 136 c 0
 1003 136 1008 133 1008 123 c 0
 1008 91 937 -10 891 -10 c 0
 763 -10 644 0 583 0 c 0x76
 468 0 500 -20 394 -20 c 0
 180 -20 39 114 39 314 c 0
EndSplineSet
Position2: "'cpsp' Capital Spacing in Latin lookup 2 subtable" dx=20 dy=0 dh=40 dv=0
EndChar

StartChar: oe
Encoding: 339 339 286
Width: 701
VWidth: 0
Flags: HW
PickledData: "(dp1
Vspacing_anchors_slanted
p2
I01
s."
HStem: -13 33<152.667 247.919> -12 60<450.578 578.941> 214 17<414.174 477.691> 405 30<207.036 296.14 502.536 587.547>
VStem: 32 77<68.6701 280> 340 73<231.009 312.572> 600 69<302.52 397.23>
AnchorPoint: "r;x" 701 415 basechar 0
AnchorPoint: "r;o" 701 220 basechar 0
AnchorPoint: "r;bl" 688 20 basechar 0
AnchorPoint: "l;x" 49 415 basechar 0
AnchorPoint: "l;o" 0 220 basechar 0
AnchorPoint: "l;bl" 10 20 basechar 0
LayerCount: 3
Fore
SplineSet
32 169 m 0xbe
 32 293 116 435 268 435 c 0
 376 435 397 340 401 340 c 0
 413 340 456 436 583 436 c 0
 630 436 669 406 669 362 c 0
 669 290 592 249 573 241 c 0
 564 237 510 215 416 214 c 0
 402 214 398 199 398 173 c 0
 398 98 443 48 542 48 c 0
 599 48 639 91 650 91 c 0
 658 91 663 87 663 81 c 0
 663 58 576 -12 489 -12 c 0x7e
 361 -12 348 62 345 62 c 0
 342 62 290 -13 186 -13 c 0
 104 -13 32 47 32 169 c 0xbe
109 168 m 0
 109 67 149 20 196 20 c 0xbe
 303 20 340 187 340 270 c 0
 340 364 300 405 254 405 c 0
 206 405 152 361 129 280 c 0
 119 245 109 209 109 168 c 0
413 251 m 0
 413 244 414 231 421 231 c 0
 518 231 600 296 600 359 c 0
 600 397 564 406 547 406 c 0
 522 406 491 386 465 359 c 0
 435 328 413 264 413 251 c 0
EndSplineSet
EndChar

StartChar: uni0304
Encoding: 772 772 287
Width: 0
VWidth: -2
Flags: W
PickledData: "(dp1
Vspacing_anchors_slanted
p2
I00
s."
HStem: 564 44<-313.637 -101.2>
VStem: -314 213<564.101 605.76>
AnchorPoint: "r;k;t" -90 562 mark 0
AnchorPoint: "l;k;t" -333 562 mark 0
AnchorPoint: "top" -220 459 mark 0
LayerCount: 3
Fore
SplineSet
-314 581 m 0
 -314 593 -308 608 -294 608 c 0
 -154 608 -201 606 -114 606 c 0
 -104 606 -101 605 -101 592 c 0
 -101 576 -104 563 -118 563 c 0
 -136 563 -270 564 -306 564 c 0
 -311 564 -314 572 -314 581 c 0
EndSplineSet
EndChar

StartChar: uni0315
Encoding: 789 789 313
Width: 0
VWidth: 0
Flags: W
PickledData: "(dp1
Vspacing_anchors_slanted
p2
I00
s."
HStem: 587 152<-250 -219>
VStem: -215 45<622.044 684.321>
AnchorPoint: "r;k;t" -150 562 mark 0
AnchorPoint: "right" -220 698 mark 0
LayerCount: 3
Fore
SplineSet
-267 707 m 0
 -267 707 -233 739 -219 739 c 0
 -215 739 -170 724 -170 680 c 0
 -170 615 -237 587 -250 587 c 0
 -253 587 -256 589 -256 591 c 0
 -256 599 -215 606 -215 647 c 0
 -215 692 -267 690 -267 707 c 0
EndSplineSet
EndChar

